<mxfile host="app.diagrams.net" modified="2024-03-07T12:13:12.397Z" agent="Mozilla/5.0 (X11; Linux x86_64) AppleWebKit/537.36 (KHTML, like Gecko) Chrome/122.0.0.0 Safari/537.36" etag="hEZyp8De3s5zXL_atd5t" version="23.1.6" type="github">
  <diagram name="Page-1" id="_YezRGhQVNkFcSN4AqqG">
    <mxGraphModel dx="1793" dy="1143" grid="1" gridSize="10" guides="1" tooltips="1" connect="1" arrows="1" fold="1" page="1" pageScale="1" pageWidth="850" pageHeight="1100" math="0" shadow="0">
      <root>
        <mxCell id="0" />
        <mxCell id="1" parent="0" />
        <mxCell id="lvK7uPui4H0XOwhTd2_x-1" value="" style="shape=image;verticalLabelPosition=bottom;labelBackgroundColor=default;verticalAlign=top;aspect=fixed;imageAspect=0;image=data:image/png,iVBORw0KGgoAAAANSUhEUgAAANcAAADVCAIAAABL1/LpAAAKrmlDQ1BJQ0MgUHJvZmlsZQAASA2tlndUU9kWxve96Y0WiICU0DvSq/QaiiAdbIQkEFoMgSBiQ2VwBMeCiAhWdAREwbEAMhbEgoVBsPcBGVTUcVAHGyrvBh6Zeeu9+e+dtc45v+zzZZ961/oA6FVcsTgLVQLIFuVJooJ82QmJSWzSI8ADHVSADI5cXq7YJzIyDP6xvL8NiGzwhpUs1z/K/veAMl+QywNAIrHhFH4uLxvjY1gt4okleQA4ByxuuChPLOMEjFUl2AIxls2jmjbJRTJOmeSKCU1MlB+mqQcg07lcSRoA7RgWZ+fz0rA8tJsY24j46SIAOh5jT56Qy8fYH2PL7OyFMhZjbJrytzxpf2MuN0Wek8tNk/PkXrB/YhP7p+eKs7iLJ378P5vsLCl2XhNFB2vpuZnRoVhPxs6sgMcNiJ5ioYAju7OJuDjPN2qK0/M4MVMslAbHTrE0M9ZnijMXhsr1opRZEVNxXq4fdvaTOQuFMfFTzBf4B0yxZGGUXJ+bHy2PFwr9Zk1pMrghsvueWBtXgtG/WZAVJJ9XnBcpX6coa5Z8L6mSQLlGkPvXfvOEMcFTefIkMXJNanogZyoulATL4+KsiTc9sQaJNEp+DgJRrPwM+Vx/+dlCOoQDF3h5ggLsDQH4LRQvlqSnCfPYPtirF1iyOSKetSXbzsbWHmTfkEwD8I418W0grCt/xXI6AFxLsfuSPV+2TAXANQA48RSA+f6vmMFb7Ho3Apzq5Ukl+ZM62XMFAlBBEVRBA3TAAEzBCuzACdzBGwIgBCIgBhJhPvBACNkggUWwFFZCCZTBRtgC1bAL9kI9HIIj0Aon4SxchKvQC7fgAfTDELyEEXgPYwiCkBAGwkQ0EF3ECLFA7BAXxBMJQMKQKCQRSUbSEBEiRZYiq5EypBypRvYgDchPyAnkLHIZ6UPuIQPIMPIW+YziUDqqimqjxugM1AX1QUPRGHQemobmoIVoMboerUJr0YNoC3oWvYreQvvRl+goDnA0HAunh7PCueD8cBG4JFwqToJbjivFVeJqcU24dlwX7gauH/cK9wlPxDPxbLwV3h0fjI/F8/A5+OX4dfhqfD2+BX8efwM/gB/BfyMwCFoEC4IbgUNIIKQRFhFKCJWE/YTjhAuEW4QhwnsikcgimhCdicHERGIGcQlxHXEHsZnYQewjDhJHSSSSBsmC5EGKIHFJeaQS0jbSQdIZ0nXSEOkjmUbWJduRA8lJZBF5FbmSfIB8mnyd/Iw8RlGiGFHcKBEUPmUxZQNlH6Wdco0yRBmjKlNNqB7UGGoGdSW1itpEvUB9SH1Ho9H0aa602bR0WhGtinaYdok2QPtEV6Gb0/3oc+lS+np6Hb2Dfo/+jsFgGDO8GUmMPMZ6RgPjHOMx46MCU8FagaPAV1ihUKPQonBd4bUiRdFI0UdxvmKhYqXiUcVriq+UKErGSn5KXKXlSjVKJ5TuKI0qM5VtlSOUs5XXKR9Qvqz8XIWkYqwSoMJXKVbZq3JOZZCJYxow/Zg85mrmPuYF5pAqUdVElaOaoVqmeki1R3VETUXNQS1OrUCtRu2UWj8LxzJmcVhZrA2sI6zbrM/TtKf5TBNMWzutadr1aR/Up6t7qwvUS9Wb1W+pf9ZgawRoZGps0mjVeKSJ1zTXnK25SHOn5gXNV9NVp7tP500vnX5k+n0tVMtcK0pridZerW6tUW0d7SBtsfY27XPar3RYOt46GToVOqd1hnWZup666boVumd0X7DV2D7sLHYV+zx7RE9LL1hPqrdHr0dvTN9EP1Z/lX6z/iMDqoGLQapBhUGnwYihrmG44VLDRsP7RhQjFyOh0VajLqMPxibG8cZrjFuNn5uom3BMCk0aTR6aMky9THNMa01vmhHNXMwyzXaY9Zqj5o7mQvMa82sWqIWTRbrFDos+S4Klq6XIstbyjhXdyscq36rRasCaZR1mvcq61fr1DMMZSTM2zeia8c3G0SbLZp/NA1sV2xDbVbbttm/tzO14djV2N+0Z9oH2K+zb7N84WDgIHHY63HVkOoY7rnHsdPzq5OwkcWpyGnY2dE523u58x0XVJdJlncslV4Krr+sK15Oun9yc3PLcjrj94W7lnul+wP35TJOZgpn7Zg566HtwPfZ49HuyPZM9d3v2e+l5cb1qvZ54G3jzvfd7P/Mx88nwOejz2tfGV+J73PeDn5vfMr8Of5x/kH+pf0+ASkBsQHXA40D9wLTAxsCRIMegJUEdwYTg0OBNwXc42hwep4EzEuIcsizkfCg9NDq0OvRJmHmYJKw9HA0PCd8c/nCW0SzRrNYIiOBEbI54FGkSmRP582zi7MjZNbOfRtlGLY3qimZGL4g+EP0+xjdmQ8yDWNNYaWxnnGLc3LiGuA/x/vHl8f0JMxKWJVxN1ExMT2xLIiXFJe1PGp0TMGfLnKG5jnNL5t6eZzKvYN7l+Zrzs+afWqC4gLvgaDIhOT75QPIXbgS3ljuawknZnjLC8+Nt5b3ke/Mr+MMCD0G54FmqR2p56vM0j7TNacNCL2Gl8FW6X3p1+puM4IxdGR8yIzLrMsez4rOas8nZydknRCqiTNH5hToLCxb2iS3EJeL+HLecLTkjklDJ/lwkd15uW54qZla6pabS76QD+Z75NfkfF8UtOlqgXCAq6F5svnjt4meFgYU/LsEv4S3pXKq3dOXSgWU+y/YsR5anLO9cYbCieMVQUVBR/UrqysyVv6yyWVW+6s/V8avbi7WLi4oHvwv6rrFEoURScmeN+5pd3+O/T/++Z6392m1rv5XyS6+U2ZRVln1Zx1t35QfbH6p+GF+fur5ng9OGnRuJG0Ubb2/y2lRfrlxeWD64OXxzSwW7orTizy0LtlyudKjctZW6Vbq1vyqsqm2b4baN275UC6tv1fjWNG/X2r52+4cd/B3Xd3rvbNqlvats1+fd6bvv7gna01JrXFu5l7g3f+/TfXH7un50+bFhv+b+sv1f60R1/fVR9ecbnBsaDmgd2NCINkobhw/OPdh7yP9QW5NV055mVnPZYTgsPfzip+Sfbh8JPdJ51OVo0zGjY9uPM4+XtiAti1tGWoWt/W2JbX0nQk50tru3H//Z+ue6k3ona06pndpwmnq6+PT4mcIzox3ijldn084Odi7ofHAu4dzN87PP91wIvXDpYuDFc10+XWcueVw6ednt8okrLldarzpdbel27D7+i+Mvx3ucelquOV9r63Xtbe+b2Xf6utf1szf8b1y8ybl59dasW323Y2/fvTP3Tv9d/t3n97Luvbmff3/sQdFDwsPSR0qPKh9rPa791ezX5n6n/lMD/gPdT6KfPBjkDb78Lfe3L0PFTxlPK5/pPmt4bvf85HDgcO+LOS+GXopfjr0q+V359+2vTV8f+8P7j+6RhJGhN5I342/XvdN4V/enw5+do5Gjj99nvx/7UPpR42P9J5dPXZ/jPz8bW/SF9KXqq9nX9m+h3x6OZ4+Pi7kS7oQXwGEtmpoK8LYOgJGIeYdeAKrCpMedUCCTvhxjmT+f8Oj/zZM+eELvBFDnDRBbBBDWAbATq0YY07FeZtdivAG1t5dXLCIruan2dhOA0CWYNfk4Pv5OG4DUDvBVMj4+tmN8/Os+zIvfA+jImfTWMjVRCWC3ioy6dZbLuv8o/wJfgvD8xiPXzgAAAZ1pVFh0WE1MOmNvbS5hZG9iZS54bXAAAAAAADx4OnhtcG1ldGEgeG1sbnM6eD0iYWRvYmU6bnM6bWV0YS8iIHg6eG1wdGs9IlhNUCBDb3JlIDUuMS4yIj4KICAgPHJkZjpSREYgeG1sbnM6cmRmPSJodHRwOi8vd3d3LnczLm9yZy8xOTk5LzAyLzIyLXJkZi1zeW50YXgtbnMjIj4KICAgICAgPHJkZjpEZXNjcmlwdGlvbiByZGY6YWJvdXQ9IiIKICAgICAgICAgICAgeG1sbnM6ZXhpZj0iaHR0cDovL25zLmFkb2JlLmNvbS9leGlmLzEuMC8iPgogICAgICAgICA8ZXhpZjpQaXhlbFhEaW1lbnNpb24+MjE1PC9leGlmOlBpeGVsWERpbWVuc2lvbj4KICAgICAgICAgPGV4aWY6UGl4ZWxZRGltZW5zaW9uPjIxMzwvZXhpZjpQaXhlbFlEaW1lbnNpb24+CiAgICAgIDwvcmRmOkRlc2NyaXB0aW9uPgogICA8L3JkZjpSREY+CjwveDp4bXBtZXRhPgpkO1kNAABAAElEQVR4AezdWayuaXYX9m8e9z77DDV0VVd1t7va1U1PsbGDZEckF7GCDAY7jkhIlAtDriOIScAkkSCJIkCgCAmU3DnGDuGCCzvIN5YVEWwnOAJjd9s90dXd1V3zOXWGffb+5im//3q/farasYiNu6vqIu/Z5/ve73mfca3/s9Z61jO87cPh0HoPXbtW67A/7F2tQ2u/3+33h91he9htN7vNZrPa5XPdau3ah816vdytF7vNeidKaztfzGfzSxE7rUO7tdvuV9vNcr9fd7q9wfj54fCDb9x58ysvfGU+m7Vd1eS0vJrfkCDhnhRFRNju9912W15q0s6/w05lNls3h9Tu0O7k3/5waDcZSdhud1qtTqfT7vrvVn4itsRZbza77U7UbsJTiAjdXteN5rY7HZ+r1Spt2bWu37j56X/t49PJycXmn2wPt9eb7Wbb6w9Gu/2gK9NWd9AdjSaT0/F4NBz1uuNUsNPv9ybddm80nAz6w35/2M69p4Nuv6/23U6v21F4/jothXekqfq+++zvvftV+O01gIviKk5BQIGgOAWYuAcCrf0WOrebzRZgN/vdOkDE5E1RenDY7jbL1Wa36uNVb7oB0QJmsqrriLmg6+pSwBGZCVHErrUPaLptTAtQfagNbqdK7YMMU4W9m477RGiFwbk7xnJTdU+GbnqBZh5W6wA1+QSlggKIltZVz4N7+E4iVwCzOAR5vZ7AxXLZ2beuTa/1O63+/jDpdvvtznq7bneH1ZY0Ar4abKXfVB9SpNo1xTWV8USxKfu9cb0XUfgIHci5i9iprl68xCqBW4KKcHSREbvdASKIGwTtiLnvdPZ9TMaasKREq+dQFIgUs8TEgfx862o4lt9Atg8IAzr5diOS4a7bwbZ2q9cjtCJqybeS2d1eaIjJDXJkirm5z1Vl+m63RetE8AnaybiJVnESv+oTECajwN1/NUpXUwmCtQtcg14au2oNB4PRYDDo9iKpO+3dZt/u7rupDFJ0COxUcb/v9Tvd4D4ID92Onfuby25q8G5/XpHr3a5HUz4KQZN/Tc9NYHXYwLB0XBjc7fbS2yOCKnKrg9443IbENgG5ClsOvX4fzxfzJUmJJfjboO4IkQYeV0CEL38lazF9nzJhuFf665guNUmEQruyqmrtcH6zKdCk6moUcVi5iaDQxK+OlPtqi6/S2YCpj5Qyr5ilKzWscCgqeO1b69V6D3/9oEnHGGvVaLAmpRXTaS0329lycYCv4ExAq9cnPNkvW7ZMCi5gH1vpK3/5d/xIpu+J670mC8PIhlLIw0D0GY4X3XJfsq1NE5FAe0ppgxv0J/UYybjbr1fE1HLQbw2xeNterdaHLvxiUOX8dnzIrrlkXhdR12gpAbkNHjyARlI1N1hPSKoe0Lep2E771q2bjK179++v14SWuu+jJJt0laesK22V70e1KHUBM4D3rCm8dGdkfwLSKWCP9GTLrVIBUrA9oBcIRzq5q4GDfjtmZkf4WPu3Q9ZHrztiAnb76CATOSinqtzZB6mpYKCqSm9Vq2r5bn+8t2RhsSw2TIjH7CJdWGiYimx+pGsf2jHGDj1Xn46ryB5FL+97qN3di+Cv32oPez3CY9DuFSoKDJWD7Aw78jv5vnU9gotSElpcS4n1W5UyGGk0W4FmOBx++pOf/J7v+YNnZ2fqC2BqIVlAXzlHBMNt2iPYfTpVk2/UbW5TkHL9gV40L0kP9fnojcaTrXwYCO1Wvw9S7e1yt1uvYydEGsJ7j10cFmpvBjihGiQjTCTnfpsy66q2lByvljXViyp5b1zvIRSGXFGGx7+AL4IHt4KDmOrUMk1pxFDmHgJCRXRxq2WwOR4OR8M+mwk8EZ2NJEm/D5UUFIw+klDhjEKi/ApM0KBkueV/gF/6NrHCJU/1hgQnGesPglPids86bV87O7tx/eZwQPszYWM41EdllehJkDY0mSuxbvLTfdMlEieNxgmdqq9vkXP+DfrQCG8gaIicZ7EQDr2Mkmnpg6cUAiWwmq96el/6CJzFh9AIWZ4EMjJFpVNUKVWv1Oo9dr2HUFiUCRRd7iOtalQZSwtkQsjSjjHyMSemEcITQf6iIYf9FmucROi2hGxbu9V+tzBK6RwghtDD6H10UZBSAGkYc0ReFSvH6gUyCWESM99NfR7ddGhjHUH5JaGV1qBMf6khCrwKkyrsV2zAfCxQHser6vBNoWmiPtVPL4sPJ26i4XCw27WWy/V2u85A16h/PBiNBh2Kd9juDg6gGqskfZWOyOA9oxq9GSS1N+OVlF7iWQAtclWB1OltP94Kfhfu3lt2IQw0WiIEangbNkJDIIiUpAKAsQFDaVYSC2hnMFujhPV6tVkbOouJGYbQ6yV34oqPZDSQB4pHIITGyTEcwLJCUEKO4Sm0bksC50G0cK+pTUWqpyRiBgJHOzKiko3HkiN7K1LVN2U2FVdaU3yTd2pxVVCFHD+qrzEN0xdo5aa+5OFh1+5sCeUdN6AnlLWS9R5GKtF/OKRbknvcjYehtsot/5mte/agGqT25eJqIJmyU52qhbIS+d293kMoRI6onxAoV6gTpdjIm9AxiLtSjqFk+VNoKcyL63C72655D+PXaLOi1rv2vt3fQFGPki6v3zbCIrgquhcwU4zhS1NkJEoxUGG5V5tySovvQer0FpYi5mRUlfU8YoxR56PJu2lFBLCKpiG5a/Koz2Mj6/6tj2pylZIUgGTAxfqjefudni5GLxt48VJ1OgPdTPi+f+CygTEuK+01PGuPB4xjnoFudxi8Nr6Ewp1MU5+mo6diyvj/UfgW+XNXkGt6qf6LmeFnjP6SNAYgvgOgWIXd3drTDt7g1HrXKKv+ob/d9qILd9v2Ghzb7eFg0sGLsh0juaSRQ3EmuTc/q6QwJOXlw6Mwp6mFAPiRyrOYBj6apE1V3UMg+RRHnSaULkzOrmSQMivTRzkrJ3lWJsmsye0YS3OizZtfcTy1DgMoHO49OLQ4oZiIA76p7sHUEK96v9s3KFIOlc2YNM1EAwwHI51zm0mmdnenb/RUWeWqKLVkIxjT6EcKEvzuA/EoBYpo7/5HyI/N+crApOF+LB7GETGWwQi6xRdG77LC/DZWxkYycHvYstd6Jq66UcdEGem526+akWvYLYMGQE0BKeuIgCowhR6vyMs4KAPZxIlczk3p3SYN4ZiKxvSL+FNaVYySTMFNPsILhAXrAp8HEkbi4n2SV8Z+XpWsUcc6Fm7I+O16xwl0/vCSLUIWrti4vDTcUOReWSDIkWIKY8bTi/liNSsXqT6x24MtaoUSoUhTjIqXrVooTA3e7es9pJHDu5ApZMHuUsYhDyYzlcKxTka+QlBXIKKyEMVsweGuYxxcGrtEphkOSdr75WzRWbcnw7j54Eoe0n8T2RvMF24q65STUptPeeTHMUnSRpRUwLGziOh3w9Zgq5qQnCpNgJunFaGJWaYoWRTspk8l6tuvapl0nW08hv3ufLFtrefrdSbqDMLI2v2ws1VNA7AMznYbKOwSh8T0pt8dSGRKaT47nEwpCrSCwJ35pviYjuI9xaVDMZ8L61Wxt9fhnb5/T6EQR4AFe5sLqeIj9KMGI/mI64EcDN/15ixzYA+SAmbyD+3earsyd8IENMqESHKE4qHQY00GJ8khEHIVqn2TpgIT0AT6zIVdDZ6OD7A4+C19LG0kT4C1f/W114bj4Xy5IqYz3SthpYDMYxZpQOWYh8k0NRAU8yJzggKaCiTS264IS32rm+errVabLz6sF6vhZLSYrzwYTvty5DzsdLb93qAZF42MmUen5tXN9RF/HfodaquByTtES/HVkgpIu0uKvq3od/72PYTCajyVgrboFOrEJkQ5/+MOBiYw8hdYcb6AWf1tirmc1TtDR0Iv6hgILbMR2zPCAjSH4UBglOwDiAYPj34KTJEeBaAxnepeSOCQ8WqpysJmRB7uGg596Ytf5D+cX85JqUQ9Jm/u/U41Upwcy5bInRLUivyBrxqOBWh5EKFaz/Mlf9W9vFwy7gwxLMgxm8c9YyTCFWBSb79cmUse9rgQ94M+E7kfk7JNUO4oh7geua1SGHcnShhHU8rJtKW7xOOZ2qZz1fXuisPU6r1woVGR5cjqcB1rINIH5JX4CB7DsSAyXGKB4/PW8BgEi/KEYITQ3mCZUKSpIJLJCA7NCLbYnObKsPkrjBUyFFdgiMRqREYCIkNl7rZJJYerTFKRhxfn5/cfbMmqIPdtrCxgVZp8SGI8++P/2Z99+umnU3xiV3GiFSITVEk0KPeu4KZnHny13pGFaS0f4cCodzc9GY5PhjK1loM9HEUbWc8sbm8PafFg0B5b0pU5mMNgmHmiUgaVazU43qf6dRWeSr6L13sBhUhQJn0YwODBGJCMDAkCPYEJ3mOGT/EumMK5jqiUmuGvCeVECF4gRrpo6ViH8SvCa2ZjY1MepVlBRbPzffV3ZAKoHsNxBKqqEs1NRGNK8VGfEay55MstJ6hkXhNYMq0RbImSFKT5ZvuP/o9//Obdu5UqkK3wyq0kYvAdseuKCCtQZyJFa1bL7XoBYC3yME1DptZOu03WaSXBZi2btipFo1iIGT2rEoHXPcQDHsdmQ070qYqpbtWj6SzN57Gmqe87fb3rKGx4ETYVFmEuVlxmZEsqoJnvDPYERoC03GXgaFqfm9oAEPHY3qZJVjjFEIzXBPAySwC4mfXKeOAt1OCwhxn+fhNQjj+DQ9CKnjpyrokW/AUiV9D0M6yqVAnOXxMmyC/Z8CQ3Q6w0ICj99d/4zHq1TDK/NCcCXi+jJ9/qDwoQM32v5Nto1GNpHDarjZWFrX2vlsvMF5tVxmJZ7mDIwTBAtcxvq0/WcsUQZBRmway2i4lk6MbFjxBFVfVqqlHj+wTWLEtomfB3/Hov2IXFwmIjbmTqA2OKQ+FWWKZn53donZADDRjbEF15zw67GjrHhb2hj4wXYxRxkXVxbx3LUBuLz0Gdv/wPKlJiXQEc1h8fNeF5lHgJdV8j2mDFWOZtvIK7Y6YyDFyTT7DVJE4H8kPiuHxyJXqgp5qySpmxFa5KT6GR6Q183eysHOq3993JcLPYnpwO0GB/0K5dt2MsnM7JL6XhBORGX9ub5WMN8tv3Ucfy33gKO1mkKB9GQ6+13qFW29jGcsSd+Rl4rx5TdWuakOY2lU3gO3O967IwzUT38POq8ciAA83lNgyMcsSCZn0NTDTeB8ZW5nPN3/OLUbtZU9g6rFbLjJTx1/CQGDhYbUVCRiUHUflXV8m2gnVCHgV6dmSCIHeBVH37qvskrps8KPQlpLnIQZfQkr0G4MFtwJkp7x/5kR8+u2b1TeRQIbrKabJKMk/UlgBtlhPJwjL/NsNuejLqj7J4oWMozMDsZsUag1jG4BUKGLvQ1vTDRustO9QbowCQrqoQ6e5G7szHko0lK4P4BF3VPvV8dP9O3rwnUJgGFzxQIeyBSNQIS440EpKOH39gfLCYiN1s71F/kJmR+M4yRunHAjJ0NaNqTpmyFse4mZkfYORTzJRVtA66I+UixFJmQJAHCW+evRUtqdTmmLIgW3kmh2OyBCbHsk19yi+tkHV4vbfg53u/5w8+9dT7klWEdTW0yhUiAuke7Zkv1dC+IFrt+oPOdrVerrYPH1yu4402/Ngd1nurJ4kyekBRka25WCbSGuDLiqJmXQdzWVtBYygrdGyImjSlczQjZYc6uZp8KrN38OPd18jV9BgswUEUlNFF99CphSJhTtRxvHroFmLt4RAQMVd0TOMWC6ykzGOeiv0w+rhjQc0m1pIl+jEUIw0CLShP9CQv0PgsE86DPMn/uhIdR6qU4EsBKQUjlZQAV6VVgwi7xK8HSQTriVax6tMP3px/+s9+7dVXXlVRK9EyAmGtxXzVMJWw/ixEiG2QPhBZ5UrD4iHd2Fcye7i0taY9VtR2NB4PB1b2t9fzjUnzOKszuWxCL2txNlEVrc1iaQ/Ufmu5EehtTK43ZgdfqvIUo2Brh6rZyglNFJ0SVf9IiUf0qAZ/2z7edRSm76a7AlExoIw/hHchVr6yWrNYl+cVM+BosQHpHf6YrGAoUASn6A+w/GesI05F6WooEsYGHsXh0LrgFYYrQGipq0TyVwGBW8MgAekIV5dCUrFUgAH62OO3yNr7D+6t+PVw1j+yBX5TowA7mdS3VD/7sz+bpHmS3qSysRIkSJryYDePKhtKtdvfLZZb5sW4055OzdrtBorc76yjGVtM3tsfVgeWSLYaWlG5O5hHNrfC5Ntk4bd2m1a3+HvbYx0Hdct+1wp0uI/WN7BB8FQuj1xqlrU5qbZmiHYEYj38Nn+8yxo57IhMSdPrKtAx5mLPlfgLu0iGeKlFwMtol8i/rOsyZMyYMOzXfUM+woTWMneAX1lo3dfNxA9ukn8UUlNeSZ2CYGRABpGeBhDHiuRnaeCGR4mZxH75H6MeI/vd57/z+U996pO2bCZY5VLxeJCkTbQ4iOqqdN/9Xd9ti2aD4BJz4usoAK8BkZ4uSUpMp3AIWs5W5u4WmtTbn17rXRvxVtt90gmaDj3B1l/HCikaGeWkOJM4vawT6mQTVNyHG5TiQeXloYVRI7o4uj/1dJ+qhm5+pxXFEZ9V73fo412ThWnusam+8D7+wIYSSBHjuqQFOhdrudsIyLKb0NTmT5vT4g1EVqpsxzY3W2W+CxhX2Hc4DEuWdfZMpaK7QoAtWKHN46kJgeGvIXwjGouLkVzNVXi4qmQQWAOcsCd55aNz/caN6XQ6HGanVUoo0Zr2pFfEWQRkWqB148n4T/7Jf282n3/hC5+vuqRfYD6nkKfVCVKVADzVlxXJ1NmuyTLruinUfX/SJezmcEUPtNqbGSLsh/2u7ceT/iT6PCpc983MCrBF7/MmKsIFtOm/5cpK68yfZDMK25IvVYsp4TRXVbUsgjnNfESJpPh2Xu8OCq9Ym24Y0qMKdgUlzW2gF6HSIAJjoDLrWy3hinYszNJ1sfup5NWaP41VRP7xYhAqzPO2QFvY2PC2o1gL1WAnPCI+MuEbHOWq0iU5VuMqPPFFKeBG+4ZDAXEwA8CkyNUVl7DHgVSTxo12JHtAUMW0rdUxbOeyfnh+HrEbi0AK3SGM1tqk9Znq5FHRx54Tq7JgK6MvU8qy6U56p/vBdn3YLw/z2cW4fzLQAbab3qA1GY1sCFXV5WrJx9huD9JFSUpiMWOhFIcauiVr1C/WYUiOHhw3tLP1SGlbWmYwrQMUdSvdVUu/fd/fbhS+xa1qQ8P6htrhfKie/xF5BUNwI7uaR5gRIx13aOQsrBPL9IHl05YxhGuswv1stZotl/hq0m9vZxC/DIoeOosMY9A3oEzRVRAAwKFf0dMNcDwNEvIT7RMZCFQs21b8xp/UUqeIIM7m9CYkWQKeZKqYFIFdqp06UpaQnhX7YWt4rUut13/zb/zN1CWxIlflBs/VEI1PVOFShxw+k3DnbAWL++ELTYaG1u3D9WujxYVFGlYdbofjlgW8ipB7fzzlDHRromXbsyQxSLfCNxOBGo04GTK3Oyb0jOEStIkdYLsKSZ022xSR/RLiiFxu+xBGZQLgb/P17Ubhb6t+AaLoXHoqLKg+Gtpn0XoJQVwIg4EgzAebjE5Qwj0PjLEvzSIwCobLgq/QOHAQpouFn3w5wIAFPGvyYB8ZOaJ72NJwWgLSqbCD0mGCeqQj1Ekdio3VFp5HDVem9SVmZdPIwvxiiYkZ4eaeHaY+qhwz1eyNKkd6B9DimE27cevWvbv3CrzJyFMSJ/WqWoXnLhhIW/MMDnMCyL43taBmtbWUfwzg7e1wYvAFh0MTx7veJl/DnjGx3IRTBzGU/dEDOmE0CaGoaX3zfgY33fY2k5yQ1tnaTVvVVL1AMaNnBEl1o8XTWRrTRYVUtCqYSoZg38qrzKNvZYa/La8Q+21/eVpsS+fErBI+oTpe4HiYSknQJQBJgEQiiGYywHxo0yfFCSssMGHj6PtswWydDIUUlH5McGxoGbhkF2FpllpTasGEOFVWxF5ca/4ArgyxFB7ZG08b9R/8K551JRaIcTxWDWQY/taFdhCkPm+7GlBnYJzsk0EADPLj0fgv/Pkf/9jzz4f7xdAIWykDgMJd5ZLcrjJECL4Y6OK4olbVXN0WLA0w6vHSZyo5mwE7h9V+Od8sLehAT0u8AkHzySoRgySeBATNiF91mNcwGOJrVrpipqBCgYyGlF4tChUjxdOKsKWq5ue363qHZeGRZ5oVuQKEaXW8tG8xM3wrKzsDW7QJMOopSmYRV3YFocweP5amDOAIzeO2ycRePNUyJfv6A5P6VHbG0RCtLODyDSbEVoE77A7ht1s9PqgpemNWUx+CpPp8JEOUW/QntaULlGkY/RwJ2HSOsLh4VPl7cBSkCU/0MNdz/wMOoRGk6prahssJze+UWHlVdXhqlpvldnQyNHFsOcPKCjUzJ6phgnIQXctTKPfFYrm3yNwxAetUFXx1HxHRUt3RaNAbGsIR0czTLG+QnAStXpqK+Yeyao2ytSyp6SZV39QudUqdQ5hokXx+K693GoX6M9CF5PjSUD6QQjZdT4ODCv2SFtHU2GKQQ/kCkH+1xLVZnBBCACtnBkuGXs7U8mbhzCsaZ1i6dLWx9A5ieRXj6IG7yNYMSpO2UTSpRWSwGBlJ1hNP0TqcQfumQlGqTExPCnOVphDT8Kb4EaiVEivMNWVon3VXccK0D8vl8q/99b9xfv4w7Gwwl5Jyl6yOhVZW9VFEaPH8cUkzA2lbvncCjc9eDhqUnYHb3XQy0Mt0Ij3QwnJzSeOcpEOUbQ4DeIuoUwrdrBqNHaozK2HbWfd2dvQRjYhUShzwPdCmWIeYpNepmW4nOJ2r8Bf+ZPT9Lb3eURTq+ZRowFeiIZIgIqhYro2NjqyNxkgT4ZU5kopu+ab1df0uipOGOGRL5Kg1AA9WvzxYfvLimIU2Qxc5bbob5tPQll0bSCJV48QBQ8XZIBC6huKFvUYi4i4UhQE4lieRWFACcyqRfCsRcSFG3eoWL33jpcFwuFgsKruYkjsrDaI81VsGtl3Jt2B22J8/uF/Fhr0CH13J35VM37rSJdh+9tuzzzoMxP64PVy2uELJ+/5qZnH/0NBkWkazIQz31Wa7hNTsh9I9d11aYDjJiUqpOwIinMaVVI6hsO/lSJ9dZpaocZE13VowgMYd6qT6YVNNElJvbwYyTV3fque35A5B3smrIJdj2UL0QLAJyC0e5DPMjh/BZ35ECpidiCAKmXwhE4Jax8AclM7CY2ClYgajzmTcH2GCITDWW1FD6iK2rh7lnyKbpj5CQMBSQPSVqDEEaiiReIUMX4zKRFL0kVYya56b3vjil77wm7/52cvLWUBXcj4Sk7wVAxuxM6tacq+6f+kv/cQzzz5bT9K3jlfJY5L66md1kdQrKtsJhdcNRoh8W4tbG5g2NLOGjXHIcLWkOqVFoGVduRjG4typRJyIi+UiLsXqzIDGU+1RVEJ8XrSEejULFDMCZ4pbe9OYyRkjxi5qiJbuV0DOZzU9uqCIGZbV31Vb/lW/3zlZqOrBXADhM5WPsEGvJjz9NZdxBnEpEIGzkLrWbwZT2YbL+lulP5cwhUE4HDokMirFave99cW2566dXhifRVYiI/qgy2SKFksPT4HHPyxIiQ1dU/KVfBKSuiF5JLbvJHCVTPQoAEnStMRSaBUn/PSUjKiJalZXRGfqWJlXs+xJHQ2vX79+7fT0rcAm1xIuyc7P3Csg/QwIwd4s3XDQWe1yIMny0F7k1LwM8PtxuHAoDubrRac/yCQKE4bC6AxWXeeI9ix4MJeX1UYigVsgq68aqw2obr0605x9RcS1mPaCnSqkp8MrfWEwhmgZJ6cLNk3JZ+RCESN1rBak3lc3/4rf7xgKg73iOOaEfyCmPUy1GoUhAfqXPxUGCYayHbWTTbje2lskRVQTJa0zC7a2i5s1h2SYPe10sugk2tscRga3GQMqhl5CXQgtrYhWMpRPw+8QMfUoogYAIWqJrQJDUTa1asAoI7HDtYKm4OZGaOnfxJRBdHqyCXhLuksewdF2ht3i7/2vf//LX/kK7lWulbcnhf5qH8GJJAXwioL51m9ZIbQfWM/QIfWXu4OTCyMcnepq7NxrW1+pexp2WPPr5IbdajPPfihFmlOOAbM/OLWMqNxAs50p6IYY0d6e8SWI2+mjqWJqWWZWyGqTEXbMSHeqVB2xFIHfMWz056JW2vEtud4JFOJD8TD0D+2L/ugksOY2Gg3AqQpbLvwDHzRq1s/ZbQ5TpqyycHrANNw4eXedLZE5pIvRHYuwaJuBDEcGy6nHp9vpmWPIliGeiEG0jXLD3JJjoV2SIesRlMKL9RUuasm8BpSpH0xFi5G6kR06TTpG8mNxxVhPy7L1L+ZcSgrykoeWJ99ga//Zz3z2WIqChcqgqpGaJEoiakLG10eVLpPOQv+y1pWBGEFrSsTamC6FPGx3RjmDonM5X2W0y1rstCcD4KSd2cJRJKQY3QKIplU6zrNxzJwadLvRzXsdNyMyY7koYIZkwLs10NYkwyATfAAHg+kWIRNCBZbVYdKOqvWxQWnI7+MqiP8+0v/LkyJHcbqhs0/Rj2H5rn5XDCa0grzGMtNTHWGNSL64WvTauox1kRURI2dqxf9qZT/GbnO5nF9uVherxf3FbLaZGZk4Rs2ZDMO2swqye7yQFkan/BI/VY+qzZUiRtRQ9upnRQyMgqpwKcljlkZAHK/CqBAPApfAuZAkeiJXQTG/YCHM7P4Hf+rfv3XzRmEygDtGrm9wKNv3mHMxOHlZ06q3Wb5qRUI64WAABevFnBdqZGVNpz9tDSa8Am1LLZknkLRP260pis7Qdfdm82hvAcAWxVD2Tk0QcITnFCaILHGNSuae0HrtJlaifyURAvAiXQ0tw1G1bCB4rO7v++v3KgtTg2++Qs+r65uepraRBblEaCDgM0zFJ00lMTK54IoWxThIjDSIJxlPywFoe8nSPksIkEU2ddIeBtCx0HlqM2DMAMUoFVit+Nefp05dc66LyatM9ykvNA0kCowN1JpKp4JNn44EOnbuSLOgJuKrobbfdLHquWn+VA6qqhtFQfkhaiM4q6QjPWSQRCVRxuPxH/zu7/7cb33+3v0HMa2SebLNALgKyk/5R4gBXpXkg3iiJHN2t7UzGsUA5CLYhm0DhyYvu63hZDyal7MmYm+zHAzGFt1YQSN1CMlW7jm5RsahBAlJGTsUu7uDzxVrcblaOIKsBHCp40yXqEMdQoV/kflmsiUuaZ2OmtNlVbZhqFKuKNeQIe061r65/V18/l5R+LvIsqJU90q/AYEiaXp28FZmWzRPntQ4JPN1qh1Rz4YDspVz9Ck97KNo1pQDK8tMviDzAKvYQXun/S/LIYOQu0Wm9bbGwkht2EhVWce0bK3tWcPliMIiVaAVSBzrlx9FSCHp7IILpqFqaiqkkJgH7iIqEz/pia3qPBXNMzxJsIpWcAYqEYzJNJJUy9qYvfzVX/2/X3n11SZYZh5jqe/01GKxoBhjnc0R12224FzX7GWIbCJlTRgGI2ZOtrvZxgzRZtR2WtI1G7/kMDqbDCNTya6tU0LsFehJejjYBjDNoInfyGha0vin0IhlniXqve1hMHbAUgFVeuK76hPBAHqBbqRJjFa9oJpahoba1g9BTQf0082/yvV7RWHx5K2CitZv/XTXcBNd6yL/BbhtJugCsnC8wJk1qDhQrEwkiZvRJTRCaIYlPsQoju2N9+JKkAHSOY8hGdEbu63FDQ5QK/vHgX+24MX2zrSVLn0y6q6pMu6vYEtfVxrDLk7XlFdV8akZ6pSfBbUaFaaO8VeIGH40cGEZua1fkBZvRjBuhi1IFN00DMfOVT4pQLr8I4P2P/dz/xAfi2TyrA4hfWVX8VJ6GB89kERy5mmxGbTfApeVsg0/bEperIKJjB70VkPhPktZKw1sIzZtD0gZ2aAS4MkoVDrsBrFm0/xud0DnlP2TVnMwWgxm36gFPIbY8SkqGM5IZE80MGRgCmUWVTP9q1qrsqihh56OuiHwkajVxLT9d3v9XlH4O+er3lUJhEPVK442cSNBND9DjqplZFOBUWANXn3GS9fIRVEzyxnHXRzSy1gn6zXlsbG/Z7euQxdyGpw+y+gmdcYON6WuyMRm+x7u8G/Hue8VI2TkmnsbIzJyQc9G7BTlVOuqoql9Aw9VE1MOoWhqHSaARLVOr8nPCLCYCOGMXe6Oa7p/775BUVohGfhEhqe1TRZFhmjlP/Svf+9nP/tbhGIYVwUkaxn5B3/BneDcVMo4SgsBtAFntZ0rZoWiVjOhZE9de3dzMuktKF8HrG+p6+1qDnZzaGw5moeTMevMzZRYZ0F7rAHYKdjUqf3LzuQ0yAGs9KSMBNmcKNysfog0yDs2IJoHQHVIV3LT1I0GbVEnYl/W6UlpAaqSrdXM5qNa97bf/5+33xoUKraBms/mRsFFzISHYaE2YmdNEc5WA9AyWNMwkfE3IPPJEncChl3fJbCoFgNdEkIJ+nWmhHlqsnQK2cmgOrKvRKYSRKOzkSwsrvU0FsNbDxqRG0I2ql9lU4vU8Kre4rtNJepGlZE+WBTPwB0v7PXQTapNBCMGuTWd8JHnPjKZjn/jNz6zuR85Lf6RG3KLlGzKSVkn0+mP/ui/ezmbfe7zn6/gqoPnvgM+NT7+95WKpSyI7FyudiPbVhjC1nl1BwEpgqECN+LJiCnolP9a3+VcudWoP2U8r5xUxvbL5uRu5pZYkOaQ25w3LOZhPNflfDXPUn2dhh8wA0xUV+2VafepdtD+3rOBDQgBZQALhioW12xNjqphdHtDljCaL6vQWR24SKoxv4vrW4PCqkCo3tASDSN1VLdIHTqHI1hM0KVDgd9RNGWlNO+rh2QfXGYpa1LHfWUilNAxW29n0JoRFJiZv+90WYd2PFI0yck0gsEcB4qdoCbnclQBOJCdpg3i7FGRvK4pTI50icxTv2SV6ob9V6B0i6IiufEsKIjZnkEUUFJVecjkT0siuzmBjTm8gymqL8ChsPQsX6KILJV2F5xaLd6lN964/eDBeR687ao2xUCUw6PgpmbqFcpkKwkwdGaL1clkNOnsx93uMgJx+3B12d2POnn3CbTllLl5rcCxF4qBrNtmIsn0UvzcEZc56NG3BZhtvp61TCMHuGPRBd0YLjGEYlyQhDgQ3xRaphpuQg6sQUK31eXKLRrPQeZURfAcWyMpi8ZFRW3SriR+1Lr/9w0UpslX12+L+vZHV1He9h1sVfJC4VuRm/DIi+J22X9RsqWnYIS4AjhTl/7FCZOmOjg3TYuLAGF4Gez2ZmGdTIb2XMwXjrZfOUGtETW2efLiMBNHGY4MeLg2kaN18D9o7K2HBUN923p5IAzoYwmFUkdMaERT3XwWIps+lMb5GUCAaeSOFrCnqKiwACISI7WIVykCI9M6SpCKVaVvuSFTklIOYVgKlR+X0//wt/7WMTx5h1EpDE79b2QIXlW1GrqGgNbV1shg7ISu9daLJEB82DksF2wNlbGMYzXIGZm9FIyYqzkPznQ4UcnVYp3xhAUQi5X5FfMtRQlOHzVuB6A75x9TseBGQRPk6ehOtomjgotH42okkylQQjEnG3NkMgmCO71D5WNn+E770turpZLJP/ZitUlF0qQkUGoi/g7XvxyFEhRVfoeETVCeFvyPMUJ0NGmomJo2plj8qPpZRLmhRZGeAMtD9nxNBPN4MXK1iVewDOesqbGE2PHo9e4IYhVmsz3U7BwIIghP2iAGM0rsdFXTewbXwBcdb0n8ej13FEGWELdP4/9hbGZddDDFPAq6Uil1abCAiOkyV2RCS1dol/mrjE5CZjjMrXjhrzD5VU7JI8FoQSRawRz5eZVX2pvcHn/88btv3g20gmPx/ctfYorSRE91QsJ4gIQQrTHRHMWQIa+XCWwsIu9rb44sNEVt/tJgbMFJFRabTLI3b8qWc+AhIizWu5HNKql7ejg/tJGwNRIEJwOi254xBzNQSQWqgaQuH6uMtTDdrm2IeBh6jYVognAmMzPyz/bS0CZNC2GgM1lwLEFyA8R0wqZxsSyrfk1z08AiQt3ko6H2o5+/2xuZusRuPptkUcECNTjYi2xzF9WVipISEXP+RRZmyWCFaUnaAaHZ0JmhSXAsg8yXQqiXJxpk6KVN94Nda4l1/p0J3MBNqmyDYng7xEqnn3N3t3YLr1/wAh4T/5v9xWKDGQUmFYn8RYJUESRLdKUZRRU3x3tPc69uoGBzc0Cicj5gpGBSYsBd2ptwf9zrMtRmTavUeVqRkz/V/ed//M89//x3XuUAZccI9Z1FbIh0hKJSirygYMG4gz6Qg1JermfLuKgsL8rmQqthsi3ZtofZzNmNKjE49baNkc7oMqGXmsfgiZSMe3Wzsv0q3oPY3AbWNeDLw2abntGgg3SYl04uNtjiMIpQK3hiXejM25jXX2YuocyhlIOl+Qury90bOOr6SVwCOsQJXROhbkKOcPnRH4b+Xq635ZJklW0KUJdjNiodKAVhIWjgWJU7VqXGB6lKWIVEUqFRlik4AS1uNo2iaVkyjBxtM9FZU802OXFOmwcxfcxs3rXmBqWwBJRkbHc7HDGo+zo4MYnmNA0pQZfNrOm0MC+iz57RiJBSIsfapIKpgO80JpVp6FUkjD6tJ7EG08kDrpKAQpM0X5W2+UQEbU3SwFeSJsvkHcQhQ+yNI6FS2KPSG7J6ajQbnZ1Mm6J538lOFgZzJEbIymaRjhVrJojMn9/odm2B2NYAmWxytBxFe4jyj45x4Bfxae5ZqZaBmY6WNu/pWcy9JbTby4mOtqpMRyjaBkA086JRNNfHe8Yr5qfSYN4aJiJQqhnxKYhtSCiYDSQdM3DJao7qfOig8vGHlRwt4kqEzU1zq8lFoqKIVjbX7wWFgdMVEa/SP/ouQipOd0HBgl4xRTiRJbCwGPakQhHf6aaRguVeM65j8+XdMelzlg9ioRfLxNpltKycVq1kcnux8/YjCu8wHvbsJ8uOUJaRKZNWz5qua5MTAcvtzKjChCjZhMDMtbycUbHRralw6lrVaGqvVW7ypNAUMiPt8VcJguAqf4njwVskTTIKSnDlF6UYS78upcg5mJI0Xuv1X/1rf/3i8vIquVDpcqX4xjKM1Api/RW889SpM0A1M4OXcVdr5BnPiHLarfliVmMJgySw0fXazh7eDKyE5YnZ7ZamMtmQacrIe1PsiVVkKqwMMagKd/3RCKR6PNujgTfckh3UcPzZq+W+O7SscMAkFJBtBIEap4/WxLWoAnpN2qsDGLYYrslaUyxmo5ePg7zqVW+jdprU0CRUKX6wfRP61nVFmAoJt65I5bZ+HqM29yFvQ/98IbpPFQ2dgsOscBYS5YuOTVhUotajdkRm2XGIGucDnbzW3CA9wxMKwSmmsZyz8r7MrWGrd2FxCNpiiDOrHJrR2ntHsjkWen5u1XuWVsXVM5yAHTRkzosVj1DBSpb6NYo9tUUAn0pDi9jRoWoueMe3/FTL8C0CLJ0nGI6gO14hjnopM30/DZdlaB5JkA+skFtKSifwdXE5k6QpxU3SYwMtn4e5jk+TnSyCd0u2zi/5rQ6Xm51Nn5OTvGRNeWejyWK9vTxsSKqgXr81lUy8WbnayqoaYwsGNzoOAWbfn69mmWfutoPMPRk5uHw4d3iDWPP+7Ozk1mgQp09Oic1WAjMrmu7tMrveaNeHfDXNHueyZ+I5dBuGMbDyEgw1zyFgKIknas2IFxSahQ75rp5TW2dCQlQtKoTOdb2FQqRwXYU338efSFy/85PgSKObgAhiBEyd6s+vwK/iexCNCV4UKYNCn9SI4ofdIhgEMFm2IOl6y62n93hdk+m7pcYpyEtzstEdCg7WK6wwxihtYAOyw6tykj0rx8Fw3gy36XkXnHcWKrazfXjpRd0U92BHVo4Ok1hUVp7kpFcNV5YPdaxqJ8CPuCGQJfSKvZhGwmU0t2G67gNojB7dP7jU4EQOkXkQc6Iw7XZxcV6tLaEmdbIIqXFTgWWdtKzm+4m/+F/83Z/+mRdf/EaUGMGWEUgqlIJ9NleyDwDDLaHt3Zmpkza92pvTntJ4g8Fiv148sL9rMuLxowVGuph2rFdeRcZFsBvanzfVAODbGNxhwWI9O+X4OnTNt19kQaK8nWqTd1YaUz929uxl5/UHF7dlbu2YN/DJzvsSDARZm7Q73EULt7rExtCugmwFK0SqIP8O4RkzO5/6MxrGyZgNstoRDEYSpY1uY4VJUM1GmWOba1lU4oWycjnSovkKOfMXiZAEWCOP+PqOz31JEzUbl27kQvgLp8qjbgHQvzippDXCFczKLl99xii4y+USedfZ2eeTcvK/DOGmOnmFk8LLMLb3G08RUi6bzWzrdQorm3FHXDnx0lDikSCnJ+OL+eKe9zJ0d4N1d9x16nPbqNGGHxiSVM0UUyzOFA1C6Cqkn/nT2KVpX5EDQrqNSWrPZKa1GlnZ0FJL/WS7vvLq6wXIhjJFrYYm8JweH6ohLLobT5ycnEwn09CHdvQvKEuE33YJ8hfHnf0Kne5kOpwvDl5/Skwt506e2I5y/Im3kYFEh0JlxhCnJvps69yts9rNOtb1TGOjPO2H5RocdAbmXWqNHHpz9FjoyrF0sK7LrDWNasvpm3eXnZGDDxezxWYy4OtpD+GUMqltAdSV7p3+aFdD9HMkpgaacUG5EE8rQ9oaJofxWFhu1MAmLZVWsyLkJSxh6EFzQWGA5Ef4k8tnQx08ibrxUwQPm7QJqCgKDZDSoSEqMSqfJAkjS6xAXYNfSxDiIwnzwgR+rfx0RexBpEqZY1oGC+zx9W6+WHiph5XrWS7oPMLD2gJWnTAm0sFbWC3wNLeKwTnQNENuUyYIAZ/s+C1DG3mHewfx7tej05OcSZ6ByVtqVxOKDgWE8ktHxDeVdqfbmCKI3RRroMjSdOuQqMidumsJaQ7btacNLMtBc4wR0ze3IWau+WL+0z/zv7zwlReEhCZBaGiPXgomZptosCk4dEXGsE1L+kThzQnU8eltT7vjk/7kdDic7ZYPHi4P1xiMmLpvD0+d+2pfonGL03keLq3L7pjzW5j/VDODG8sWKJvNejSRt6ay/+J5WSwvZ4s7Fw/fUOjq0oJu/XWTDknD5/Qlr/FZgvVoMEkP5QoD9hgBAZPeiI9BXpzZGGDa0LxDGl1dL+iwNaOEe9bk5pJJkoU0IqKaDyiMGHt0ybWsGLkElUXsIheGB2iok//px5LjVBGsiUm2JYU2igMtIqbjxUtYdY2MpJsjBY3EsgqBYLRgKVx3EmHcLhofl39m5VNPzbLWA6Z2ebUntc65wMAMlMuPmvUjBGN62dZ5DNPumG92N9oOYxSqpk09PTOwRpc6QXpPqq0WnlV7EMCvtMZj43L3wYQhjZopPdnEpImZJm70dBM5ZCiIxcKoOsc0yqpn8QRJlaIo3sJiQ97Pfe7zKV6UkF5tDKDwKTWzDFBI3YJHniUiq22vDy4cwnhjPLm++8iD5WZ8GGtXxsr7zWMnFnd9bbu+ZC13u/PeyHIHAt72eMNte0a9nGK9X1mBOEH/xX5h4UNOsTm0T8bT1qZtm+lSz+nt37j3jU5r7gA6/NRbTs7OnATJQaYKXqw1ntqMT6TSaoeOGUQF56Qw8wFOR86iilLA3EY2amlLTHBfoRyqhnx8lL2MKTN6yh/yhLnIGgTwhtpNGChodK5GQjY/sTfxm6iJnpE6aUY0RNoVOQWHHXSH59HBkBepqGJS5z7aDp4I9XihY1aVWA9QwztR8KHYHRbEl0ju434vxw/F0rBqmiOV90Ah68v5hQNB9qvptQELkaGmD2QxdU7u4nTYDGgjJxhs2vPlgj3EJcsjRm+eWX6XbtU0CAEaqEFK/kUM1VRV3QNPuWIzR5A3cadjpaoBoQR1J0SoYJQochOaap/uHIoZUdFYwW+gWJGV2W7/R//hn/qFX/jFO/fuJLeCmTkZS62UhKoi1HCoATwQ6nt88fbN5CWPo9MnfuNX57/yy5+5+8ZdQsqBrTemp3/0h//I8x97zCnX3KVUttWwwwPngHZuGZOkPwfWw/UOqSwJma3mvd5o2s9RZtDSH+mfVNKMrGSIXx8PqU9ltUcxP9YrkO2uGO1UDo1MWugRaR/dYzKlZS2ZdTzdvGdlaG2ZDsq1wSrANp40YiGb9vRCQ6OMAdI6dnwlDfxCvFCgKBVXRmRGxlmexZTL87CnOIY45SYSGqRpXkAYZzsgcscJDNGNISRPBoonSqOpIwgVRj7Cj9/5sxKYomvzfK6tCBGsh3CB7UwMODc8byrJSEv/57XZ4Pcq29qTsbfLxtfKFWUsbGv42Mr1dKgUw1UbHEl2eLiZZ0voIJIFdbBP3TYLaG8kC1qk5RqXtqBoyENN12iroUuUhNbHgOWgMLcYciBI0BQIJm1duk4ySBNMPQSQGgTpjQsjUaowFVRDOVrN8OlPf+ozn/nsnbt3klMwmihECDGfWqXPEzppVJDoeQq1vV/n3y42o9v37r/02quTD+8f+9gTr3/x4mufeen+w1X3MDWSVbiVqhCyXm72vZ5V6tkhcHAku7eiHB5sFxP56qG1QXG7WG66GdXxhOnUveXBWu2L2WbUtTo2b09drudGiG1LhZ2T2BvcP39gAqbfXba6ffPY0eNm8uMMJ2Dss8a0nmESwmf+L2SKhI+MrVEBg8VNNpKGdmUBaqv6hLJ6GjYaQuZ4ZMuEgrrq6aw6SoHGq+EpEhYdESXURCC0iRuTq1hG7bwXS0AoiIG+sCUYDh51gsi62LRsbdjSOYzoG6OLKz9ibyQT7tHoQiZ3zwKQvFRhSY3SLRbU6EDMw3VmNNeWIlkFN7B1wtoG4+G8CFQRAFPiZMNy32350+AwCi79B+69U5NXVGPTIBhToF3iPtS+AUtqHkSkwemTFZwBfd6vp2GRjonpijQMSkQRFIrURYkQZhn5lv8MkMvMEwtNErd9mM/nv/Ir/+dLL7+UhG+7PM6aCVGUnIgpXdGgDZt2ud57c8b6fPxW3vf82Aemz/3xm8Pv6D71ieGvP3h9396cL4BqgcUzkgiANazVns+2+3m2BBiFrOr90Kb+JmdTQ36aJbbOfmO6Bfd7jmNydk22OHfWfBUdGLaUxsC5z6BkmSzNo+gcTq0b9LbzWc6KstvMYgg+Gv2j3ZrNLvv7oXHRtRMjm6jFBomkjqqY5qmhC2GKz5EpkXfyDY7iYiwFw4VWnNR4xNF2zYgkjXIlSJMWUSAxmfoLzRpexNyrp3QsbqQ7+iLV5d+AI8672H98XiRCxpu0MQAZW5GcfeozL7m0JIa63RqvmeKgO/arzv5i7STcwaQ7HY+X297MDhSZ9zvQaWqJyUyTZIfjoTX2ssyObu2w0sOoNxo63TSTqtbAOfbUNgxHoXLcOr8g24RqTKdyaVKQkSZjWRp1RFOooHsmWG31xFgZiV3USeQo7xAk+CudQGMR0bGEMseWQWFjPSZWyvCRbu3f4fAPf/7nK3XzpPKpaFW86oBuIJhy8hGLH+EsK3dm6+gxQ3XTSa1RezDZjy8dXJaVQlathfYc1jp/8NXpZ00l6zkLsPBvPzeG7XcIrP12ns7O/cfMcaQX1ptKzit99GkdwUpNJezW85k9Ax6WD8+IWw2s1raUs8eTcX55MTqZjC0wi22LwSuoRqXddrkw5U8CDPjImEqVY6RlCKXnZmVc/MSAbw6BRUD/6OilR0jIoA3ZXSGApkek5UaPjG8l1lyeamGoKnHGF/UVmUD2mVn0NMafvRFMdAawg8y0k3miHMiuff8ZGXMkaA+/U/oBScakM6fJlK0Mog4yQXfSH5Jres5gMBqfjnaX24uloe+GNGflajaJg8YSITc/FiOgP2SSDBxQkPMyNq0H8O+sq1jFJvg7g22WdGasUSRJS0PFiLk0u/6jZdNYDxEgHiE6BPP4N4y/02UCpYJJIBJsmkngOVMM36F5r0g9SX3mtkgaUgfRErZb3/993/frv/4bOcjhmy7ZNLQvUuvalQ8my4ireeots+29U1x58e69PPvnP/3lxz/4+Ctff+P8lVmUUa+3Ys2g8H4/cwwNKyarvtpcfWM+qm7vyZNrrXUnAjFbV7p378xHw5590bzZtBSppHlL1LCGMweG9MfDCTPRhrK8MGGzH9l3OhnN16vZxYX8Vswl/gb20L7NMNysyQvbIg0Yu6JwcEShZMiL2pn+rg6N05GPQsI049EcvxfwhvbaGxRujVIljYUjmBcp+AOqQhtGJZBfsoIaOKKPyzqC0BvoSIa4C2JMl7kgaOeUnyJ1NHGieGt2lmMtg0h1URn4y7wQhxM4hvRLHYsprDNb1MkkXHAQMmVaBihj60e27dPhKV/+7LCeo9l+a/ZktpxfLGc5ShUBO3N8o4unfDdeaM02X/ZWtxfrw+XilGHMFMBZHM1AVw0iunWTI64CSknyv74oyVLU6XuupGlEVJCmsuSCl2R3nv/YRyeT6YtffXG1frPBXR43wA6aMCM0EjCZTH7kh//E+fm5kfJVhMRIF2iu9EzyK7RVnL4Wj/TmcMIunBIzUNN1XNIrX7ozmh/e+Pod82WcMvr2xXw36Xeng875ip6R3pm2xLMuAoXds97g5Nrp7fkDp6WcjUbrhzlcpWdBjtR2nGQgzXfNpxgdItnUkdleIOrNy2NTBMC243NVIRptmaU2YE6Vjwjq2WIxGvI3GoKQNoy0WMoIGuKnkyrcwksnZWhUKYoYHnRPnz1E0WhmoJNFGtBKWZciDbliGkNEPosiCYOzspbhktnBCR6ecAeE6G4JYd58lnC2esCihJ5maMpejhLJGiJ1y4ycFamy43Iq2Bs+16DGC7WZ345d1R4vR6/lDBbH2MWUZfT2H7dWNnV691trPzifzR5uZpwVdo5d8p/FsjiYuIp7m0us01kw5btm6EdqerlcXra8stow2xy+DXl1wBdSwUbJMjq3wYEwTQHI3BQuIg2liQgLRwPBwl/oKFJsFyZU7/1PPX127dprr7wawXp8FKIVrpo06fIobpXryy+/cu/evSvIhX7HolI6oIYnxsORFhpk5ZqPweDCC0BZbtE5+1s3+v/xH//I937qyX/yuRs/9QsvR3X02mdDq7lAwD/KkA2teY5lIPlbp6c68f7++t6+v3rf6WM4sr6+MxAhLrR36YVZy7zbG9WnFCXsWSe7vHQaTriw2sVB6zB3L1sl60EwI1pqYeCIMLY2JxBnuGYgBd2DmKqud/LyoJnuvVyu7I9Gi7zlJ34sDbGBxqCON6MfHazdoQEUxpWxIT0FQA0BkXCgyaTFkfSCQyRF0dGxB/Cg9okx7DJO9g+NTMtxIvkBXFkpSDNDoyR0l3oqiMCKBy4HPQbEOVeqtec4cHe5W1iBZYyvAkTmarMYs386wufmq8jtGH98X0OG9YYcBgUrkE6GI8nRR211WxMJRi7A1zsZDcf9mfHi9QlTKfOABbS0DVWiItNQgcFLCSyhwVHzs0Z3sdPYB6QBO1Ma1k4a1WjjkC8Sy0XKFi01vRS8LIKqBqzyL4jFdPrbf+dvp9vWFQaIIkHdJQc5y7H6gcpFEOgD/dZqhrXt9iTuzI+8//SH/vD7nn5m8syTk1/+DbOaca6YKoaVMGHGmB7TWxRl5s94MdrbZWtuUNLqO11udjI+MdsEITV3EqAby/Zy0sPcqoWBc2N3zs0mE1kidLQhti0EfQflWte+qBMQx70RmWLFCH4vIXjExTjoZq8GK9VCh+2Q09I4shezSdOiU0k5+CyfdXcwYuc2GFHh0C543dvREsbT0sYv3mIFIwFoumW0Fb9D6N0op3Ap1PE74hLRGZyRxTEMA9D0oahyqfpjo+8dxxTviwT0vqYZFMvTFvaDBgAAQABJREFUQIxNjAEMaN4ewzJ9bI0wh8sE4QOZSuUd9pdWw23mcd9ITEe3mCnskL5556wqGpiV341LvSy6TJ/tfHNhSoUr583tA/2KRhufjLIZiCqA/nBA/TEsrMbCR2CpRuIKZBRm3AgK9tLAIoKHeSwk3354yLzQJISjSQU2YEykR1clufr11FPvf/311xvYlUemeZCUIUb9y9OQ2ZcgJ8ftFvPdoB+/iSm6228uf+2zjqYZfeGF+6/eX3+i4x1jVs3EG+p0ru2qv5u1uJIN5ybX6Nrd5UP7TZxxaC/iFAvuXZ4vMBlXCAfcGQ8sQLo8Pz9l25km7g/oZT1+YRmZpbDdsTjAl4OzOYxOTg+Z5F+QuN0pYztn5WSxLHqqMYXR47UdbLcz+laNc7A2J2JG/nW8rsno9NocsOvMY9vx+ZKocEa7UUR2Z6FseSQyLrHADQLRSO3Z+Q5vlCzMOwqKlgUIEW8YQX0TEsFNRui6CNNqu1pZzuFoFKyPYUnVgl/G5tm6xblp8aBFLwr1hLwEtSw1ME0KxIzPbVZA6UdZsdVZXxuPJ73hfGP5YLQ1a5g8j//bTL52Zj1ezHNaWQ/WCVjw1sTZwftQxOXehsfTcdfUrT6Pz2GtPmcwE8Mra1MCskJCAEl2hPsRYQlLb9LJcvCuAUjQKNyTCE76EqqRBe3zHxylcBu9UyAtIVdgSgnybI/Goz/3Z//Tn/yff+qLX/ySyIJTXnPlOVpEfDW9PJIt9FPZnYNpdpfcA1CyffnN5V/9e7/17GOTr90+f7DUy7ret4bhDBonN+DXetjdzfc8f3GFGFghc1TowFFL897GdIoss2zQoF7s+YrCdnzccGqZBOKb/bOKsWWNMA6Ned4t8GZTlSw0eB724tezh3DXPxkSb9nGwN0Gr3EVcuHkPRpYm01B6rOxu2ofqPMVZggB0wQU1SJb+XhDDBG3nM9JGINO7AvRUTy0jLUWPslWQo+I2Tg9zMMwh02WmQ3L+NxyzGhtBBQfXJvdNG4zAwUgsLZmyZS9GN9jlktlAabdE/IwVNmsOVMQya5aZpCDt7pby9mXq9nCyCpDGPlT3p1Jr/X+B7fnDA5HVwUEKY+Ghv74GFnUqJpT/czoW9s0csDz19aXd/TubJziXxz2yBFi+y0xFsXHNs6gOSpRPhFFPgtpcFX6QW8Tkt3iKSR4U3yphQZBTergyBMxedFUN7EqpyJhIBhEIXDIhSra8ParUuqMFSclo7nK5KcMEIs+pBl5CSz76Ov2q7sX7UXMt9VYZTLOdYxhJpwzlttak4RZlsMwxbuj9uRkiAmOf9WNGMVYZzW1sy2Mt1nJNqycDLv3LtcPz2dP3DzJ2ynIrtVK17dZy6RJOpkxABOZz5rHx/EjVnGu2ysbI7skQbc7HLY20BY1X6TcxCQ0m8oupfA2Gms/9Qi6ckAYX5v5mx0HuOMiunEjbxaA6c8Rs8YKmY4WlbCK7UdvoloMf55DZirRSD9ifFSUcOUpVzxoYzyZ3c1UUEx4zrv9YnVBQDOWYqyRb3mp70rBhB9ziywkTaHG+y3JUvLQ0X+t5dpRPmiv9oRJVmyl7fv9mPJdfPFLr/zCz/8SH0B3mF0XzqjBJwYQtnIbxknHTZ09tpYfT77n+z5x89mTzuYNIr0mZGKqRV4TK/yaalSgq24HLg0IwEbjNauEowRZYAxVgUJQJMBX4TSmW0myiD4wAWZpjzFL4JZQBNYCVnpkA7rVavXf/nf/feOmSZWOwQ1EVTJETh8uw9GAL5im1IyL079IFhBcfnDc/7HrT3yiM/pi7+xvZ80BWHuzU85PsgowQ4PFfOxNL+bcmCsO6YI/xDIqNH7EXTt1+qP55cIJIWxyb/vm6tKC+WJ9/83La9fNsMRfzegzZzIcD9NvMIzYnxBbzA+yKs4H5wNZS2cVGeDylVpB4tNcJ8+mcbmgxXpBVg1Gk2VckbGybRQikwmnvii7/nAwsjp5w2CPHHPWxG7FEiReKcmYw/VSU08CUTMZJI9sy1OTNfbOCyRm2b9xEcYdTcTwV+IYOzPDb53TVhzF8p7oerJBX5lEaZsVIlL3hqyWBfLdmLAxBxq1jhgmJXctywEnfLSmwqYDyDLuNq69/eqDr33jq5/8gece//DolX/65ud/+avPP3X2Y3/0+Rdf3/6D//0b9964/MHTa99/7eSfbTb/eP363eee+sAzN1eMXod2xVTarnqr/enGuCdmhr9oYySFHciDwwZBgUoEUElDTY9pHGCKzIiOTMiToDIfOlwkqxFjEyeQlBbyGgEJZcZ5EaVvz/0RBFNOQNrIvGSb3wkRJEXmMUNbcyNLk8OmZGWP5Jtb/cGnJ8PntrvxaPR468KMRR3V0L7Qt1vnNn5aOEZckXteBUSA2HVXZut+2GPkWXHDmw3rLZYZ7YNRNNf0dHTv7jxLaQfz65OTyY3x6u6StzYnGefkJEZOx7l3msRZ1vL2H9QgzAad0Xhg6RMf2sQKNPPWJlpsViOjMsxnpZlWuUCP9dDEjXWLreEgS3UiRLJHKJ5wXTU7D0xgkG5yZduRFYCZ7S3xDLPNovnoVeocjMtYDKXofdAAOYGx44ylSMvoBqzSZ+nBDNk2e29dk1sGyVFpRr6uyGrWmzd3tGYmpOiYOBkPw9FgbeWl1cNeZjQcwrheiPAA2jHeau3P3j/94L91a/S0vbetey/c/ze+6+aP/uEbX/v69MtfvvPiveUPdid/eNe/Meh+nTwxlz7ujtG/vOTW7WR5WGZIQCaLDsrHHEM1kqxAh/cRXA0qSi+nnRUSCEbXRDQlOfnc2Md+6l4R9yyciPEAqdAZeEtSYwuFNPl4atPwf/Vf/sRP/uTfffHFFytuSr9CdmRqMEjoxhRxk1lX+sPqwev9E9ZfIbT31dX2Z/e7T50N//nl4ivz2SdW5gasX1sahMyN8zqEzHCxbd2wIsEQN2eJsg8V1BkP2nP4YZbNcbhj9Zv5EQNcq8ZsiH/qydP+SlsH4/5gsVoY/jCee45kyqqI9IQZ70XXMgiqjXaMxQSdWWpBsvANsyad5WlGpmPrz7a/55zlh3bgLHOrN58vJqfjgGO3n1g5hdq9/Xw9N8sFnSDGk9LbU/KGL1aSZ3DQ0DMkjFLneckAFyS8EtBJoJbg5M02KkrQGFXJ0ONMW2GOHSFmdDZtncqAxjwKGUg0spzZQkYLvriEiOc1xWE5OrnY2p3Ccnp/ps4vdoc3ZnenmfEczVeXqpNDZ4YnnfYsW9w7y6nFJCZfnCCkxuDPoZeD/bOeSOeic+1J4QO7WK3vm07SJQh4zuk5l6gVJ4yFWBqwEvardsSbjgCQmpvYUbu0WnCWkMA0o/NYuWCYh5U6MMu9Nmw/+5ufHQ6G5w/Og6IMWiopBEWmKSjCLUA0PdDr2UI/PbF6NL/BM3GTTeI0H8SneS4jyQbJVUpnOHYmYWvcHd4c9faj6f/24P4vXa7uLLe70dl0eNLuxblvnul8dnjwYDM87U4dFXfqVBRbxFrm7NYGINDkNKl+78ysMYqe7t68+6DXZZdT0sTNlkAiLCbjyYPZ5cPlQzrRKMCKMlvwuVu4aWYXy8O4f+OmQQyPz8Y0gbop1Aef7aA3seLuwfl9ax1ixTFV++2hRaBeC5mhMTZZj9y9uFzxC52OJiQZqZwJBGd149OeazlqfsF/18CNPRFkVffW2c3zsNXYmcBEBmbpGv5n+JyOhhteCi16jFAdEfjE8zNno2ScwnCANZoI0hGY1Y/iLJFV9vQ4FaUz78bVYu8wdhh8eKvcxBtU2YaqQSHB635pjmTzxu7LP3f71jO7e7957/Jy+atfePg3/8HLt9/cfO6V1WW/+/c768/0ev/C9MWu8x16Icgb9/UtNxx0lttxZzraTAXOY84Efxqo5prf4AECyqCLAdXgrMGGe7HQKhgRJyq6UmS4h2vJ687tOwy4GD7EWCG3UkWwNTeSCBYTDX7yJ3/qyy+8EARGneeSJ12P6QGc0DJGPbKzLke47ofXTt63XN4jMhabNz/y0advPvFvns9WRAEUcFR96NnT/eZ2Rv081mZ+rYzumFJSdH9m1ZKFvqN4JdiajBye/E7eH2WqbHXzZp8QI2qMPJ1zc7GeDQ4j+wJGjJWDtV1903QnJ4zt9sW95aVNzV5Wz0kzM43VWcwupuNbKmCTLsVnEHJxmGXXqfWDSGKisNuyLzV7X7xjvJaq8P8OplPN5TTm6zb65uEwJXt5uZkOx4xFWtWOylJQ8fOFRMSaoTCZrjnMttg3AUTmFtgBQFinPOXowOwaxIQB8YuIqEeXMgsjyk8oWS4+OXCvUOHs4w0jhm+wV3BeE108hQTZ3J4Krk+LFDq7dDLCmQBy5EImEzsXm82tpx771Ke+h87uvtp54vTs1h96huD6wusjBvcH/sDT7CcW8OczxbT9aH/y7LNPD4YPvVl9HNPFKo/2YHSz0z/jAFrMs5opvPehlUFH5FfUc4OIRijVrwpJPCwsPV9YamKmra6CDgAyy0O/grIE9Y8cFUOaJstYl63DF7/0pRh8TZQIYz0h7iJluQVitan65YBkB/a3D7eG48cu45Lbjnb39/3lrfeP3nfoPVjO2H5ZPLV7cL58wwLsxTrNP71um1K05fnlduY9P1SfCXYg3O0vvZZs1Z9M2rPl7O5qMbISC33ZQyTZrjuYnGGa6SgH2VjIbQd4Vvk6JbEzIS7MR9w46fFRWwxvcD0gRZlk+76xSiZG9vsLquD6GaroOVGS/QFjnxHGC0gE9jg9CcETi5t4jqjEDPENneTP3rH2m6rtXSwvEcCKcNzI0mbK0kCCoHIIi0Xzlvpmztt71YzC2uNum4vlwpZzZwBQxIQ5vOeMEyac+RSjZs7CDNBJV45otKXLyKRVS00scRiyXu32pzd1nPHwMMkJCy2THA93l7pyK+OmDGm4NJ2/8XC2Ol/vn/zAU3/6z/wJ54BcLOc5BYg1yRkgVidvxMRevh+8Z4aStfPV/Tfn94feykAQztCLUn8cCh3yyvRg8qpgdLlBcwRfOF+4CWSyHiv+mwi5qOMy74AmwiURG3gevxpLUZBi3/+Bp8/ObiwWcyfREGwf/MCHpqfju3fuvfbG60zvD37wg+zvV15+9Yd+6Ad/6Zf/L8a6Hvn1r784ny0/+B3P3rx+8+HFxcsvvQTPz33kIyfTkzfeeOPV114l8q9f30x67399PrEOq93fbfrnq+35aM9NzXNqbUxnbtUCB6sJO++hSLdqWR9tOhbLDPJBKrMnCF2DUjibXTCO9vzKfRN25vosf7A+mjo0AWqNxb7FNaulq/l6MOkQBoNx6+RsNLuMHcVZaOjgnBYwY7/ff+PN4WjUnfZtQjVXMr97f3DzhCLV2ZkCrBr+IwuPFU+VzZH+4sHpY9ctASLiltRdFpVavNK7mM3JG+umHBNhg0IW3BgHGFSKZxKGaWL5qB/85WwaPY8e6k/2raX5nKwQylw5x5Q2MiKC1JrKy2C5c3FxYeUWFayR5r1sDfY57XWmHLDsDEcl7HfT8eD6eAISJF8WTsa/SjS448PM0ix65v4im8hutL9ybXqH/2q2uu916ReXS14bw3Abt09PUbNzwZjOotusXGY4EHrGd/SPc5VG08euXXsGLR48eM27tGOZs24zjx4BE9xl5Uw0bJprwEk40bVRmIZf6WfkchSu/gSicayrYbpcCdSotBB6MLSxyWxT/g4tltzJyen5/YcxKgY2C5sG600m449//ONf+hdfzvk6OdDDzLeRlymJadRK3FoHI9+T05N75/eNCV979ZUnnnxyPHzi1o3vuXvvV9YOmNiairCIHKUgsTPtjZ1oNFtoc6c1RDAm/oZnQu8BA+/LXWzWD3IeQ8b448F+6iyRhT7XOTuzO9nL8yguZwofZjw+gN1nhfdN2WmsQ0IsHp3a3NftnvcW5BHhgN2r863td4NpN0vbjVl1uMVCtzk5ufbqq69352uLEE1BoKwcjKt5s83FcAPfODljWZnK47VAOQ46a3AYOzyYQ6vxvLj0x/70HyvlkqNeYq3G7I86QZdIW6LNW1CpZBsQ6G78MC0Yt77pE3LJ5LGOR+AQFcQbg8b27cPicsGhw4NOoJh/ezCP7XgytNpcZ9hQJkbR18ZmunsPNw9n28td1+pqzr+MyIEgmVkYt9895KdZ7s+GJuXOWc3b9Xxw2Nh6Np+d7w+LXYeKvTQ+Yz0fdPD5+WG1NH1y0rMmk1jkG3vi1hOfPj17lu18MTvnCRtPp2XP7b304bEnHmcGsBSsM7p589aNmzcRZoWRw8GTTz6Bizmfabu7eevmk0++bzweeqQ5t27dfOyxx3UXOw1w97Fbjz/22GMXF5evv/6adaw3blw/u37j/v37Zurw6NatxyyluZ3rjsiGyV9+4asvvfSNe/fun51de+zm4zZ+vPLKy0aR8rx+dmZV86svv2Ye4XF1GyIha2oyHJ/pIYvl3c1+pvK8zqB+vTd93NEM7QE3/925meb2xEGOlngtWOcZy1I7Wo3S6V2Dnq7JospcxXLdm9oR4YSVLLGbox/LZ0DYscEAKdao06dyMJpV/7SZubq2tQ7dm/2zcdc6r24v3nJGmgGiLI1pOM0RZs+clAlbwlhZJyZQe4feyhrxbuf69DTiZjMbcV20WpfGl3P1sRTHWIGLdNP9T/7MHzMQUhLO252gX2UJDHhqkrlwE42Gs/ExwSEhaENXvBeU8qaccTp2NFbnwLyzU45CS4MCpv384tJiDOeWXcwf7jqb6ZTbKwvyCA/NM7BnLj5YPGD26D02i3CQGt1PDOK87lfm61V/P7jWmrbjsDVE692Ynk0dFZBoIBh3nRcSkgqOahkNM6dHNntj9o3x9dHgWm/4gcn1T01OP0Co0nFGTh9+7sOnJycPLx6SRR/8wAeee+459sKD+w8suqEKn33mWcbr/Qd3T09PP/7xT5ydnd29e5fq/PB3PPexj310MBzdvfsmKnznd37nRz7ynNZBjBmAP/DRj37oQx988OCBp+TfJz/5qWeeef/tO7cf3HvwxONPfOKTH79x/fprr726XC4+/OHnjJFZyfCKOp/4xCc//OEPX8wuX3/ttdF4+t3f/V1PPf0+Cd988y4IfvpTn75+4/rXX3yRXTU9uTEZPT3p3+AStsPTNO6407410OK+hVzLgdWBBFjL9JvRK/Fxao1Xdz8xjYyhm60lCjhrDGlsxmvlDAYjncygMG6y9tW0xf4cZOKS2xKStvUQptZrBk8dzt2wd2ICilllkpjqwo/4x+2tpzusC2Pn780s319eElZOGIeCB3cv6D1upJyaQ11lEq/9cH3J7xMk7VtO0DOuhX8zPbjf/sV/9Pco41g+PuKp0c/Z63qyvtJjkXqChcBHuvpx0h6tDnuSiW3PIocgTkmaixojb10958VIZkS9Wk+2vPPL+WHVmbSvXZuqDJTarGi5efSd6T1VjnPZpMthsfXGhI63HcWtyDqN/rO6Kz5vHirTRVl73DNDf+nAdZZtlgKxEc3S5G1PGQ0YgA3bo5PB9V7vRndws9OZ2DKAtbdfe42En0ynbGMSizDxhk58VEvSSPe0qNs0FPe75RMynExO5MbpShaencWVi9IXFzMS2vYRYmbhrQKXl+h5MjlF7YcPL9B0NBpdv37G5r+85Cxy4MYoavpwuHj4kB4nFL//+7/v137t1+/cuS3h2bUbQLyYz2zDZO9fOztj1T28uNTDLLWaTE8w4OLhuRWmzz3/sVu33tflksu7Gd9YzV/Ws819mOrjU17wcOTlG22HXpOLNK0NTrjJjWzhy8XDpaFuVAv/RGc3HluIBTjED81sfWsOiDG8Z6hRgkPzJQPL7DB5cMqvsOLk4UigQ+l0w19nNRn3cuhayWfRHVfiwHJj8ozZZYx+zrNj2yqZOBjPt6vx1FsHZDoun5H4i4ebzdRgidhqcf04x2qn35L1LPv2L/ziL8QdUV6JzKgfZ6sCWTDIYhqwFC+D59j0OauSTZNlL2kL2lHjbj1PxMjmGPJlOelGzP3M9gpuhoHJlB0W0ytDChHifTPZJlGmET0mvGWmYPnrz9H78Rpz/Mg3i08NHdgLiZxEekKcHbHkRK4A1WCd71aG9KvV67fvvHn7TvJlnKYF6iTnjEziUKnBrKYJcKU5+c4IJZkzfdEy3hpphSRdamSJXI4LC/n5hOknwbqqKVLlhBZN7OTgidY4D3j8V/7yf/1Tf/dnPve5z6XpDc1Snjyb/9KlSRlFxxyqZ3UI7ONPPvXU+x6bTHlXLTJnUzKsjJBpHWCqOTUNjvrJaXC6tyqkqZk6z/KU8j4ibtxypkF1XwJKrfxyMBXy8qYNjTLKKq66GNIZgLN9ZUFYsJ/VmE3M5+GwzRSVlqFFqIkAsZk56SJjUu8sGuDicw5JPD+ZfVNRaWLDGatDvEtl6SLVw2+au6aDZZP2J+NcyBFO+cj/ML4CMYIBlzjxKxyvgCgRw45g1m1kaez3UBsns5Ih9ZAhVGp8yJf6SxeGeZipElRItASnQBRuHBdWpacRQbc9EFWAcUNFzr49LBYT2cljMaghNs/q4cW5Ec9TTz9149q1e3fuEPDBkqllVK0ytCrVyFWFBhgIcmxLJEA1OlVOa1NVNdZ5ZJJvP/JJqeTM4qvrGC1tSwTdWK1zwz/69a9/nZZPYdE3edzEyu3xZ4pJ52iKVsB+z2C1EuDzn//C9PTa2em1qdlfS1fST5N18g7FLCF0Y6ybCVMkQjGkyNRCeq+woC7jxzat7Wn6rbKMAz1Jj0bg9KDUQwC2hIPYUCRRLQVmPo8sjSBQIo9K9HIIkrGbhE293SCL0anNVGlWgSePVTPjsozMmKosT8oYMnP1vvHyN8RoLo+vbqWvXp06JYd64PkxAtAqqSKHOVfJyskb6IfDgXE9Kv4lafM7fsjcBWclcip7v5BHr2vSeOIxQqV7JCdPtaeGkjEekCAky6qH0LEoq7dHSMSlzIm43jj1wriZ+VJU4gIA3OoP4hgEpdjkmcxTHdVOq1Llq2amMo+uIlN1njzWbJ8YVb0yVU9FBX5z2oQUPUyU/53/8X9KWxKxua6+HxVRVdIvNamI5vf+mWefPZlMv/rCV9lSb/CXWT4V75hmEx9QnhprlQo0JYOgfFHAN/L5GeKJmhXycbUrnzGgo+sM2u8SmQYnyUskpAXVkABI5sWCdBz6raGUWqXKERbg29zmPqJTvKIxzUDmyQqJkN0NdtHjIO+f4YF/6plUlgFeXjxsSCMzTU+WLk9CrOanH1VUaILc0ZVV06sI+d1ED73TaDErST25ImjhRVT1lLyKipoQsdoUZhUBFVF8KH42RCzKEoxOeuUnDOiCwWTR0D5NCUaROQ8Pt27duv7M9fOHFy9+/Ws1LR47WGSREANZYbtW7iYPSZr2elIgqvaW3E6FqqJNczSS8lWPCNESAZUg/EZOtZGypEKyaRIWyuN2EuWZZz7wyiuvFCJCL5GrQLdvu5J56FGt9+10kNU8Zk5m91xchQqNqMPywKshteaoRtU33DBlZ+hCuAV8EodaUY4uSdiEoV6K4Ow1B0pqVhdt2kBtNBzFb2VEqaeCoUEoFUqn5glSUy1VhEzDXzBNBPQF6orkl0Rxe8iJTg+brDowGMCCysyj7r/9A/9OynZVg5J1/cqNKx8V9Cj06ulb3yIlB19N7Ca7PK/6ypj0S+6Ft9BLPZNtqlFPUp20rIoKe5vQR1XRhUO2CL+iQOVWFZau2pWSc0kLZDdu3nrqfe8z1Hjzzm2DJIF6XmjlSk0BPfVhlxyZUaBp6l0NDSBdtLgOnZvmtxbZ3xb+Hcur4CZdqhf+VeSKUEwKpGCzZZb2L/6F//zll166c+dORUmqarGblCkrf5qQXlghaY09D5cXb9y+naXoqWQaLW54G+5GwiSFH0FE6CZS0BYLv6KGyh4dqUUCpDGxm0N8V6OU0yiJ6keqIZyzEymTpyTq6CsJpKt6ChNayjmRkoHnvhruukn0hPlXd75ojmjhNEJ+MT3DemPLalaqk6qmmAQUeXznehShfkmUAuo60qRyTJtCgeZRqu+3MXGEk4rVAKJJ6lkoKF+rHbiI0pDUPllWM1Kv1ERIU5904zQlEdO12T8p+lHrklIGEUS55VlfzO/cvcvvw9VHgjy4f79yT4byKJ4l5+JEbkLXfMiiiO7e76AqBSeBKYkyqHV4bgAhUlWdc9NckshGHqm/4PxOxPqBqYROdmOWtEymFSOZ173fSVCIEdJcuu1hNl+kMo9MnDypPplZNgUmciVIwVALZhBYVnARUqbVGrhsMhXdGlVt9zMKW42jaqVzyTA8iyxsMg5N8i91qKBqdeJV7kgUukmp8ObG0CbDED8tT037fTZUza1IESaCsULC5Hvo/sAP/IAfKTFZ5cp35VuRQtcKzWeybIoMITK14C8ZFr4StS6BTZqkSGaNJaj4KijobOyVqlZyv7oqmUQwfczLF/uhlF6Fk6INGEEz1qnnqWGRQJW0DSOdKAB5wj78oQ9x/96/dw/RXWiP4iVEElH1IhGiR5gZyaapnxYpxj0LOm1Su6bPRrcFmpEapWRD3zyVOCMkZmhaXlxPWNorbqLwx/3yr/zKnTtvHhkfwuS6+q7Ix1KaJ4GIedfv+NCHnnjiybv378ooki4mUWpX2SsBcOVxJFfDiBRRHEg/KuEkTqIVs0pWNXVuKo/CiRgaVmvJhaSvxBWQR3kWEfBNV7Is8jShqUgi5qPCMxAuEusWFar6IiVaPptIfvDEJZm/yiFRm6tS5baJ0CRs2iYwRSdGBFMiNdejxylKwliQYU2VW9UqOVi8rDxCmYp7lcPVd0WOCVcWjYwa4Sl51t9BAstGJbJwrB7JJDQstMKi9R0+CUZuS4DxxPPMzJioq4JlEb7IVUnpHIFftSQ1Qu7qN5KBnS12AR8Qp4y0JpZkbhJXBesmFE37ZRKiNI8rQrUpqpM4TLECU1VXFXj89Kue5DuCU3HqxW3++OMmYE6/8PnPwX08NdHS+VR2YFlaIpnVBTlpUWUmICZm9YFozlQpVdRggNZnarQroNZcms/KmtHws+xHPh/ULLrIruqb72RS/+o+vUz/S4tS7ZDL7/hwErekbx6WSSag6nNsZX5WmqpQAJ6q5e/4lZKaqwRPlZEEIoibDi9G0JX/dVXDk6hqk081TZaJ5Dt3qbxqpJBjUcfITao8TQ6xcYOD/Ku4pHsEQH5XVpm85g7N1dCkIUUYU+UIPdy8efOjH3veLNxXXnjhpZdegrYUGgxH5UUbsXpwFcUzdA5oKzN5RLzGf5rMAsc0XL1LlLhJVlWzEDzpk0TkdIvyKza1TlBamYY3hqXZwv/mr/zlD33oQ8RnMUsr09wiS7JA63wlSVoL8xmAtw633+B2Nx/oqaKvrgIDWonW1LB5EEpVtukySaHC1dXrsdtYFGVrKEZRV2lDucj9ak+N25LgWFzlE2I0da3QFJIrjWiKLnKkDcpIHarYEtpFsAYqxxxSnFTamaZmzqFhn9vqwE37k28yT9GhSn5f1cldQpEoZA8i064Kvco0bWt4ldLqWZNXSqwrXVh4Zax+AacA+SZG4NK0LUWL03A+nMnTWD7FpWpspROpsgrYKVezeUOTdffu3zedAF/htZrmLBL//IqMiKaXV9CHaCoRb5qHSijGhY2uEERlZKAlOgQTNdTjRsvoXnVFIXAsQqsfqV+CqpXVwKI4n7aZiSHX9TiPQ8GiqpzkWyFNC0KI1C3zVT6R+MWvv+gc2FSVmZX25yOVa+p7LOjqixwtPKdNTewUUMTx+2oGNZmkcWkJrRGSZtjtZ4QAjlYz0hNCnzRJFqlrKhdKxAzwlfCizPEuX4kpSvhACFVOSSte+JXU9VUSLY1N3diFfyQpQ7gkZlqWwVTVqPJDCzf1J2bVJLEb4lUAsqUcIano1dXcNeUmE0zXpDArsar4etjEz+3xUZWRD7FDGnlHJvmXKyVUkMZUoqioCkuB1ZA8N0D26o6n3vfkeDqxdCq51VMxiD+OCX9ZwguaKhOS5WqIkriF1fJoqLfU8d6qSPyUagWOqU0xpsm4TrpoKq0gMuDYoKaKJpO2m69+7Wtf+cpXroqoRmByNauI17SubYlNKhlKKfcAukS1lThN9RPmTvkBxO9wqbyyRUv3iyGQSkVgaG7s8QRogxoqIj+KfNqW/ELS/K+4CkrMNDSZ5Gc9lbsgbW8UQdNCTY4BlgdyTk6Rq41kPjYxTwKS4DfZVYb5SEYpWEg+1aSxpVNk/a4PaZs/gZFHqhaupE7Rl03iAnWlS77+SsVEyIiVZYbEpmYUu1U8hbnCrpQVwaQylbOfySHZMmo06aqSCSqiCHVpTmIWJRvKRNVGcl1ezl595VVzu48/8YS1KiG28UGUsJly7DDZW3sWMqWV8UManvzkkprTTVXPYzWLYlWW6skpPTyRk6krVdGOKjgcayqfFrqLRVuUEeOFL78QI7XiyKHRRskqEfPRXAqpkZ+W2uOz++hHn//Upz9liaiylR4Wpa7HS9Gp8dvSu8+w7ShxRPTTJKTFbi5eusjyY6HyEDUqIU2XkY+kzAVVuZI+FE6OftVX4glWdEXxRMf2u9ogafprUiF1ElaWDY2O8T3NXRAU5ulyDTVTRJWUVtWPlJRK5S9oSM0zdEqnClY8yxNtdBs57lNi8rxhTz5V7f+h601jLcuuw7w7n3OnN9SreeipupvVc7MpTmqRikxTIimKNCU4iBwFiBMZSQxECOD8CGzYiWEgARJZQID8SZwfSoI4lpQAjh1KNKnBajdnNoduDj2zu2vomt50353HfN/a51a1FOS8qnvP3cPaa9prr732PvtAsxgFmwRWwNZ6Bibm8w9CtTtqS5Fh24iv+OBL6CARXySnH6nZAAEUBA6WXD6idvIkjxveun378OBIBuHtuffRY8tEO3AhkcUq3ETXFJz1Uo7uQCyN72DeHZ7ggoCBzVGXeYNAvOcSbYWZCCrSFBqNhtggH82uVf/W3/rN4ydOmMMFBTSRuBTA6SFgQC8KuyXEAFza2Ng4tn3M2XdxCTY1DkamBdPWuYJNkjEn8Tj17mjT+TXpysHmQ6zc2pxglCw3BUVrXsEW+QqAxF5ZbFXFHf/xYeSD1dbIAEgN4xONUdOi9h0si5uiNEuiFgUA+HlD4SDtbnnaU40MW5iPkaPxIKnoAIFQAgOWAgxxCosroMFfSQ/goQZRTJwlh/90cJpJVfhtSfooK+RJFQNKUBKeXJSToRRl7Toakh/h2/CT3Xvnz1949913L7/zDmVAmCLol6QSNrN8oMV34o8w5BZRM5SVjWRkk4PS+xCbQxsKTshQDgENOJEofaRhsZkzIQJ/ry+0ITCTdVzsdX344YdOnzrJ7i2rF0hQBmrjgwa5t5s5ogdG9MzqO++8nefNRCf1ZPYd5JWMtm3dpt9Fs45aCFSMBWhGZMV3+kk9ssiPxoTNf0RLCI4cbm1IRojTHVlTl1rgQ9fl3seJqmxfdS0EhYNRd3gbiIqDonVKVrDC1v/CxfMd+AphpQEcygNWUZ7aFKUi7QND8P7T7tkDRF3oyiSMt3IStsPf3eYSA0BCWOIn+kkuFg7oVFOv5fAdCrgTmrECvpwt8o8ixeRA1iZ6RTAwgVXcpzYoFxNfvTjrUVoGC8wN7smEWB+QDApeCFwU0kTIDH7AAc0I91JpNreupIUREjObC65F8SA8SLFbxbte5Zi1POP/K3/8J77sJJAkUW7KTo0XBRBE7A+Ijd/BSjhJzjvvvMNISlHQjzpaqrAD4iOOUZ07iyg02wTD0A9TkDASs1mpCa0N/iVEgvfqmbQVNHqjq0WvdLxW+vZ5ORkoIEMXG0IPfMiSTl5Jz81ZghrUly+F6sF3AIN1qm6ZuKJNCrpPPv5AkliUYMGbCsFgv8UgBClHAowBO4H4I6Wkm5QqqwJioEIOOCU5RGGFSYHgHQ0JPODQUroRVgG2EC815J24kKFR4OFnoEY3t2hYZuoHJ4VT3tvdHQyG1Lh4/wMcc3b5yuWoiRTAxS1R2olCz6M5cVQ+arpluEznxk5KGxhJrSLDdyDvY9RRQLgWU1HpgbAqsFZRCfhxbLiEWRLEv/zlPy7ArhlicsI6aYi75EQv9Rw0iQGaXbfMl4/6R07DqQDPksm32WAbH9zbiCyhaVrEbPOYhWlIMFqnIuMd/01hpdeyCsv2A0OK2m5YRChV6eOSeBevLEcBHnKgDipoQZpVudh3iP0EBQpBd5QPFgZx4mx/1rrq6CewfgIGGEo3oHOnB8tv2CCCEJCsCIApSYPFP0ilaasG4ekTgDAEgKIRnT++7ehBmQ3xj18F6jZvWTGROGpGiYJvQA2uiik53gtdTEJctq4Jx4tPgMXFFgJNXxA32t3b5VGx7uZmu+tTtI4u4TXSoNDhnbAEUxCtQ6itAB2KKqMgUCVXO+UsQJAuc2tm2GKViJQAHUnqiR9khm74eEUohMhLXeUTn/gFdvAXtFiWWzljHfoGRsXJFc9nMXnyKBcDNLXKpUuXnnz6Ke+T40w7VFyLku9CEqyDxaY12rXjRCDASAD6YVsyPwq7ngHCXIww3EfrIR2xESu5KAcQlk4OOBm7REikBxflYKiB2EMu3ohN6MwEMygPw8JyMilkDyMnQcuiEHiM5STyyy4ejekX0pKoyhRNvc5YQaRyC5TMo4JwEB/FEk132GH5SAwyVD4uUS7kiT3XmollVA0QFilwhUCbELw1RSa0JO6jjITHnz08CRBcrWJDJNC8ya5dljjZkmdy2Mdw7epVjwgArPqd5AUDsWsp8qKKOddQl/XbKRVTkwAbjcNkyQG4jnFqw9V3ilGRdFGlcTGwQojKZ+BD5wO54Awh9E/90i/yBEp664kQLY391azqckSwIRKVsNzmsACe1+l02KcNagyxgSPgolXpLvCJO3FmFJZMXWBRCY6RyQWhTtAcVulUzMo4UYDnlj34ObZUh0aicKwIUAIqdPuUvR1MR1lS+ABRl5z5Y1igXyhgNgP4tJBhDopQmT0fNMYefvLYBEQaO+/pHBh1zY+AEFfwBcw4n0gMgRi6l1yBxEdpggwNNh1JQsSDmtz4RZa4FM5CSA/WyTn+omSUkhuWRGb4XAFzrXnm0FaC5491EyQDKO3MlNxgCnW9UCBVJVpYtxI1E3qCgxXMK8+dO3fl6lUe8giE+NCEU2jdqagc3YamUCE+4jdjATzkUABKqxmqkjFL8wNTvvkJ0yEmjJK4+HIltYYSXoICUN0DD4JiqnDSy+iNN968fes2hgJ2UFpcKF241hqo6CeKJSDZJCPdm2++ifH1iUGq0JkQElwLb9AuH20KSRuj0WJDpYmpYb+DTUGiOuJkLiwJH25vZfCmPa1o7Kfh0QYXkxArCh12FG7DBbDTLAoV8waqGFHl4GkwBL0AzIUDT5KyQ2P4DCsq4/ElVET2pGGJfUo/GU8mOKpw7LSHFBqS9rC0IKeZDTuD2iMjIEhrUFoUtkmywrmipKLVuFKSf3KJ8uCLkU6A5XC4zmG/IidaCw4VtWw/6lE1yE4tBrQoB1iq+w4MjZEMieLmiQhtkGBN8lw15itvtkgZjjla0t4X8gVM0QxflHHVwy7vLzjrQrUMlVV+SRH1HAqgzCzgYLeiDOlcaCuegUWVUboYXthrD0Tg+gHH/8f/6Z+kPATMuM69emCtdMG+ABDfSBA9htYbN65DE+0hFBEInKlAAU1N+AmBlqvPZCoxEQ4OBU7UTVgEXdEcaBqTdHkG2E5eIEr94CfPRfGwpcaT5y4pYGyEZvETMCSxhxiS6BjUAVMNoIVEAbbIHS+y7L0k+oxvYrzcUKGJ1dpeWFm/lICXvOO/X16WASHu1r0N0EKXssQI2y0qqNfO8EiQs1wWoix3djsLRmUNi3DDGeXmDsbkAzlRI/y4Aox4CFCQXgGc34oF5KIZZa2coqZ9o1xiY/3LP3mZh4nuv+/+M2fPSYW6AjriFJitoTp6hTBJUJ0EBIb+CsSBjKQJ+IIEQKgMT8XHEusrfsiRdXIqgItNCQmCukr5vnvvk6vs8RSyVIi2Htd7WBEQUnaIdXn69Onz586DpNN3O4ucYptY4lhgKx/ETJ0UCZsMVBKSVKA1sODTqCgFonVrJP6CS1yQTOcJFkoN+bqPbmBPPZEEXTlZE1J3uLAbKAc456GAxNk5VMHZGf+CUTQccsd9JN1GQd0pPHMaGUtJW7xzidx7LnGkQtCQkp0NJJpEWhJCGwOzQtAWhILEhUR9giJbUAeyoyZ4JJgWFwv/i2/oAVncBRCZZktxUcr4cPCUglSI4pZFptKtUDmeh/M4R/zg+UBcH2tLpIh5H/JQFusmueUfnQSGc2aZpMQwAFYAsblEaOBgbf6lK3CUyzFxTXhJArnR58RGEdIXq7/5m3/znvsumKV0jXVQW3/QkgFT5kqTPwWAdeGh1fsvPfI+JhtaP9L0xqTAiaTaLK6JMpxRiEXfVXqlU/xTaI57/pQDcpThW6yoKUdJd4UvdgJHx1GNowW7X1Sw59B/ohgjNb/om0IUW1HmD4A0EC1DIBoPAY4JRs0iCAm0AIjRSr0/bYTz+PDiAlJQJUglJuyUJf5cikw9UcNISCYQzggx2jCEA178SYJ/Eev0V7qolWDFnMv5pi2hQpp/LmDqQsQgQX/nm46rSZLGQEBE6Ej+pCYMC/kFF9QESNcgV3hiiAeBD3u9t95+WzUK6PLcGUUMuQAOAcg1aDIA45CnPtiDgw6/UJ6C/IIGCYelHM4tSsF9krj1PzAD10DZ7CKFW4bLf/Bf/UPHYggI1nhEqd6vAx24FACC6aAkJLnC+SecwIjvRnuCQw1FLjQwaS9Mg3CxsXnZhc7TCPUpaLK8Sjd2BsllEkPjPgUBB8EBGfLONzqhXY4rVaSjIHO0U/uHf0Irysh84NAvOJLDZqLfyjX5pkgpELKQQhsHReRSjN6qPafYhXopSexhrJ0kXAEQ+rfG2OqyQV4XNMiHQpHsA5aEBdDgK4KgULWCqjsV0SMqBG5RmCpAJC0qRx7Z6g/VLakeSlhoVwiB2yCOPNFzxmpCaDAKI7UwB1ULhOCQDbSbrVOnTzNHJlKY8ASloA/A4ZOrAADybRFkYAR5FjtWTyAv0JNvIMVmGWMo/EgXYEKtQ8SyEB7xEeZEGqwcpKoFWDn7FPgpVc4e9UlJqSAPOimXNAGVEK+ikcQIfyG5cuW1V1/TJQufj3LUognAekeREHeoXrDRdKwajCejkFvBc2uQzUPgzJpC22hDMtM8DJvM2+qw/cCJRoJU7lBB8MXuYdFAnnylBV/ULvstiQFYXaY6RIliwFCUehGU4ze5JHO8G2eHGBTlJ6xDBGELAz/KKylFAHYpiXtJjWZEbf2TfDGRmQwPMJWGgYeCM16iJACxLP/CRsgOYfpzXZNMJ+ZWDsDehU0KBEIqCiJ04g4a6g0dKXFYAmGntARjAGNx/3hsvnfIC6DmHNlBgf5Rn0ZsJ4hRc+wtBGB5PtbUeCgH2JBBCUQoK6VJKwGCqj5r6eQJJNGKSYUue1xUku32gfgs2nK8kQA+tb3c0QL4kO0YRYRZXgdESIIB3AfPhCgdJvYODyH0zh+CJ8tJqGKiuKoACKYqct2WFZe1bc5JKOVANBlb7p02QXKcDK3ycwgMx9DgDYJ6wEqKiDAACxweVKAbhOKDD3/UCdBqV2DJRyAMZTYXhfhQYUVR+nE/sKiELw1zUJ1cN+3awzHMsXZCYhDEd9wGLUFNaE6i0xwa18bKzDACcgG6FFnMl2nYJhyzJJ0eZJ/zXIBQTUoHbhQKfskditN20JWYKIrxO/gYLdiPSDYnuAZw/qiqAoZQQ2H0Srgwp2zx398/4FSVhx5+iBDJK0evRovUkCnIxjsYxqDvAGdfNWxnV0240FIkiolNR9uBaOSkPXwabqoEQIL9uAKiFWySUsmSL4B0wKVlOwylo+sC0iKqjlITrBaNNAnzn/xD9y9efIjTsV595WWtdTCVoqiwHSMiE0GNB+fDVFuXZaIGklg9RjvmALRpE4Gbt4TfcaLEl2YtLEwnCoD0UuRA80acnOnOCNxwLm5wg7aARTOhDNFm8B3XlThS0lO3hzmPlnDXhAw4pF4LEdhibBDkJUGG5y46FP/LF9IhJ1D3k8tQFS0jv2AcLad6yS4KIoGxZ4bK0wM1DlgCC/LfbkNllTOkFCzTTttvbCJdNF1gxI2kUyKyQzaUMZVE0vgXJQKgiXR7Jl8qI485cqAiYxlNq3j2DL5jSQNjGDIDFlUEH6jB75CERkFzqK8voEDHBikW0hYaVaN5aifsLBicIT0wpp6NSxTaTqIOqIsNct/+E1WtI3Wyxxb9HXUMCZ07d6bdar322qsJQwqZJ0K2ikeLOO3moo0u6uqFRlqMFh06EnQy4grW0YxUozVYqWQCYZlTJdsPrUSCwEyIpKAm7aH+6kD0DxitLP0FNGtxokPwhz4Xmi2y3ND76PlImZGL2WIYU4dB0mhaEyltgqE6EKVszYGEs5+0QZ34DUFieTdP/aGGuBd0p5Sox4ddlk9Jjr8gvmjUnkQqslY6tBADgrxzXqL7p3nwCiT5DZPFETFhC/ym2eBClIk2SFtxcBbnbrGt6823fhoGiPcVWNGymk+ezcYguc8Q0pzKmQUHABp2HIwoBs5GVZIdoaZtkYjcrQDmoGDj9kp13gIcfUdl0hUOQP2UcCpQTU5ZELsLH2Q4Uk/0xNBuTYpDHuKxKu7Y3t4BO3aDbKBGATPQPNoDGaBgaAIZXYJoLVpGUEQcE+vQVBWMADuH+SEoYDuqEe5xjxF4OThSQkfNY1G1aVAnwcLSfUBtuHWFWi+Ok+pwveAh6kVWME8OxDQVHIKohA21hET3SM4IIHWEKcwfKPHBiBxlg19Ulf9OoGSTpQKErVNW34Jb2JMqWYoEP8l1wQdW6kbF0JPm0uBXgJCquLUyvAdnINKg5YFBOU+c8IYSAdKOUdROzIxSNOXUGYxgn6rCZ9SgDEAFnjczzobj1YccrRTtAAVMvOCEk2Za1Evw3aIk0hx4MKI6eLkflig/hKbYvbeBEtiKsd5k9BlbAhEqK1PGuGBz0An6oTGRT7HAWYGFrdIhDt1NkFXOgBU4RkTPmT5ryfL6jTdep7egwmsWUHaNM0LSe3NtLzqwQTiiNSlfpeCPxmWBJwfxycnfUA0ZCXVhhXYYepHiqGN/RLfpApxTC7K0nfRbTOGf6q8E1FIkzl+05Kd6IznYP8c7MdHARphQlQJDjoCzGe6BYGEfrY2L6unClm7vHOddj3aVO5c2icdUlwe8cYh1iDul5Z6/WHnnpDP2pkcPdqtP4Kem4PnyCkK2PTONoUWIly0BmdN0tja3ObY1uKaeB5EWwiM+PDpkklswS7qoxK8ym+2IwhCygpHKplBFEeHMLaIz0N877HEoDIernr/nArHDmzduoKqUMETHeSz4TOKgbXNxR522umiBhHqKCVQsZoQw0x2Wy7T1X+RrHUHBt0ORQXXxDEyFZBpNYnxhOycvhYRsCUropgrRDyvDYuBwKD3FQ0zcIR0XXRx1HRqE60e5dPLEiVhc1i+NxqAOOKoXIwBnaFPKThSzLGRKu6jyyZMnGRAlTC8Qp03jxPySmjx4P+WlTunYGtjjWOF8mcKnzp5lX09oOZaPiw2FVgHpa1eujia811aIqp/uBkLSg7xw/nzGcYXQXUEHOMscu4kqm3/58hXfLO59cRVa6C9rcPpi/dKlhznUUb5Imcnk0TCwXvzBDzjjImVAMKxMxRrN7InHHz+2s0OWxCutiEwtyoe9/W9+41u8tko5IJGQAziBAgv8Tz/z1EZnw/ToHXIFMkvL3mH/xZd+cOsGpxwFDolOoJaXm5vdp555eqPdRVzQfUcM8OKnb73FXgGmI724eGfs/ffdPxgObrz7LsEJyXAuwnYVdUVbVXwaNZBQT25EADorNqVtgN2qjCSjAXgdiBPvJ1oOzIqc8KgwHrKarkIFNct6CiZgMS8uZvcF16KNGA1ow36ezFVCCgZSD/195NITzVb2wne/x6melAMaQ8Fjjz1x7733gB3kB3ZKIon5y1/+ypVrVyUVFVR9XaaVvaXyU08+dc8992ARgMyRnqkiVgCr8a/+1R++++6EYpBGSQJXjBL4RRwz+dGPfuTMmbMRNaRe6AMqSM9YLP7Z7//ekEMjZKfsUetdZEKLas9+7NkTx0+AAAfMYQioiAohTLT2D37/D4bDPoflREUZfFcL5QmCWCx3dzFdnKohecERKcRdImTFAXp22VQyaRQw6MOzxY0bt3h5PbYpZkMKQpvOm44HQ1/XI/4iGjC9pRZqfePdGwfNA9JTP6Z1Beee0AHbgSwlfXDQS6RXVc7KuHbl2j79jFSSNHJ+UJB5sXzX1dMJ4nDhg8Me3Q4fB6bp8TlnojHGOh0lLhhHiwgc06+vSWX0k0T+4WDEuGT3UYiIiC9iZp6PlfhAPTLkrr1PvYFyc0mgIfHC5Gk7qC4UuANqYi6hUiR0pah+ay3ECFiSLpzS9s4Wp4tQj0asY4BtwTEjUGorQtLMc9l5Vr5RwSQoCMsGY8lKSF69dpW3oNAQlzsVNIa8bCb3THwOaLcn4JfgA4Kw5wXTY8Ef0zUYcKq+Tes+ykGtKBMbOBy0m0di+LxCAeBbP317b3ePMY3jGLE5lKYMYzdi5V1gspxK8jP+fvu3f0f+Sow0UpRjJBPqUcolLBqgp5JHwBP6En+0W+Ijb1E9TpJSGvHLD/1824FOWrWw5oE/Ww+RwOtK7CyyeRElPWmhVskw0l1Gix1Q+ZASNghZQ/z8jymNO0L5HEwWTl/IFgw4pxWE2VyEGlJB6TjWaN2EWFjSGNUAFVpTzDAQoy2WONhXZ45bzSIqgj7jOVMFhbUKH8jM1S+1nFJxwga0EiQLDxuE5XSgCGOBi8olhqDygAh5Y7dkLCipfzYlsWB08cGHkMit27snT5346ZtveezngvOlfQdIwEx8Ca7K1zJCDiYQCjA4IFp4L0FNGGP0hRQ5QA7GHdwRKyekKmeuaBzMwUQsSmXeicSTtRZVSgzEwApO8WJ1zsGmwydG0G3taQoPWnj0x7kvGEBzYgA/hMo76jjJ3XQy7aWezRAUmwIA/kqe0Z8kEMDhu9ig4Ul9k4KqTVFapEOcHJgsDekCTDA4+jjZXkEd6bQgtdrdOWfaus/HSqal/8oPHBGpMqJm0ZKl+I2PxWvFUlkqBCH+4h/FEzX88GcsKFM/urh+TIILCfQXmI7X4zIaI5enw1tDLqpeFPQXGke/48xS984F46BDX9RsL42nvAnixDT0rWCmGfidkSdqqQplRcONLM7cqRB1UqcNS5yErU7QlcucK8zZhw9cfODSw++7cvmqr/WiY/OGGN4SrcDXqDhSu/gRhkeFpq+iIYo59ANOqm3E/Tgl3xeXwIVgGBYjYi4OAyITbAIuP8O4jkeckM0h3kDzzUuUCZ3WaGi8gQE5EFQQHwwscXS2x+sE1XAgQhsSrnCl178YT2KmFyFzUyQm9QYQoaQfoWoy0V9WTHYC9YjigIvvxGCLxAUVcW+hECgVUwWypTLE4J12OVUWNWGJBRk2KDNCGUiK1NSASUExmYIISZMfLfnhPRdGC78Q5wkWXr58GStLMvDhLKJSDUo4K5amX6oZwVz1Sb1e46IiMILq0Nksl/hptgOCrSNLVgUSgXI5JiJqJ0L0wMmgM3CiqcRJb1BrJsrIOny7yBJv/kM6swJrgAynrLazxrLBixF29/dQINB3XU/+uGLOGnDohLzAXiBk9mQznUk+ImYbOLi6WOsgHvroeW5rlQoVCUwXJusAAEAASURBVFuIFFQmNSTJA2DwSLYQeJqz3zDiLCBP34Xw4Htww6YTD9UqkA3rxFBOdc5NtwE5DKlki621/YvigqAJvpgogQ+U2JOkLCSbOBdI2avgTmiF4XgRNy10gvLRiJ9cljM9mkkWDoApOcrTIJnhw1ksWAl0bVM0kviC/ELcYRMiXhrNyW5bsaKxc/ESXaCoSWS6Q06dYMUGAI7429vH8GWZymGVNKMBWjDYoujoVLGqAijWpvU+oiWYzjQxeXs0QlMcbh6cdfQEG9xLJ9i+OxXbmgQpZKCJWUhUpQ7GkAKRYiuyd1QnyA4W2UAwROoAGqQB/6mnnm41m8/9m+dufvWm1ig8M4ri93HOPG0BFnwA69oG0aKYh8WKHNHQkKnbcgkNhggCB9YPE1Z8KhBfD4jDJyeVnV6PHiGZTOVwFLmhNhyjHVuOYYVitEti0CT2UlfFHWcEUe3WtNsIUI0JhAIksdGQrLGO3Tj9MomM8N5DgcIRQkHChfH4WMilqBiFjghCIPEJQikr/QIS/8CKRP78mSpZPkBEOT7E3SvuqGJ58+JSOQqFlDVQJQF8yBJZJgkwywYiDeYyzsUAhFOCk3j5yjvssjTUYfABPmDeWdjiBWleNpvWswIIHBYNmqYpsinJZgaFQT1rxZtK8C+jDOaMVsHBiTOMLOoFdqQJxX/hV1OBf1ompF/0a12kRFVqMCi2aU1hYmZIm9bAlFix7YS2pZLWRwthigvc4uv0lHVvpxcWBGWsGPNfUyU2cAoICU6REmxNgEkhCxICiJymHjQCAM6pbxYGThK+egkyiWQ+0z0cg+Mx5CRFCmRQdLfzSLEiA9IdxWDK+clf/JQMomk9AZvx//pKgNOvYAcmpWg2LDhsLsqTLteprmQCUT+LK4qZm3C9kxzMsUlSyBI4VwLplz/WIIXJJTIWtMGocbdW4eeoaY45EMXZILxPILRIRhZsg0MApQQgMGOKt4BIOvIGtA4P7cReYtDAn8LrD+GtcRJRO6a2B2k5bNG+2PEpIf4ICgJvxkSJjQRELigqRz+zrLioflHvjnXxhhcI8LQK8amnn3p6d+92hC8oxQXSALUiNMAKFA75s10FlPAA0xYY2UTDgQOtRAN3SRDb9UUpJiX8SrrFDUjyCXw+gM/P4HW6IYEbYxF8UYyflOQzpua0kxKsTbGAUOBJnyIvOjPJgX+0Yg1R9ZncYGCkRqsOVemiTJFCboxqSNLykZEapQhgSaBtsAMFsQhxchOtSFIk+inbKWhOtBuFg+g7iTRakCdQQYmidnAN6U42xo5kuBiQYdmCTa5ECiwYxWGVOPFJe9oITzJ1PpgoFCx8ZaYCc0nj4SAfYrOyviEqioAwOWt1CqTDs2HBOqxtgZdEMeYHglIbaDuYcfGzuBLNQV66lQ/gEMimMiDK61KuXLnKu1I4Kd6314U4yMUOYvzSz8AWyNC0SGpaqzWIGICtbx0xI7yo8Pf4kdgAkKRnAHEKrJFTmRw7VLhkt8QajvJBeSqSW2ArL8VGTplFI2TRkNoWlEYaywSa5wAS9oCwqEyjiqOIAqn+2q/+2qc/8+mHHnzgNU9RWX72V3756aeevP7uddYuP/qRDz377M/yBj020F+8+MAnP/kJFi3w9Hk5x+d+5Zd5+wxb38DuV37ls0899cS1a+/y4PezvNPjZz/ClGpvd//Bhx/65F/9BMckEHBih9XnPvdZ3lfzyitW+cLnP/fkU09evXqFqf7HP/6xn/3oR4hysQ/mkUuXqNLtdC9fvXpiZ+fzf+1zD168+Mqrr3Lg1a/96heeeupJWuc1y5/4hb/yc8/+bH/Q398/fOKJxz71i7/Y7rSvXL5y+vRJil184AG2+8PFjY2t3/iNv0Fo48bNWw7JiXlqiJx1JJWnzCbwBGGnooAxwUoYKx9JVFedoTDs2eU0nSykrkFRHsdJM6fqUwM1jBWvgKlo4LGyislB8B1IYRvUbHVVfKzofwoCERECJfDElXjggftPnTyNUecNKxyQzBwXgLSP3ui/FdZQ7UHYQAA4OSTTA4FEP4+ZrEHUsCIwJlrUPhbqQst0ESBIapBBSW64YJD66ECiKyxBEpmGOyBQDLapUlwUC7WWligiKfwjq0jRxUzNkB9myn4fK08oDc9H6TYRb+Sd29V4c6bP8Hk54kQUwGIRBKelyJnCxXSPDOg+cJICZBmpooqvcrpTxeBCrMjp63FLAerySRUGOwpDHd03qhjlhnpggQNgKUY65e2IvBOQl5tZRRdYhKOVYA7vAic6yRunCdqxGQlHbgbnAA4LhZM4CLiQOcVii0fiKdzBZ2PHIc9PQDKDgy48Ro7mdWKI9DqfrLISimBQFMIWIMw5RNibyWwCPayIYlxphAeLgsuak8Af3IFOQ4BUDH4lTSMlJJYSQYwbWxRVvx68+GC72/2zP/2T27dvCysELAxHZKGALOmIgDS6lTjDKN6QpCVXVc11RdhG+QAT0rk1Y33Zot6FiVzQgG6JND9EUBWM1lxcDvJFEhlRirI2LTYKNNAXpfgHkKhnQw7WXPaNmGYl1aJi+b/97/6xooXpEOIGEm5tOoAWihygbSZQkowowwe4Cz74xVcwzjz/QuiuWYmb4Cht0bgsTCPxKQiojH5liXRBQ4IPB0yxvsywoAsh8jegRmJqzmIF9gbYeR1Xt0sTvMfAktRADaImtFLZFBQs+CTH4wqVhbksUeDtM+tyWsynyOC3EAfR9eG9IiterwrivLkJMVA95j8aHqyUFEfc3nY1cWmvjUIlA/vip81ZTIOIilONMC+NSdc6dbX68Ic+nDfzF3/wEq85wUe8YwgCMLi7ZI820CByhGrMDTOzVEx/pE5XIct3lSgSyrHFPzoYrXBDAVhGOhc8kI6EMyxImk05OljyczyVplCSqKGQSOGeWiqSvndoSBKwlKGm2sgIHpmVBCfmAZO2DUWSGn1JVPgvQWGlMI3R0l/4sKzaY7EgKnJVP/RYDYgMs6ys2HCQAhNKmBcsD7o1QRYzJQCm76gYA2JSM/VufSX07haWCYCMVgvNJ0U4pHHDerJoFIDEqmBx6GrAETQw4AiscPxJgzElURXW9clTDMDUdaaEuIojeoQGqNcRwGPIQ0F5AhwV1N+xlpjYvhGuaBhEUwoQwjAYQKFpRMLzxryEJKFtC9JF+Kf645/8GBaxfeHxJ554/vmv9nqHBQmpH6lP6IENMVgjsWqdt7zoOYgxKEboUfyBRzYKQUs2hOok7bE1LpCNHhj6gPsh1SoKN0ldvA+rJ0lhBaID2HujuuSiV/EZBiKg+hHx7ehfioorjEABxv6czF1qZg0OOGiPKKYrpad7MLOduILHAVU5M5yp5vBOQ1gUorCeKcDkQ5gb+BsVAaHAAf5e+OS58hpp8C5YoWEI7KNgtE4WVR1qBEF+oGVpfsT8i+ck6vXtzS1mi7iPlJQqAVEoTI18LGjkTrTVdpp3mElzkdSePUKiydAPowxDc9iyElvxYJ0Ui8nCYUzGMUqhikKysUAYAjAG6GhgIfuY7SiOEDNjegSYiUHWo1oUMDpTGvR5Od7y7LlzsbFFo2LeXY5g8oWN74p/IZdoEbjMqgjT0C1mU+KIIKWZ41/smhGXmNkAJ+CBo3wDN6Y13IeWCDchT6PpHiIply6AkUolshIcpzg0Dbek2uTISTcQatekpM0YUXKwthiPlzOft38HpyxhIQ0Y9wk6N++97iBB0VRAwgN6EWBY/zStYIq4xg+rcKXxTWuiN7hWBqEEeDqlPnwATilrDMCNMtQJSgAf94GslAELRshslrx5aWp2/vyFYX+0v9cLZNAw8WCWKw5aLP+UA5ywtTBLgasNMmC5u0SwwUKbAWWz6PKAQFXd3GCyfYcRlShDgBJ+6DQYRTwbdQKOnQsoqABWBxjOWmSjphL+oDR13axoSBloyx566H28r4uZ8te//g2iTkynwJdxk8VlWgh0GOzgZIGUw70IUp9FPF6OVkdbdPrDx6VXkCUJ0oK+FnaOImBFvwXR0EshoBgJmQIlO6LdMY3OCYhwoEHBBG2KhzuISr+pqjjipzViXAaMamoVtx7yWh9J9iIjasAsk9Jn5Nz9oJIMp2H+kvqQJLv86WWJyI1ftKXPsK5hGrXsB9ouf0Ut27oDx+Q7rRd9McFNYCK/+Igep0UMzQNiYB3QAAxIojCsqWmq1ldCzyB8Mf8LqauLMhHWo0ZBhBVUDjEkB0w0I6CtnqVjLvgZBxxqew1aFQoULQsj5E2XZvssrAYQ/5zF4RjKArparHxEOh/uqqQudiGeEgKC8M+eOdPZ6Lz++uuHB4foim9MCRHgDlDH5RtmexOjS1V2rzAiV50z0aAdgL0pbGNjzTqusHBqJ5pKMVxCiYsL00kR8rBI1OSidWG85yKFSrQXxVRQCBRJxCx9mlsSSSEtMlEq0SMNePxb5/KtviXY3Ps4lmnRe9BTTEjQaAGA8UluujHFZL/UwIShYgvvSahKK+VG73BaahXRok58hptrZDLNqhO8lB9YQICF717rhsTEYR2IoXyBjapEBvQECOomyVOJV4ZPJm+88ZpjEL5cwpZkmMbiqPoFmKJ5WKgK89NiMbpy46AKxzFI5BKaBqRbBPiNuQEQhIflwxWyAQoDQHUOcwlGwIRO7bPQaI3AiwVsI8afZJVkZoqjsyGUmISLwxoqipHF4WOYQN6Iu7G1RTSKd7yKphDRcnCqE0hw8ACmb4tVoCETC9kP9JPc6E8xRBS5SMJgu6xCdQwpe5ELZbTsK2eBFu6gbA023flk9AytU5zUEE8qU55uFiun1A2DZwGUIyFLwbgHbILtV2qUYvQAFByNTmqbpJBYWpCamqdOcdGilisCHwBK6OoKxA8KmcQHTUSQzObiCk3glzS4Bk8xdEE5hspGOT9sMJhc1EuVxT7lRpcSCcgMXLzjJ6t3diErI3aoYu2OZ0D5rRaAlb3E7sillOM/yWiKbar99nJkGMUtQyZUMFSKoj8BxVKUERpoEDGLU1WTADJegTy/xCgA2y9NxvLxiaRVZyqiI0hRessMxAjCybglQQTOgCRllquXX3mF4fve++975v3P9A4OiEQRwEKBnH8Axw4AM+UjkSOra8OgQUupuoWw+M3uLLK4sM38WYdmeF2tT2d6AVMMbBUgYgJ6/EgXWpuAOwdSt4oraBNvWMyVbriN7EJJaIkEsCIRMuNTyBaOT1xYOh7ct2OZbYW7V8KP9HRRj7xomG5UgEhl4AUXuZSErXzCxaLa+ito88MYcBJXACyCFgUH16X/P99WDBC07EzU3md9/odCoyMoiT4n/Rp82HF+6uSp2WR2/eZNqro7Szskj7lL/8SYomGpEjSpkLbQJuBHh2Y7mZKOp81DgalOAZsL1bGOuFmpQIpfVtHKhjkizxQPqYEQi/HfcJKtmaf/YHSJboHzhxox3IpIFGYmY4Dd3alurkJMtO6UNh5OQH6c04bSY6UTAjIG9ghN0v1YWyYgagUZWwP1pGqkBOIWSxRRBVBcFCCRGz4j0TLpnp842XQfkiRSdMFXZtiipSXMP9JCwZMG07eTWlvMQKxDjEaAWCd2WqWMJlOrqTHuKa2CRlGBm2D99EUztl+kmlY0H7fpoyhcpETNhFoCsobGrwQmCkLce34XrYlHDGvJR/MHjAI9+pr6xS+wJSKf1Xh313g85DXdlgiI2iOkwL1Q/ENuyqRolfaTplIgJFqoGx6RojeookePhihKL+BRJkQXv2UFSQlO4EKCUgyHU3FTFpMQJpdEJ9ZkOunwlx6jhl0o9qlLjzzaajZ+8uNXn//q80d9Xg+Klnqygfipl9gWlr6Zq6CCdEOhaggTcsFNfjI7AeFYGQCqxRBHYgjKTZJbIWxOPMMq+6Qmk5V1qVBcLVmhkWBBSam3SugX/CQAZB9NgBNn4jM4pNi8ZJJIRnzKe3e5ggRTPXNDlwOuBd9zk36KOtb0ThupTKAipL90rTFJyVSCPwVIslIt8xhz7Cl/qfb6J8iG+vtbjeFKxNOivwLp4s7M9RUAUZfBsD8ejVQIG+ePhqkZA160SnLokqKLBHkpFOFHBW+1K7Uyz2e4JiQtOoUoSjA1iif4kWuP5J94FprvcEkSCMND8YgbFTSkHpxxVpHV6+giqPhO54DFitbxnR0edOKZH2gBJk0KGfSYTFB+OsHbpDHqQRagbIuPxFWas/vJDoNMVebLWNmIeiY4GtdGWuuyx8cFfGL2AYNGijk1N6SDZDLY3It/umI0l6nBSz2suIpuHg2FQIJdkQVS0YqdgQROesQp0XLggAdbAue7WpIA+glGYVYVDmzg01H5//+iAVqK/ISWwpFUYUUKIMKmBf2krotbJ6EXBCUgSMfEgnKKJkFbdn3dhUwK54SMhm+8/vpai5UfEEIP1bgALUjHOfhIgqsdoSeBNfDVCSVua9RGMK5SMLPATnjsRDBRkKmUJcn2UjESWpFpTvw029IiyBd2L5KRO2YPNbk7Wwy80fWr165wpsfW1ibexZs/fXM4HAGeujCCyqtqAx4mFQGefQPTKllBHyWjqdQMeyF4Yg456roEEoyEhIFWzFuYrGiECzOZcgFLWxHKVgX5hRamLNJpgyqEY2Grz3XbqNsUaJI8CbZIaE0iMihNH3BZCOkCjpMc23F1NPkZZKWW0ic/hZSYF8SlBu6AKEAF4bZr0zZAS2HKzE98ByVu/HcnSdQpTFN3W4vaxU+ET2FVICYxUSyKkmLGmj7Y9x6YNumop58UXjW/kdy6fFIVfpFKQUqAmWv9/AqxAVy0rIKb6eFC4foknJgF0Jq9IfSPb6WfMAn8SEERuEUk2iZQD4lYUohc6o0KH+XBk8eFEAMFcPtIs72wPdR+9ZVXX3rppU5n47HHH8+y5h2S4aI8iLZTnEX4qOHaPYA64aM3YuFSamCiQx0YsM4+c4fiasVzJRSjOhc/0404iEZQHnIlU+0B3SAkGAqlvrqIalGLaIn9L0ZlFZErQKI/qhBlEl3c8DOl2PdgpfmyxeFWlkYJ6qdCRVJ0TVsyn3JC9H+67t75W/bTUWMipmtuCjxbiwrJurjgwEYON/wVcO5+2Tj/JSK1+RebsJW7hb3XPvAJx6PPcMtuqHvvuYc9NVeuXFnzNupAsA2HFBG8e5+SmthJUjuhgKoPB7tBAh0x0ECzlITTBlu7c5mbEBIHb4tcZW9LATYooibcBgg1YHoCET81M5IcnwXzVyuGY9Bliy0vLlguPCM6iRx5R7SnCCyrH0GknzYoBtyLR9IbbsIvItaJgDCCeLpqJ8jgDLgmTkHULkgPVFWp6OxrwKDneJFwTvABCoNURHnnbgRtMdEq4pkuM1E8+GxmqlcoIggnjeSTnofBSK0omUBVG09Ik+yCDCDZWgwzlF2Du3tHbrCP6uiaSiegYKiSDKkAQ+7wx3oTK5LuVaEBQqUpQBY15F5g4Wehg8ISWvoGClqbCqVU4cp2ixiH447fHk5V3dzaqh4dRUJimswIMxbQ8NwoD1kaC5uFikQI96J3R5oxHgROEIh1sWSYlmiXwiFu6kheNOLgGCD1DoG1vsJMJoNlKjAFGzfAXJcSPveoxWOPPc4i0Hde+N7Xvv41n9cEyVTLompzQhhh3VFEMpR8XHzJcyWCAELpVUFUxVUzROqfZ0agE+xOYgWFXmy7XO68TEKUszZLE8b1MFhrtGlESkNWNmsXS7NGey58TWpMFmUSklRJ1AEqxp8iah0zfFc5pDBxLZXjV+IRncQZUNgzP4xS3bVhgVL0Y9U1mB+fqQ0hgEuRb0eUcjc/yBhghdOh9O7wDiBcUGBJGaBgKZvEiaElUbKSxPnWoou5Zs5BynguI8reLpuTJ2RzBZKRDZsorNq56gFP1SGtloaB25rPkdsAf/JUWhCTx5/ZkVfzKuvv1g4ckl5YKP4BWWKTwYgClJMaoaU/qibzj5uVEEPkgZ7cS5emQqxLrWbO8QGe2oAdjFGbAhSWRqNSwby1cbWpQIwyqVF1gR/QiLmKB3YDG9BzrKUQYxZVgkxiikSkozTbcwiG00gwWW6QXKnEhgkgxaQnACU+KU5IRoPn8/Fs5BAf0oOpdHLIgJyEEZRCNT+50XTCZryGT3/6M2E4kInGg2AUJRJH7nxKEj9kKWwEspRqauO35VUnLUq6IdmW/aK8BFieDz+5grt8Fz8tIvjIi3zbwIaqKMrTmUN8W9NKqE5ApYiiks8k0KL/KRDVCKctOKqG7aHkBhfEvcBFVPnJr8jihyjQCMRAi3/FFTcJ/2gK3caYI1L+ikLrVoUIPsKJ3MBHTAFnil9inj7RAkuSEhc3tJjuuUnptMAT6Tdvvptl7SeeePzgYC8OC5DiGBBQRBmAbTOOGI6CTQVDixuW9jhpgSCNg5IEmp6aChfOdiUkeOHm2QonU6PuqYsFJqlH4TpajimEj8AEIbQNpgIMtgcy1lAS0Ugad5JC2cGDA5SwL/MPcuMGAXNLOqCKxrhPCpbMAD+hM/KCRRFbSSbKOhBBaeZgylWUUvn05WdKsw2q+9OPKOuPSCXFLijuFtJOMHXF+tLRKateCFf+hRIigdAniyJ3a0JMQMdkgb33LnpWONQmz7MkUYoBJlqIspYPdMWCm6hffJrEReF0Y4EoHsoUJltYGgstjPyyAFgE87nVbVOUmhbyhO9//mwTjFR47hKTE/IJT+7vkIOXdfv2zXfeudpuN++55wLOHClywjJ4H0aOhCV/1nBJsp+uk3B8qxg5fV+GXohMWVHKugUAqid+lMts8KnXs6Q68WlZyQ2rxhyW815Yv2H/L/8SHNBhoIggOr1aVQ8SqBU81yQCnTQXngKaGaw3upaN+YvsBEqcgilF7ySVXBLhV6SjsjFwBD8ZyUJB6CBQgtIEpkpG8SSKCrhQGIWCZoHKEURAITnqHedEO3mLuiqdOx408gpRwSmyWA+OOiYF12xT0KCI7jqli5Ce1MebQR966EEWYd98801+KjfwAF6Sv2KjycCRTMYFm6JASor0aD3doUC0Q3MaHZTdAx5oWQKAqO+wLhxtiWBkC826oAS2/KWEglYhwtuCMxYN0pyzKToEt7NznGROfnrzzZ96xAyONM4BSbbok9BhYkh2hwSU2VBctKVfi2HDOCXAkiwXUonAkLFPeYmHz33hIYAMFM5xHV1fEV1GT3AUhqWqdXoeE2xRAAl2u1HG3hk2g9IKBP+RhsLYlzh/h5k4VeWWfngKr4sFbSqO2sWLF8kTocBVx0d/PeGrzgkz6JGi2SyAoTC0WWIjL4Yg8RUViVbgij3OFnh6KFaoVVpAgGoKWwkb0cXWT4ZUrRg2z0mziAGaDWdGoHRyhRXp9Hucn9AEOzR4KafAU3g0pvnk4U82+U8nozFLrniPnKSBix0F4KcdBmCiLndpaX0Fh8wiX10tukjwJJJpL6aT1QYESo/CBA8ngDRtF0ywNIfcJjpkVhhmK0SRlEd21I4kO0UQGakUKHjuzGk6Z2fXg3mef/3r3xqNX9vY6F64cIG3QRlV5mmH+TSQATe2aderzHrljMQ512V8CZtMK3R1nUhRtC/JanYDMUHBRuJAs9GBCCinqcw48iEeQF6t+oNJCMJNIUxJKIYyiVzQ7oMhHu0aOqdcuRWqdPNkfsaaNdJSiZUW25pMx1OnnAwSSecucE/Uaq2NLkZH1S1NKRf4IR/AInJfHoxeAx2tDnfSyHvwLhqj8/hkA4ME7vx0wWkHK3ZrSiddDJtBK+xecfIOFJjCDXfsclCj43wsGgQSW5RVZy2Klr1czmqMCIsZT8BwVvY8KqxmpVkVNqzqLCgsajwhTR9N/R6kURs0QtaDHxguxtNBr3+0t397//YB/UolgKzQX3jgLyTvV3yDm2SgDvAgHe0jTELAAANDSvGfAhSMcIYjC5SHiVgRasUMpZJOOOE/LYQ+cxMc45djFHBCAhGXQEARJSEFhRMRkDAb/YuniC0ukjzG9b5LlzY2WnljgzWc8pL3M2WlBvLh4RtMeJyVmddBr+HsNQ4FcHLmJgvFB0iYHVxSIIEYB35Uy7nPGLAiNh1XyvUVj6nY6dl+z3lLi85GjQhyfbmYzKdAZhLj8z1zHmtENLUxB4gZdA/o9TKOAjUnbMswkkODyIM5O76QezgQU7XM00jl1ZRz1Z30MHhgRSIIxlYRcBm9uVg2Vt67gYluxZNQBMUX9DOveY23l4FFvTqZiiLPBiGLMGFzjyNucNJNtTzndT4IicJ0nRnOLWuQcGHEM0qIjUMHcUyceaKvlel0xEjSatFxq+zP4LwvBEo6ujUYjeihMJWhgd1yeA2T8XReolOySrqcDMcrTstAMValbp1jkGYclaCUOXRhucQwZxy/gpiRT+1YPWsfr2ZHlf2jRg8OcppZs4mcyh4ZNZ1iOLJGCxnDWR7Q4gnLzCMbSzwGBtvyThOSYTmntNcr9azFGFQdDz2vhVYaORUpObMkQHn8nhcOTngkasFpHswSYCCeE0JqctZWtcpzhhTQA8oklDPHOL2p1aIkLFoM+mxcXeStFnvGkPFkPEK/6/UmPWLEURBVeALs4bkz57Eoq9VwMj/MFn2UFJ+MXkjgeYOt1LXqtI8CLoY8PsYQWfXod7wTDkVq5a16CaqXvP6FjtDGB3MA48iASbXSZFwdlSaD8aQDP6uVAW+IqVSaTpVR2rw/7s858o/V5EVpI8+H4z6WazTkWEUMJ4E8Hl1TYSaLEm9bJK4zLS1ynjeorEbzVa2JBqIpC3SrUc0nVV5UxnrjYgCrULQFr6IpdxuNme7IqjbpfXuxqB0OjrrHmvVazq71W7u3dREo4VxaK9dpdUCWydFkilJMMdnsLcc/Hc0HSBw72ml0szqqXWk3Wv3hPkfgzmoNaGPWXi3XOEiJ9XdO5uw0M7TpaNir5tXNY3m3nM9HeDxTNAkkW8324bjXr4/bdJhyYzxfbDW3J4PR7pTzPXg1W20ynJZqjUNktVgc326xqIEMljMPPWWgRNG2Gznfg/k8a3a32w/ltUsbmycr1eZi/hZVHn/sEg+k/vjll197/fUTOycef/IJPJQf/uhHN67fuO+BBx599JHD/YMXf/jDYX/wkQ9/hKNgX331VZ4o3d7eeOZnPtjMsm995ztvv/3W/Q88/Mgjj8Dxb7/wwq1bNx975NF77r93f3fvm9/8Jk8GPvPMM2fPnr169ep3X3gBBn7kIx8+trX9/Rd/8Pqrr588tfP+938AXn3rW98kin7x4qPA6fX6zz33r/H2nn7qqQfuv/+dd97+5re/Va9lH/3oR0+dPvn9734fzT554mRpmY2nV+fTm8PxjXn5elbuTSvz0XyRlevlZR1XcbycEfnlAADM03gwryFh6rDKvJhtHmujhaPJYjRbtEqVRvvY5DZnmjA1mPdWFfi320deq+2swUn7e4vldqt8b/eY+yVmjfl0RAe4Pppg8w4b7tmZY2+yfD6hJrOMCkemNOs59pCew/IPPbq00e0djPaHk85OC1uUl5fdah1HqdzNOjwzu1j2B71bA8Y1lKpcO7alC4Gr9Nf++geIWS5K01UFNBroNO+R4nHIRuYr+XCCmtixDCvG5j1e/rLIs1oLhFYre30jrxIaYosvQx5ODEiNx/hUE7r0bM4+uI1mvZs3WrVSK6s2Ml1AlkExEixolhgFHIYcNvYGvRu7u/i91XxhL52NGUqwv4zUPByKLTg4HE9m4zxvMKDweCcsXcJ5Xx7A4teII1JrrP6Xp5UZxneA7lcmw/LkaFoer8qgv80YMRwe7e4d3Lp5k6NO2d/ABO/w4ODG9Zs8BI0xZAfo3u29GzdvHPYOYSVTAZ7IRskG4yFzQR6hun79OksXGDmQ44lMHr7e29/jJ3b12rvXPEpriB1ZsU5zm2pU7A/ZSjs4Gly7/i5vYERArHocHO5fv3aNitgZDk6l3PUb7xJLYqzHXl6/cf36jRtUQSwc33j1ypV2p3Pm9BmG4NH07Ru3/nSxulKvEnWiFw4IMJdWjQiaVPZhejwQuxjBnAUi8/mT5aJbz9C2Macj646zH3vKeLScTDaaW0PUq7w4mkwu7+9izMjF7vaGw41uN69RZcKaQlZuNrColRkbraajsS6Hk9TScjJvMUZxfNN0nDGGNKqddkar4U+xW9EFzmY9a+RljjNt5XWCnXvDwWAy7SKKcg0XtHc4BsN2O2ek6FKCpwA/+ZlHR86wy3m1fjQZ2bsYs5nX18B7llGS15ctOKptUcvzarlZY79Ulo+mA95GU8Us43msqu36Bt2EkZhhGd0cj+dH4xV63W7U282c2dscE7pcHBzBPgIBPN1Qy3GrXAioj6Ysps+haTIfMSrG4QN1fB038DB2YNTnPNvLIF2azHnKlocddUk5Tw872io1jkMNvW0xg5cVa9WPd3aOt04ih2HpOkxs1I41sy5i5uTJ4WR4+tTpRx99FAefnzyKf8+99156+GH0AGXCm+FR/4sPPojOcRYHL5DygNpjx65du7a/v8e0gJ/E5fjJO7MffOCBSxpFD7RETRlYsHPj8ah/NOB0AKd4i9VoPDzq9dBxnD2Mcf/oiOilG3MY0KeTfp83ife5R7RU7B31eKE4niGg2JxLj73/vnubzfbR+O0bB1+aTa+XOABzupiMBsvmKluywafKuXsdvcRFDSkx+tbqw8VqZ4NOOe96vHN1itGuVKb96XSo94KZGZWm7VbO6DwtTXqD5f4RmuQRjbcGo2WjcXqz06zX94cj5t5nN87ny0pWzTbbm3gS48VyOJ2jDzvNreONrbyes/zF0TO8MAZU+9MJUm3VMmTUyOrtrJ7XeCyfUzGYBFW7LKbO6xs5dmjVzbd28mMZgWne1MR+eBb6smZtOz/F6I6wmUrMSujhsNZk5tSkS7U6PAEAtRwChi+5yEuNVZ0ZSJnBgBfpDRd4OFNcsaYT4inOztFiUmnU6vN6Xu12mjOcETAEooYSd2Qxb/F4bGXVadfyRgcPfMbj7WzqKS2wlzz4dThY3GY0mcwaldZmc4Puujyad7LSTnWjnvUOFrNSBetfm8yZC8K52bwyaXm+I87CcDkxvsgEvlPfKZc2ON6Q08jwOqfjtycbp9ud93U3u9neLsLG40f3uZgucLlUFdMNOhC/Yl5JMuziljyfXOEPRpvJPNM78vGHXF8xC9/UqCHaQwiBA4o8lRCZ4+fRt1NLNulxjRhBZ3vRPs0xFHjpGjGliolJijgQFz9z5kSz1Z4teNrkhcF4v8mwxxSuVs1aTyLuarPcmZVxzeqN6ha8w40vr5qNeidftLMqvMCtJATSXEzr5Z/2p73JdLjMeCaZ9Z/57RGja30+Xk4Xw1Yrx1gyPrY7sLJLGt0V/6ecZ8PFaCtrbjfP7R0d9ufTnawyKw+xjVm1vNXd2apUDoa7e/1ebzxgbarbaXBi5pJhnhktEtWQMeojjnwxXrbyfFlHyZuws1ZqTtAdgjV15LOcOAeZlb/0xf96MZ5PZ0Ns7Ww2HC6Hja1so9PEb88ZOcud4WAxmI8aOfOn2Opdm9/c3+8NR7hiHJzZatQ2Gx3ysERjTkaYT5hA1QkpVeu4g2G/6fZTOhMDOh10OsJiTrc7XYIER3McXd8ywHFY8L3fd2MJWGSVxla3q49dqjN84MPvj3u9FQo07NZby3m9lbWOBv0sX25kbcQ6XQ4Pp6O9mW+Y2Wp0trMd5V2dMioxKDQaF7e3f2a+yDmO8taN6wYd3GbBHJ2JUzym6moSusQpC4wmLh6F2qEWdk6UpdhTExteUMCIGSFmDAFdFbX0SAnm/kmZnEkzOXBdxEdR0TinqGhtwFELnUEioFDA+DCWJHDsAK2lOXnlZz74gRPHT+0evXLl5r8oTW9jzruL5vbxp198ufy9F78/XtSQaL00ZRboCDRnYjnJy9ncsUOEKqVmqTR57JknHnpsfnCbd5gtp9XF/tGojo6WGWsxRvXd2we8n302nDOadLe6/T7zymmr1WAylnXz1qp5vN7p1o+B8HA6Zi6GBA9mh5VmdbuxBZ7LyvhwNB0xTk5Xm82szT7FcanPpKe85HGtBr0Bno59+JkHYowkMYzmjeEAh6qMC0Gvb3O09WxMp65+4fMfYmaKHtbaGPUlsy/G7DzD/rTKS1xOpjZOPeEhry/LK/XRvM9ieImuriGYMvHt5m0awAAzdxmOB/Ckk7XwmWZu88GhxRWZ9scTrCHhF40w/iPuXXlxeNSv1Wd5xfWA/nCMhcOC630gucWCUbnTyjhqZXTEgcBDjhvotnPMZ4/f88nhqM/4hE2qN85XKg+NxyeWszPZ9Fxldqa0PFHN2uNVbzDenc6HCL7eOJk1tsdDztju0/8YLbFohTVEd+JSUbRnBkngi1qCwnGHqqIY/BkXYFqIxoTZgiUaSCycCxjGMpjIo7hEvQwiAh+vTHWLiGsYw8KepgAh+ZCa9BHfjBsS/E9NZuz333MvtvDauy9MhtcvHL+Ib5JVl/c9+PGfvHbwB//XP7/Qf/eXNk5PqtkX//y5d69e/tQHzn70yYt/9tUXvvONF2e18cc+98Gb0xt/+ofPb3V2PvThJxn6jia7xEm2tu49c+piv7+LD39q69w9Zx5hsKCjVGvNe84+yiExqAGBnofveaLV3b7duzWZjY6duLe1cWwwvY0dzlvbrZ1z4/kgzwgMtFqbF7BkvHu6WcnPnnq4Vd8YjweNUv3cmYc6neO9o1vEdNqd493N89P5mFl/ucKLIO6boJdVQ3onjt23wZjXcIcrbj2cKzer2mtmz0yucDRq2MtV4wCVKpU7mTEXzApajVT2e5MyCooZnR/hbmISmEdttJrMCQhsNMvdg9GwivtBZGW+YPmMOT0iXAyIx6tgC+YN08WUd2pixoldoGyeK5UT46F7zplzVImD4TYRIm3OJ8QsZlmLwa+9qnTZtcoINVvOWO7msa0jHe8pRxF+72svf/krfzIdjzKc8eVy59S5z3/6Y4881ZnXb0FaqUyAauTMp5VTka18IK9SgJZqpbp4qWporKEHzZHaZ7DP4xnQvSgVFkylUiljJCW+c/bEcdyRwyP8P8+0jEEPJUTVDCmF8qLG6i+1wMaGzDUPk0mfC6Uu0ED9mRJkzAd9R9K81jj48Ic+9filz3/1i/+g3Dr25Ad//YmfWX37D//v3xpNfv5/+18rW5vDX/+N1c2X/ou/+/c75z/8zId/769+4T/+z//uf/rvf+Fvv3P45s+/8OyFs+c/+0t/G+X/3X/67zF0/ge/+jvEp770Z//Nq2997WM/8zfvu/DBl378L57/1v/y5GNfePaDf+PytVd+95//vXvPXPrVz/wj5P0///5/xPTm5z7+nxGAeO6r//20v//0M79+/MSDP3rtS6+89kcP3vvRJx/75es3Xv2Xf/KPTx27+KlP/B2GiD/6o7+fl1r/1id+i/Hwj//N/zAcXHvyiX/75PEHvv+jL//wR3/6ofd/5uGHPn7j3de+9bX//fzxh3/h5/9D/PwvfukfVfJO+Y+++A9dIC9jLbNJecKgzNJLzsynXMWlW44rpzZPzZaj3vTo6KiHbjD5IUDIcNCfHrUz9lAQK6nnhOAJeun15dcOb4/KU85N7mLocN50nyr98ZA5eDPnpUKcFrDM87Z7dIltsciez1rtZn2FO1vnFCaEZYRnMm80WlhEHm+sZGMcaqwzdme03B/OJlje/ghTOqpU8+32+7/x/OWXn/vXn2x2Hmq2vt3vv1BvfPSTP/+BD9RHix9P3Uy3ebz77Hbnydu3dl974/VRf8jY5zCR9Miv+K9d8wa1YCUi6Rkqg9MLzrpZoUAuEZGoRjHuLU6cOP7ss8/euHHzxRfZkT9w+HY3lMHL2LYYYW/12T+cIeYsVE9XssdYQSDzEdbT1QEC9zubxz7w/meQwq3ePyuPb8+WFWY8m532iTPP/B+///LlP3/+d6qb99U7L21kX/j6n/87n3ny7/0nj22e2v69L/3k7/z2Nz79Wx+78IlzB/PeV/7Lrz/Yfvyv/8aHDycvVUr96ayB7SFoN+vvw/daI9vcPD4d7TN1Gc8b3fx0b7B31D/IGs0L58/WFjPeAllqLE8cO4MVXExHnSznVM4pftTiNoFsVOP82fOEHJgojIbzZvME8t1qV09mOz2sJQfaT47avGOCwHF7c9jbhzz8sZ2tnfERM6hhfbO1KLcZnW7v3mTBMOxhNYPzMKyZNTdbGfEWjDNOG/twm7VGBWs5WeaNJpOL1dGU0Gqz2cACTWfEyXnyBimVETXTknI148AqpvGsJNX8zXS4MZgyRs9RSoxElYcLFE+5tWosKvUpVpaHD2vMi2u8N2I4HxKYIf7HpCDfaDKLngyW00GJUXRSJgCLJ0oH4KHxOFiMlxzhNnJYER76YvlotfnZRe3Ro+lpXsXYIP5enhBen2Lqa0QToEBPkI3pyNypmeaIn1wx8qqRmkJVjhzd61he9ReTCQNZ6A7aEmqKUpKOPU2Db4bhcouott+QFlA8CcY1olhmi8VcNR1zyNSEBh2vY3B3RA4sSBAX71XXQAcMtNmsZCyH/b3xotGsOfwd7R++fP3o/zxeenw0/ZeXbxxOZl/53k8ffy4/ttP43f/nlb2D/nf/+JVpZ3jj+vjaS7sP/1x1OD2czo5wbTaa+Xh4gDueM87NSwe7h8SPGX9odjkbHy2uGXU1qLM6GNw+nreb+D/L2d7hLpLoNLus8rEctUfgMUMjGHWWvaN95okeUdao3zra7bZa42HWW2KuhvPKjKl3t9llEX/S73WZhJcqebM2nvWyTs6ZfkzoBsMevZ0AMwCYktfanZbkc2Z8pcwEH5UfjvrNxhZhDpzd4XTIYM82qWartdFulMeD0Zh9o+glPiGR8uqyVmL/VLu9OT0allv0MY8DYC95bzrlGO8BtnI0JTSPBULIHuyNu1XBoyAoiW6uskpO/JJVxFvT6a1hDyc3JwSUzStNDgqfcGIGPu8RsQPEPDtiFsbgTUfsl2eeqMWTwZqX8tFsycEFuAL74+kQl7VEi8xvmL7PCIHiwSpZxb92vlSG0EAl79CMC4vSEfHB/SDoQFDA7Q0xcqtvOP1qiqueRP7d2gQ0JjcEK6DIVQJcJUaRsGplF2nUOYJeQi/mwtR1i3nSOBsXhfRTvxDIKirZlDfZpYcxPoYrIqtq9s7B3rI9PHHu7OY9F75Ymz1Xqu61zt5z+jRE/e6fD3lWfbd34oH3HV/2qm/8YX/SX96z88C5U2fbG/WDvfJBf3b6ZCkvEdRqsENko9omWDPCfWk7LOTNervS7PdH29vbQ97SOykNmOm7eOYyG29pKk1GljMqO9uodrEyRMjrTE3L5W5pdXV5mDVq7VLteLbJghDuPL5ynXA2a33M5nFy6phENox5sIS8Yms3qymsS/MaiyaxoazWbDMl4ECdbDlvVA2mLngUhpWTLg5+hsuHu4rzkzn9XU254TgUhm3Wd7NK5uKK67+lLtEXOIqXyEerQeCL6QjuHzPJMQcIkthkWSPjPClkWHHZcsqmno2sORkRAhsz+6DAYpjTKYfoZ6OSG9ZY0F1Y3azkGNZul8k0Cj2bcuT9qDwfDgzU0wV8+0ep9p0R5mL3bK3+xmzWq9Yusui5NAtPEFXAhKE0iD0Uj49wzZBz2KLkHeL9sdKAGSYRI8ecAo3AfKNsGAgK0mE8EoseBB4qpHqCLtO7uDS2REtigZ/yRMOwYc6DVEPbtTjtFkpoIldSQT6BGNszKGO60zquapXY45jwSbVT7bKeNn738Mr73//kPRdOIaUcvi4Yf6pTDwpjxR/m42IL0wNsCEQvVyeO80adt451O5PqrNNslhpGp8erWatSbnXqq/FiMOa1O1WWSo7lm2daJ9/p3cJ1Z2gioEuAICbvzGKxCNoQXJBtnn/JNga9QWfZ2azsNFs111dqS4Yc1qXj/QbGPKqZVBAcgS7DMSgC78NhxKhV+2Pe0s1GV+LCjGq8LpJ5La/EYMuXQ2jGOFSvdAa8rY/RBmeOHkz8jSl2C76zO6Jawm1kzr4YVfMGc9x81ViOBmVQZlmoTmCzftQ/ZHrhyXnlCo00qi2CCPNZv9Vh/aS6GE/qhMLZJlle9MZHtWa9aZR1NpjNNwiBMpSXahss3C0WQ6ZRvNSjjwtVxzdaVOfM6LvV5qy/GLBcO5suy7MzOwQU0RtPzGU4xGF9o7a60SrtDRZdbAl2DFt2QLis1OigIoQvYjSFNyH50ERn4mgFZtClSp/YdZ0XxeIvxmZE6dCKDUOXuFV5heC/gABgozlYo8hQg9xp4jcagW5Zh3ugx2wHnAAV4/LaCgpPLXRBXFyIJlLF8RsTX+owTjVWu1cuD3t7WztExA6H4xdCTfDCMTP0jxonKK2WBCsq+gblfFRdbNW3+tPhiqWcyrjCSlK5ttnsrIip0H9KpVu9aacx34T/UKm3ohlnfoyrspXnG40Os2lmSLzJK2vlnTzr9whqzOd1FuEyzduKiO9GXufNeFVePTOuT5qLahtzWm0eDiZ7/UHeqkEMTykQeONZDrZeD8dLZNRuZHmzgd/FahCbA5rNTQyN3MXxdJtDtcmyICtxbILYXLaOJocE2TEH3Uo+LA9BDs6w3D6csuucE0sxFYzEjWYJ04wj6IDTcCMGup2xQkKYcDIdNZlOMNvGoHS7k8Vib2/Uxo9bESBkH0e11dxEKrNxebSa1HE3q+XBaMZ4tsniYKt6/aBX4zhW9gFMZqUphpEA3qK3GreY09SqI9blMFXOokt0gQ6HiZdXlx7c/nd/7uyT9x177sUbX/rxkO2KreqxYbV7OLxZqRIydNfCZIyGG2dxNyaSD/mjJo6F9F+/VZ7QMvQtvrVdsUHG8Rd11aWkE6OCTAnRWASsJiJOfWzcG7dweumGkpZ03sasHm1ypxEN9Uxl031ANthHHu6iW1HwuWD+qn/2ZDaYEEBjE0htMemPb0+3tts5uK6WkypB1woGCX5XyxnROny24YoNCiN8HeK2HA5I76pVc3YAsGuFdU+6G+PsGJe+rhCJ9WPS+0sWYkqMV2dOnr3cu4l/iV9CEYKqqDpDHm+7YBF/vKxgejmGfcj2kFK2GI7AuNzI62X0eD5hvWo5iYPgMuYlzCWWzChYJWPll+At3WLCciLLyZ7g5HYVopdEMonUHOueyon/EvrDfjbKrVYTIzpmgQTXrzojoM7aWhmHFFeIPSlUqNXYYHQ0OEJ0hNgZGrrdNmeesbZLWGUTF4CNHnpZDNMdrOlsdjBnhIiopdNjByXc41q7tVGdl9jcOsVPZe47rnTrTWzFhCWV2rLddpmEMA6+J04BurkYDFi12u5mvNjO9WN0aTYjwKQTWpo+dmHz4x/afujeZqmz88ohXBv3JleniwOcVKyFQyNOic9zw1SnGqhxmCnnv2iHChMqotqojCqM3ZQrzFPSprXqqIuYYIZsxAtD+CxiLvRdbZnA/AtNTFY4VFxXMqZJZqUrqabjrxUZoxiO6Sr6iU5z5kteCNioZVv51mi8V2OdPatvbtc2K+wFxMpVJnmtXa9MGh2kDNq82bjEVKA+Q3vLK/Z9EezIdzpbq1HlYNTHL+N9YuwQ41n65QoHrL7JBIJNqLOpLwxblbNqO/Yw4fQ3aotSk10RFeb7qHsNgweplSyfoq5zNHyFB84cRubBVXwQtkpUlyc2mIrkaAmcbBLgziqT+WzciPfl+jT3ouHEgfiz507BDkZlOFw7tXMBB46gebmRLVYMeEu8DPxJPCpGScZ6GhizhD2bVYhv1ojNwFXMU474WENEW/AeRvMxUDea1eVkkZcbfIwnwxULfkZu3SpY4znaeYWNT9MVsXIVaMrWJ4x7BVvXQIUHR0NWo7FWpcbs4qluZZkxsDOdYdayJIxYIY64pDMTx2ii6OP5rF5jh6e2SVtVe/1G7/tv7hMY/86P9y5fHz16jh2P1XmdjVCT3i5zmvlZ5keET9wQqSWDRO2VlEboBGVDNR0L1R00A+ScXqiezDMMGya9ivFZNfYZD3qDpxARDtAvmQ3o38zl3b6OIXOEjWlPisJEiyoeGsw9XPRHqGlSRAsgHJ2fNONBPAv2RAxYImeQr/Yz4qu4ujVegYcGVYalUh9jBYtqqxPdbIwtGs7atebQ1WaftWXzG3sSFtPK8Gi8yVJdo3rQR4eZamXoQqeGl1Qn5NLK2B7Aoq6hJXZD7A5mG938eD0bsVcDU4Quz3ircJUNAfifsK+9vcEh3vQ8zCzLKexX7LY7xO+wNE22u9h7dWzgCNsVsNfYALoIC53OIbSD7I7ytTQcEsGMld6Gca2NUAG6HGvvBnNZklwSslfbUcf5crqasj8BQbhdQFOAD4HS8BJreuCynPFAdWU0R90ZKukc4V4xTWo2p2VWhqYMwpvddondR/Mh9nsyZ5lmxhowm7ic75eXrLBgpJpsvGM3R5a3GzkLI8sRIx3zUALnoNlYsa4yHLJPbjUuN+Z4JvWjVY9p72a11mXOw7BcKn/31cPX39zd7lZvHA4bneOPVxdsf2gwPKJ4BMPof7y4mzgKR8Yj87B3CBxlRM/QthghUYHIgUGqB6OhOqgc1CqHY/UTBjqBwbb6gACbDt+5/M4ue+HUJyLinqbluBwWlepOajSA6lsa04Udlxk04zYI3Vb9/9BEmBzFbR335pBw7nLarWVdJMssmzMUcNpcRPCY0O1Om21EbC6mg9XyOvu76tPygeurTDHxzkvYI7c4LSuNTv1YewtXor7M5uwWJY7F6hR7BZesNGZHpdmQrYoYNwwa2xh5SyhenRfiQknL7E9AhdyUqVODc8VAYUCfkEbWaNObWYCDXGYFvEcXbWu3Wuwec4aF38yO5sm0kzcJLtOf0W2mLGyKaRDpQcwZdqYEQb54N2s2yoydxLoci+rwvlbP27wkdsYuRl09BmDmGt1mq9xktd5j/sczQnnA9w25LBATZ2STLjtxmIN3mi3m3oSf8fNoaMKRvu54y4eDVX88XWWrHBuKnsdbvfDWlFd5yvJKI+/obLFhkyXK5bxdW5xun2cpqV8+IDbkSMJO7AY9/og9PqVKxhm89DbC4dmJVmNnKysfMi5x3ACuD/HEJiMmjDWMp16EbqhLqky6oNWJgcOogygXWrDOjF+kgp0fqmFoW9Ifcg96h88//zUHfOL5ebbAFFJUEYVZSzUDalQt2nzvVyg6aq22UpfGiQLBjIQRi6csM7Gx1y1Wq8ohZ2cvmUbg/DEnqw4ZtxiGhuVFbURPblbYiUywCTe9ihiJlOJKEs3gwRN2xrWyOEuEMw6zynYzG+MeskUaF61U7rFXgMERC8OmJgJEMgKvrj4cs8vaEAnbEeAR/GSLDcqNHrl/q1IhHgP+VSaX9EuIxlFm6sg2Y9bgmCbUfKQdR9Cxnvhh3uLxC7EprfIWq8HsZ+Xl5myqYK2OQQoYuL2KBt1ljdAFADiLy4mtZtfKsN+npxHP4hlAca9hyQf4m7SA2SAUwxoGWxhYy16O2cRGTHHcYfhl+G/vDOaHI7cAUlpksYz79EzeyLCojJm2sOugQsDQFzkjCIhnXMQ90EIuZuyMKtWXR62jvFu7cXjE2O0Dr+NZBw8lz9krUQMyO8iXjTOPnn7fL5/cuW/j1kv7l5+Hw0zOcGboi+w9o3PhgeNaaPTUBvi5vkI1kb0K6IRCHsBONpA7RNORKZjGT5SQaRnqAM5qGmW5lnZC1CZqyj5kECO9DdlcNBhAvEdmaJsV1WavOz9J5t64ZECnEDqJYmy0O5XlqEU0AOteaxwRhSCGz854nCc2TDM4djIEBnaNsgES9i62Oh2WbkGGSBO0EfjbP5xsbjpP2G5uaZSnFbYoZ12s3GJ/4oFsEywZAABAAElEQVSEBMJytssx8FUz1mwJsPaOBr4v0oOZ2UHCFmuGdVymCYPo5jYblypsG0PE7D/ngQf6RTNv4WU0Wth13+2NUYaNbHViZcK4AbQzrBkkp4uwONdqVFgrIRg0JTrL8E4xpkowBQ7G+Z4Iy3eJ+x45NqAzBLqhkNkQQzwbZxh2ayuWZmOEpl/wuo8OvHBdjvB4005TzXE4CRoxCLSr/erh9GhG8Fv+lmtGCyrDSanJRq2MYOWix45YbBcDJnh6bB8O4cxd4jif08kB7xZf3uiO68PBaN6Y11iSw99jxY/AwIJNGUa42T6Td1f1E7X5qVXtRr3RmroLir3sLKlVmYIrCTRLO6P0VR8VIbQhRB+/1BrUgPl3GDK1JCkKBX2pYdSgbxsxCBh8ksow7h93MQuxGNWEHf/UMy0iP4tiFviLF2VSAh2Bnr02xRix5WA4nqxm28TEse4lXGG8n8msstget+Ffp8rGmQZB1AjPEcdvMNTREezcMJMnCmAljxtwPiwLBI7kBFBZVaOfr9jHz+6XNuuk09K0Wj65edzHFJyR4HzqjGHWHVXQGpSlUt9o8xSEkz121REM7rArCkTpjxhqhtzFijgRa484TolcVslw8TIfLzD4hV+IH1nPmqZKJI5l0/kyR4Aw6rKkG2aZfotZwsw5fZzPiTeWCUVPa76GmQkCSyo8g4r/wXxo1eDd1egvK3hwasLSEgaYZHoJJo3lYRqBcHzQMfufWRuhbywIGPkAX6VGh5qyThEn59LZ2G5ZYT6PFWAWQ59alSbu3ia+zQagBeMMXhgLdbXT7eOsVM6sTC3WUWZ1ekINffUV4G//6PYsm+/cv3n5h7fnb5UfO8f2e6x3xjIeK5oapaQIaqAiVysKya81AsVhZhAjoXoD91U4/qNGaiQf6Gi6KaqSl/TN/qUuQR9bvbBHCT4KrTtpMaubSHn7uGaPCnxGRnFjOoWARm6EFcY8c8IMACdF28fqgvFhRl56FBxkVOKJI8KoIMxw4ZFcxHUZlEZsgGIHepOuscHO+vGstVnrbrQztqrS5WsO5YT8nb7yABAO36Lcm/AYHmIx9M0mEaRcmVeZ0fnckE/l8RwTwwIxyY5cYiLP8hjaw2Jbi1bcuoFGNZs8HIgXwHoXbq7THV8OEyQyMqGtTLwwjHh2UIr2Up1pBixyFQ73ij0GDNkcG6TB88xcecoIiacwIo7NnIdHpBydeAQOn5dQPWEWlkmY5TNKsj0Qj2Rs8NTFBQxqyfUOw0LMNIl0lXIcuFm5PzjivrtB6HF6MBzkBp4QmEMQWwFmrDajbqgH4fH6DB9ah3VS3urg3vn01Gg5O1yyiw6mEagyRNksL9tZfmrr1PH8bO/FYf8nA3Yn7hw7dnzr9BbbUSbXjkojPCsiZi5twJBgiVRISnwmXZBc2Bv6ogJ6iy6ovdysa93Rm6hd6FaC6oAfqkaWtdZ6XjQkCAuSm4q9FxSmSz/QrJCPbavK6B/WYlp1LsZ+aAKFzAcYtcaLKTudUDoeeEXJ2efYZPJFrKWZ9xd9dubxVEYtqzbdVcqccdwmHDtbDXb7G002ozI/W7K/DS2pEHvA4+EpLR4loe3FsptTIJuwqapeYY0KxmFLGNVZkZuN2Klc5QEwmGmAJpbWidFXcyQ7c4O/+1bwxQFM+FgvD71EpSGauBYqCYHQj4lh7zPdlXkpGkYGGxhYeSG6wxZA5tY8ZsmjVYy5PPCMBVT1mZDSYejOPIgGoYR+iG3CK2wxs0/6yXI4rqA89KAK7xtiQGGSWM9zN3+DHN4qe9FmPGTjYlClyTIhsephH9K7rQ7T7FatBkQC/fi7WC0Cit02C3utoxGPDKxwNVwIbpZZr2RB5WDIMfYYAp49wBkduNOCGW5174kPbj/46GdYpkEVECZYH++0m/O9XdxP5t0dN2RwWRj5elPogqmohnMCWcWdUSjUBH0ycsdQkopY7o6SaSMpS1oYM2cTWkx1yJrU90nQ+FOfUqnIJV9tDWlYW/BJNfnUiQ/LSR8wYs1ubTa5MxVr+4DnzX6/VevMBhOmhugEXpFhrmYt67QBQaiNwbrKPnnW98vteYltIGDMItZyMDJGisMzLbEgvzrsjYjCErVvd5s73e3xbMiTe5nTQdAheFuLRQl8c7YQqFLOYDUrRAqRJzOw3AUntsjjErlQiRb4CCnTYSg3bOhTqcmfhttwlILoLaaUnoXycRlAQF1yZpTYWfjtUyJ1nmHluQCizTOoN9s3wNR46AWzjeVjImAclcLMZbDeDKbs+8M8MrIz2hMAx4Xj+WC2+/N4lKmouBiMx8BYbfJUAbtwjZ9DIP7GbGNjc9afEPbdyGtsHmMWQgR9K8PDyzmiB7NdaoObm4OZsGXZNptuejyazLoBS5w+NFvnUSZWbIgXjspDngwiipC142l1+IVDuFoOZ63yIuO5smmOemNwGWswuI5kXDI8CT/dJLVQrSDfL4wZFiAmCWoJeganDNZ4UYhEC3M5MqLVZIY6MQI6nvJfZYSDQOJPtUvmkdtCP9f6Jz7rC+a7nkUl1NDouhsbyvulKQ4e4YTG/9vcvTZJmlz1Aa+q7qrquvRlZlYSZlGEhKRdhR2E7QABdgTIn8P2hzJhQsFrE8b2l8BIChG6IAJ4hZFWCi5eYS07M91dXbeu6uL3P1nV07MrMIt2Z/XMbnXVc8kn8+TJcz8nLxlBxj32gVV32bVoB48oxvz6Mf8LMaHQji/OB3Rp9LM3ZXyjm33yU689fedaYiFOjaPMo0MTw47vlhwFrB/IRDh88rtZOu3WdrNObOmIVwx54R4gZyZmvDw3kq6kv43kPAWIZoohGsM+jikivKY2E0AUoVbcPKx/kTugM6tcQGP0wcD6jwbjgainHoYeCFsIhFcBDdxLGJUCn6JJ4/YqoOuN1zF2C5QdUh74mL1VLt7xbihW0Vo5GZFcOonhEY7RJy7yPYqaZbZLgQh+SDIn9QXVYxgRJC2r1CqkJTMTdjYruroxzXsx0t7dWPNLc4s4CL+OBBORojM9OVqIcNjeLkVedPt8KLPdjQ6PbweTRH6Hsid9atO9WV2tB8Oz0dDCmM1XfSawiG6AEBA4CjOgxj1SNWxyIhwYVuCSua1hULAu34MjOQMkDbdgGZKEa2g4az0wD/JpBbhCStG+nMztL7Ct7n/xs3pBucmA01Jmyi35DoADqT9C1MhhWOlqM2QJ5kvqsAsdPXt+6U2383V3sxxIlDrqb4COD2M4uVmvBI8okzQ4uf3ExXR+baItdErr7Y43lxMZrmQeYUdYhN4bnBQjtITFfTJ4LPrJ2G6EUo+mIX5YKlFtNEIOylcelkuqA1FmP0wwUVNZfBAqpAtAIwcFXgVSYzLDBoVs4tTR/4ET7uUMNE8NjZqXMC70kM0xvWK55u7wTrmZazFAHILoTZ/iLMYwkA8pTUQJ47UBkJDH1qVS0mvpmBJB0dXUx2OXjn6UVIzNYNd7zNfEdTkXN3nDwsGcTgCQREwFGYy1czaMi+QyIuuOkZOnhUbXX0vF7m+te4F/3MHED3mDOCkPu0V8At2paGG0ohYT7zOfbZHd6UhQ2XYlfmIYrVEWp/60KQ8e1DwX+ph49Kf8IzBg1/3Fz37251//+W984w9RwbqxIV8A6kFH8Le+yFN+7clrCrg/f35F2NBpc4eKhgpiBHlCEwE09hYU3z9XD9dHO1Of6UMQNpzEEzrSYfJbWL8ijo4ksybRSp469B50xivBbZL72JM5n6AbkXgUmoyvakK4gRmSAa/k1wkzoKTkO27isfRv7IfMLs6PCxDkGcUpthCzQ8J3kxoKRCiBfAMZcJaBjpdGAeWST6yLsAtGqnFAfhNoaIFgwVHswhZQjDARNhdDCI4VEIDEVWPKUbzFNU4mOBIQ00fwZNwyPFsf2BlRaVJJlnA8LXk2QVmc5FpGyJSDMOnMiyznYdjlYhYoA5D9IdV0qIXVHXfFGUYbQEOjFad5hEgohWh3js8FeQutYe0ZdGar+Bu6jIsng5XyC9vEgBzTbjpDk8gywww+GU+3vdVs9Vw+6ElMm5zxK2mmp8mJ6YuykJOKuN+I1xA1xMvHTH18fCOgSBgGesKHY4k6xaoaChcUCjxMVNG3EoIjzRUtlPaBsog4Qcj2iNeQox4MIhZ8jX9zdnpmR+gf/ehH3/3j76JDrqXNWMWMl/0/R7UCEnlwj5Q52dA45xw1N02aNNGmgIybSPNHw1MGBFzq/EQ+WAIPNgzHG3Ekj1jOdisosZlMrcRkT9VM8STG73XafyThFOsw1VCY+0Wy5KJ/1xsPpoyQ3WNZaPqHxY/CiJM+ddwhzQtZOIrn+o7GM8XulDqCIFFT7LNsruEcFixSkdkPeiQOKLSeTKTfbSCeCeGLcBifEMAz8ThRQ45gEiqYuMwAoSbBO/dsID4pN2RagMGLOZ7NHYCGNYBZQSUp2ZwVnASUB1ELsQZrkPwMYaX3Mm9pxAmrgtVHbuJyteADYdmc3zE99sdE/ru70eQMIt6sZ5frm4m0ElmbPIECMiTYcWermyFGt7tVLg0cpMRExiAbExo7XaYlrxYVLP7i+ep6tUa8dUhRFaIB+VONm84oWpmQkN2z1fXGGuqHtoAipMrIa0ioYn5k94UcsUgU0XLVVuJ//n/+HP3KrYU+bsi3hklBmgAlzMQwo77X8s6JmA2j14VVWBcR8JyD6o6HiFdTkpMOjbef1SNNi6ipXka+7p4dnyWfW9omQTsBTjsGWoay0cno9IzcMDOv8s1mWAi+RLqjHPf46xETGiiaNVjKTxaEJJu9O5hOz+kxMAYSJqJZaJ/JCiyOpGCMIkAdnYl0x7MTZi/OWDaNgZlgV5BO9pHCMRwV5/VBVvJWKBlooXCkH3DYk0bTEY5pYSpfXGiqsxGKDgOvb3zE8QfEURzdzRcQCIajYNCejwJ8LC3aljNm0fXdsMPzRw0I1/NMbXp1Z5Aw5uz0nEAI2XlUSfUkQq9JWpNcr9h+mU2tIHkMSZaGKv4zU3yaPFMxDx3dDTsncxYc/vr+HYu1aNaLVB9Bc3ts/cvd/Pnqhp452PaXi9pBkJmVJqGqCuW5p4wB+ZuCJWi2z6dYGXUYuaUGRMCV2S1kCVJkxLrhtRm6ZVZwcj5qrzMltgSBG9Cy1tsRzhtNz4Wo1dWSdtImbA4S7XEub/PPJBfSQ8g0kgfr8L3AG4/tvuW6M5uHR2QXqyQkYwpCV2r03CVsXA2B0Yjx7HK7fPdOUBuqhJViYkfyxYfSHRMCcwRVBA+bgiMaYudueT46V0RksZqPj8aSeEIuo6wLYMdKQ0a8PUaW3UA81XTMKYDLMzpTR2nUWjCZXLwn9DxmMkhAkIN/pDUvIwFkUIVq0K1AbXiRAv3JJRjKQ2jm90fgFrAUfweOGAbhJnJLjQFwDFRdhGBluJTWE+ngNl8QSQUaTJCcE9o36gEK8Bxkb8VUUpVOELpYjbRD3oymo4AAY0IqnHQnu9E8GouBiNotmotuCNuI8ZNIamWJghXHRQTfUu8ZH2VI3SwVE4rJpoIuj44mUakkrs5n8W9PBCpyn4osSSmh5QJKE2X4Ze6O/9qGrse34smxmq3NGSahIhEPArGM06iCPgS4hMcALK0mKOHCo/Pzi0cXf/mXf1UIE6dIu7cAUoD0218t1uFb0M9RZM981LvqTXV7vS+NAbz262qecdFDaam+F2bqWmBqdp2mg7BQXc+vQe21i08JlP7Rs9W7q1nvbDM5GvKEygMZTTtjphDlsqi8QijveMdOuPclEfOYSMHEcxkQ8w5VDm7XY068FAyJ5YXKAiQo+aA/EpPIcdAfTKBTbN7MeiZF6OBWpmPqSRDaYCWPsTXT2GosOMGowiGNFlIW7jU8C5iDqUEx79/jJPgULJxup4h+hafBQx3Nug6LBvYIN/odOxYImB8PMsRkvoOTOwwXM4s+yLaVuBvmAl5pPFp8f7Zci5MTh3WDsVZ9PAJy4I8/Q+eMRNr9ZkjzAQR2F+VjBGqjrpkHdsBIoTucFy9IKO+wd724ml8HZnD97pQhjUJOzExRvbxN8QxMaW3ayKE3V1jSsGOuOPZTFUjMAqAWwQ9igEAGASsihhktMOlSkKSz+/V//+v/8otf/K3f+u3CB3Cs4buWNRfIBqLRPoJA7QgGxvvnWuFSbJPRnfMr7CncOQxGiyG0JYXXk6578L6R3FDP1KtCVwH6+nI5OhqTeM9UYpnsLheX83cX49PT8YR569bWu+wPE0ZaaRdQt9tZSKk42k0G07vOGHC4n7qzWFiYZlmXhYmk4pF6NFRvhkdeMK5/+HbKGUaRofJSDpOWbTYtTsm8AY//uYPRi2gLbZEEuULFQ+OMIzd5XVQV/c5AjaXAUUzYKAthM8D96TZsMi0NHRywc5++BlSxiGLLmRFLHC6XG9CO1CcpG4hiYJ+5SMqFBqsN5koMJR+yqjBlucNvAYtmStWyFDYULJPwCoDgBlbZ4noFmyJfeNVoikxBQWlSCC+UoYW7uEmiwhH780CaFk7NffV4oCqFshJUfWhLWDRKUbQroYfSldRy429SFkfRpFSlWLEh9T/df+21ySe3w08kJSJYl1XsyOgKk4BMIy40wBiw71fP1eBMESNHroJKeGwMAYW89d3P4p5ByZAuh4VT7VbBPhMC53EBXU8z5iWv3CNdvafa35+oVnIi+J0jU4rjqFDQeXz2GMyVD2ABlNn26Uf4ZXQwuTUAxlVyyn4xlj6hMJfVm+BVVQkuJhebW3GHQjHFcxytRGiM2KfZ2LpScsLfEg6x4TihdfCv0cShW9N5ec2oBpwfgveNDaIaeSEJIPob3cOFMAlmlwApCJReOx9N/wEGZjBBwIC+fS9amK+HI3adIqFOAK41iqtqPehNVS689hDMih0fOvJwq4hIqAAAL4NeTAUbATGpsGElSWkWrZ8VAaVlpaBAC7bomrNo3nQaS5CjPZ4XcktqSYUveqVMUg7pBDSYXlEYsSyKU0NZ2UHU4xEmt4kEiK7txFjcRVrMVhkpJ7ndqPDTP9OjFLSbb3tnx+NPDx+/3jm/nXM3R+iETC4HlghFsCWUaQ+YQiQohAMY/re+851vf+c7+hZUbZCCU24OKW/EsJ11CviQhrQcQoBu6lyO2GoK7jmT2SFQR0+8x7Z9C3lzgKOFzFF+5pu+pIsiVtaby9PHF5JLyLjCRbwMkz2dnIPw8+2zqcQaMfAsK3wM67mE42FvsuJhlWVr/XNl8bgyqASnyHBujGHDFAioPzmZkkbKTYgaCEM5wk3oJJPUXdnuo3fBCuXTfYhYsmOEvIBFL4ux+puRA65TcCSAyI0H4Nb1XNwP+Cf9CfZn5HVk/usriDnBMR6gaU5IZ8xdWQXiD0LYRL/ml3nygTYFCnQPQeS4JW0GjBKnJqgav6PbW2eJaWUnSQwF+TAkNxI4uh+7EFhZmZBX0bj4gPLkmlVGRIiw9uPpYHzTuZYLNhZOIYKWNsz+LWBWJiJ/vMoQcS5ek4zAu0sGxXyFX+x++M4z1SUfD19/YtN0M5thFjhMdOQzg6yf7RuEyQ2mJgXxqPx1c66RATwHs4pshpQCufNAXC6qigHJNGhQG3mEsmRea3YKnIWkMOu+Tfe0A/y10777EvtI3QSOKMsQv9qsTxVMEUYotp/16nbzdKNMzwkfCM40my2PtgKKN8kau7m7OLeF4lZcL14hsnKxXCDI9BTJAtRdNjCzLMYYlI2yzL6ictCv5OViy1xh/HL4XIwpWbTMHWSzNmIjBBtaYKxaIUB7IFjXMcUhPNXxPWQOVw9j2w/3J/zxphxZeTX29oTPBzMWfZZYVWueLQC35GgOgwlZiYZMCckiMFciXHSNLBPu1QuVU2cWHwvpJqCwqKS+R7x+xGqrO14dDqe1JOq+mHX2GBQRAo3Hk85ocC0mlmA6YhKi7y038kNZz0TOIi/CWsWQREfazlimZVmRa+fJ9xoMTs7HF8KC/u/yxzM2PGmo6yWnElAFazLDRbVi3vWPrHo4Ggw6nS9/+Te/+OYbX/nK77gU4lf/EIAG3WBg1Du0aav62/e+973nz59ZYDEzhBgEF2Fb7K50WEDxy5NpfP+qQPzAiNOdOnzJYK1e7CNn00+xfQwsapyyi47OpMBZl/0UUdzedMZi3uWeIoVjYX+0w6Pb3kag07I7kSa22G1GsBCJSJxDqLziapz1OgHyXaUw+OEVeis6fSxZSR5A4iDoKzgVUTH0L8qrqQ5XI99rJMAIhja0Cc2LlB5uG96nx22UBmQEh0XdBpMx/UMHRSPHARCxOzSABXQBRzUHfCX6MTNRZ9ojxgXUbouS5wdjKkLPohmrT4gACoKWZwbIRlGFBb/JLFAYmc9aWZHSa6LZ3PUZT4exTnG0CE9bXF535msuaw5LqJqKDeu7m9n6RhIuu0FJqWbEmha1lXpjIVGEl96JEt03bFysziejcb9/sZySk9SSOJXdyEMfPlEA0pesCypaUa6A7uGRJeWiYR1Q8IA/D+8KyVQ15Zvf/FZgron6bC2ZsmLHmomYU5fgbXuRz9zl0zzVfJEQYqyJXPLgTdD36mZ2dXMJkKlCFoNV52z6+Omz61tWGVqigMzFenImzpB1lLq4Xhx1x6eKILDFiAVQAINdeqxGsOWmdhxEhWBKBEkKyVIk0xmDpLMI6SCETETIM30kr1Q1hFoR0MItsxLLXhgDUpACnQzyBJ6mOLJggJOf919yoh2g8I8dGqqH9vfsWUODhdfXtYjmvmRJCNlR4iSSqXEFNoAGNamozsS6mACNIR2YaO5gdtLZuPl6kmlio4n6b/qcUekoNqAEYmiEoYsoZa1Z9Imgo9BENu7Lhb2+WXQ57NaJ5iV0CRnk8aGjOMlbiqnjO2QGtvGrhB8n+l9BG6n/SAWH+SNeB6FORCO37ic5IK2Bw4bQrgiAD6D01a99/Vvf/o7zYcP+GWOJhA9uyddYE7L4Ixb6t8efzAOtMUaIUMzyJ2snUrBbwPLhm4AxqLkHu0cP/cgXJEGqOfom2p/NVFCoHAtlYphlpnQLBVe9R9DvnGZsqaME8kQ31wtkzRyNWCiSajkYRTbijWF9XG9k6qi1gOKGZcdzRgnuToTiK0yQM7G9JOY/JDmkruBE8QyeJGQh49ZNqJmjYOiZEKYsw8PhvEG1q3ni/3e8HwvzRDgWkAGc4Wm8ATjrtSEiFg1GzEMhGNyn4c6hkbFdgE9vF8ftbZLgozClJaxExbE4K09cIcUlj6YzzzuiRSoQ4F6m7xtlCifyPqUdKNrFPHG0ZXc4ZjZTaHl3e6p2nWhhOQnrDQlJaREFGzkTuKmPjlKynGlXIMSMONpZcHxyd5F3upu4Ghl3s7CDVYV5hthwJ+AKRHMURiRWV0huw449OPdLEkFzZ6FNayqEII83oO81wbCD1h5REqhgWTAwxDCn6/Z8c8rhZzuTz1z2ijiD0aXR8elqN1CcVD6b4uYqKShjy10W/TupRYq87KTVgkyK/RwfPemc3IjgWm9+7slos+QyJorIT8pm2woKJnO727OY/WEwNoHeKHOcZEWYEEuada9kUMkECEwsNHHTIdoQPage7htOawGGcmcwhyNjqMMAaog+/6lHiOr7j6IADRn3FxsEC4ahxQhgCKL+5YUDsAjZQAlj3D5Ohkts0Yg/D2UsgPLfCPhSqIJ2hBJlG7Ktm2lhlmIl76kB0LWFWiX40Uzs/bYUQ7LrnoshOT1/ur4ipTBqiUBDM4MfO7GJ4h13q81c3W5VljDvYb8j80AdT6xDACQZkuNJ3dgYH5NMoLelKOhVUbggUCHDeyDwpS/9yuc/97n/8T//V4k6AfwBfx7ceKCBgfn9AY2CKBpNF/0t7EYIQ/Bz5nC0CXPGF+fuLxX3Kf5ViH29vLYuz6UJP7cxQmKqrHQVsbCUs/NHPCxQkUVABALcJYiYBvHMZm6WbECF1ERGCXmKOUtsymis7tluPBgKdLeYkWwdA3/ch5iDQ4XgVihGggIT2IXsIC5ZtYVYSE2caQFf/W6jOSDfYWwf/O97sPAFRPfkIiyjoXzhXoyLsBBbtZiKlVZ8rWFw7UdfBk+2nAGXOi+Je5Eo6koQlpxM3sDEMFd1bCocLU6fc/aVrf0NaZvs4/hzQioUzqTqsBrQn7EBRFLlMkILLwvpUy2C8AzNcc8LrbhOeqSq5CoLkcjTBUU6LfQqM8NblUC3olJOWckNNcAq4NRdg36BHgGhaO1PfvITB/QqMgcOsD9PGrgXFK4dcOglsB+wM+gF8SsVv7A4kxXErHfl6mEi71HwMMGRKdMmWUakkawnis7oDGderGUYktbE2ExwBPGdOD5XE5GJpC0GA9iFDapweTm7Vl768fhUWIRH7NuzIDfx4KcAdHgrfEI8s17Z1xhyu1M3koLcHHkzTB6rq+hXuJh1ESNhhJQMYN/lYGlGUssmPf5nHu/Bwvc0l/c1eGkezKs3+5Pms2DqJwbN3oPCs9eYOwtMoDgVpMaLlPcUsKYHizcoORjxCw8t7ihbuFYk/TjBiPazWAuVG6R+vNDwXpyhROzpqZhNHqe1/EFXWYS8W2VaFZy4C/pliEWdF+vOXFy6kipKJW3mrN4rdXb7orWxjwa5rCgzHMQDPYAPTH2JstLwAgj+6Lvf/cEPf2ipWWcQh+weJn5/5KncfQ+Z+yuH2YGkZNxMmFsdacZ81YORAnKhXUkjrZ12pl6zf1fE8hQzGMpuulw/Ha+Vh6z6WkMs4ZTnSiyqhAv1lK3OR2ev4TaJ24hU1+cuxthToYukomLgkX2WVcnGmdAG0a7Jl4KmWSc6EtXcdNA7tJG4Pl1qOFfrwa+mkuoYWPlI5w8o+AAyzv6zjvdg4UstgksgFOjli09/izWbSyfqhf5wpfDI+RJxAaKBfhlh0mXo6b4wCROds6Rzh5Rt6SosGVgLTSSKC2LKvjruTuSz9J6w+zNErGZr9sHe7kw5kfnq2Q08Tiw1rs6xlOI5RKEBHYnBREp170KZTuWtFt2ry6fr2WJ9crfob0bHIm3iSNQBHdsjRiEREBtRcIQu6AjCpfF3bPli5ws9zxQFcc1tsApWpJX8831/FGgOEAmNLDKM7gSHc2d7pVFXO0HoetYNjcjUlX1jwVxfs5hjoWAQEG8uF00Fb5RwjlbhmXcCJndMqM+uFgPJR7dM/PQVHt+oS+LgWQGnfaXxu0/X26FafpY3NCwHpE1nIlOmEnNLJSZWk8j5psIkgDUUOEimrYJJYBPaGC2KLAlQ0bvSx3aAxT0kDuc+8N/3YOFLzxf5zZmGcN4dI1jh1h6kgWh8fPiprnGf8Ei6ZL0hRiZNcBdeEfw1SorWcEocVAEqqEhM6Q+zp4UhwcSs0jwnUGb2bJZwYFtqYUkUPDqQmnq8IorDZqsZqozpiYly07GxwGK1EdRqLyDcSzk+2yvMe6e3FOfLxebdmUqgtxewnnmPvmMV60tWUJGkQNv7g9VBwCBA4Pu5z/3i66+//vWvfyNjDb8B5z0OubXWH103SOY/C8vF0pezlMydP+7B/WOPvD/qsTQX3N7PYvtSXagzgFUs0UKOOLbaxSEJTvzj/eOn68XVYnXx+OdgkR07ONCTQDzoP/nkucikpZj0W8Yt5kPRRbGY84EOu7fjvtgGCZ0AYA9OdV+kxcVia2rwcYZrSQMwTsKoRSeIIbhX8w28xW+DlzHEgEz13MAy7Po4DK7h6+HXB//7j2Hh+1qrV784a24gZXqVfoNslk9mmWzL5KK8U2gfhaXDcMBhbY6wUrb52HVYn1RrF3gg9Z1EqRlq9bWa6Xd2jZA+Ipozu7eRe5hmJETyRkt6YOlRuxEdvJlfKhavFCTlOiWOWYN4SLOpD3/hxt5S4sxoyqggrI8gQO+rQ/fytgbqEL9CvCAiJKxl3e2+8YUvvPnmm1/72tfvx5prxbRroFk3xmyok+nks5/5jKLWP3r7R3H2uBBM1nxGhG5wM8ToAiUjUeXwFFBpLtDMEthjZL5jGFGudZW3UuBS4jhPx/aD6V1lww4puEdCuqRi49E3dzdy025XV0ITEKzh7uid60sl/PASNTBmnJ3FbRIMrfIRhBMwQ0bh8Ag6margWCkfsEw2wIl+BCz50Msw5IMgmH66vXW1QJcpz20f0vGBsDArwHv1JiA7gM8ZP8OKQunBOoQP3GOhz7opDpGAMXIlwyrLNuoWmzVYIxr2lfNdNAOXqeAuVf25TM0inj0ZnQ1Wg6ezp6K+2LYf2TK917lcXS0kzoe29m1wdSeMluEfvfTGMknSg3Du3qh3/kSdT66ACAWZ6lA1M+BXjeEAx1xs7DaUPaP6/ltvwfsM9uEgPfXy4VbVWP7VL/3S23/z9rt2hkrhRuPOuwqfCxFBJm/UULqw/4DzBbR7MB6uBn/bPbmBVU/u8Px2vusstmtR45+6OGM8FHK6lOEKSzq3ktJlVzCxpKQQki87VlQ/T+nA9kxBf2mjfXI7P6O8H1n0Ym91xAIniA9rs56IgzE2IucRDf0KgPwfXSR8LtO6P/yub9XE4eRP//eDYaH3AZwDWWnfgc9P3/Vdb6P3l/EdnKOgJDy2QT/hYhiOwcaimFlBfQQZIJmxLQulVus91UNvVfBWuCFxmNRsAJqeTJkOFegXVfR8/XwjlmJ9m9pba4Kk0pEjdodraSx3yg8vT7K+uwrCqiakP1CfE0sfuR7aK73U9Ka7AN0mXPeLCPrTAPq9733ff+07+tQkuTbMPBEcCikMBELkfCv6WpPlhnZPQSJjrJWZp4rc1pPlNfH4PfR8B9L2sxoWZyfq/EgChaiaeDNukcbj0akKkdt3by6VKbQB1IhxZjgR57FZLlP2RTDe+m62o9iJXcKElAu3qMN5lddIVIMPuo4guFgNoFvhWRaJQUCw5Axk+mTpxYPnQP8y4w0UBxQ0hJ+WBbcG7z8/MBa2J6uLoX+NJu47GuGQhrW18FC5wlT0jlEb5Qq/drG22iM+UzmAOQHpUur4WsRzyG0V5/D8WiRSNrxjDbcHXhK8tgLRVQzp8JUgD+eDU7XE1v1SU452CqIldnOzE84uzsGmefRnpdUSg8ztHoUPIAmXUUACTifyZw/ZGo7vzr447Dpm38a33vrBi1OFMQ9/+m52zBzkMD0QO3Nj1oJ9uVbviqvE2ixMhp77Btyv08HK4OhLR7rSbouL21qURIwXY7Kd5c3sWdwFR7eX8/6UkiFfzr6TqamjXJUA9IvxOWcJNY3uoRm94ZhCALmMwTZ6nDbJf9njNWmaQfr4sfpskLrkvbWmGHBa9zWUIbahtBnXdHXvY8bCDNGx71lAjkTpWggdWBfsra3EzErLr1hW9MiQpfSxESSEnawkBUy8TYxdpGyDN48peBWNUBpjaBSW2lEfUujRVgVJ/hNtrmaLifKNo5OnnXeU0CF7xp6lgCVGm4w85BFBkHgnkoHdvKWK0/1SMd0/8kEcUm0E91So1vueFBpBDe5Xv/QrX/zim//lt/5rjTWELqQv1/J/0b8Qj4SuxM+YA1XJ1fZ8BlA/DbjO5Kn61wAHZEHM9CSwe9CXur1eJmZ4sLMx6mLVuWUEnQwfLxNILfpa0QRFUYnIW/bAlIjk219H9xtNbJwkE1nT2hVQYruykUQT6hMH/tKWgPrMThPDhSAgUxSjoCnErcMgvDfmM300unS5pjNSZPu2H35dc/lDPD4oLUzv7g+Ur/APpEGTsYYVL7FCwBAJrKJDIq5BRsnCRzJuMp1hBURzYgebH6cw/DJuDFZNlrvbqXI73MC3Am1SBU3UHKN/zeBudDa1mee7s3cXHj4ZyWhGUEhLDtiwoOisstNTXEvcosSxnnITcFHoGHcchteWSjDifceDU3YWevY8lprQediyv/fBxFR3PJFLpY9ofE/YXmqnaAsz1otGWlvh34dOBAfDUmqioXFDy6zuvJ8u2+VQ6tuZVhEzQTwK6Mv9FsW5EG4DztlzTl2v8cUoxfSTKQnV5sSRuAGYEenL2XAAk7WKbMiYQK0IKSKXvKklwiGFuRkOaqBQMKPImRrh/ZfW+Y/i84Ni4Ut9qP6lxwVHC8hMl7BlWTmsL4Dk3XMAOtRkl8ofe21z+CJZ0JA8DTvhSaJAJM8esdCkXFIEpTiclTBbXuHdDPrEf/YR8632AGO/RAsEI8nU7CTyH+zGQPuxh2MiNI9JpG5XezbCUGyxmfYC9Z7FpNMvjaZ+pMe7RLl++9t11dyEwrV7i/RbZGW6efCsmcMQfN6f8yKyn58hSwTLsDq/tF6QyeA0b+6ddNuBL+epvBaHD+ryjQrA5He/u2H0SzWg48nN9VIkzJOLC49xlBBucFivWqgRZALi3+GrZ/KXyzoFW7hFFwQBDUuecANAkwjgpSpp+LGOeDAyRQjhHjitnz5zHBaMjn1Ex0+FhfrU+gk1gC/TUAaIADJQrhFkhPE7x4VCYoulFuzzAKCxL+LKhDf5OTQNKSa2qkMgw1gIl25A2uSShphpTqZZd3I+Ea+0XF2JbOIfFJtJsCRxE9BgyR0/Z7RIRYRJU7j+NvsK1QG/tFD9LFRI7+rwxdn23Wf8+rIbhm2r4syB7nMKseExfsQZWcvuwSOZqEj6QVgvuf9XpCQ47HTD0+BzILM/vDUPRfZKv0J6q22fFAj493x2zXt0ISbodif52v5+XqV4nDfCJ6Kewd6qtbxYnEiCwolIMoqDTLKntVfabAeeaYhGGLEH2UykdPoVX52Xm4xDf/Tf4dXts2TEBqEXq6v6vQdbff9wPn5aLGy9CIiBjyQC1QKL/eJGD8p+E6MC6LAPJAU7RjEIUVaB2k3U7cAnqkbaDdtedhRa2IxXYWsphzYBnNhYlS2c+IUyPV9cJ300ZUwQ2mT6ZF4FZMt4Jmj25O3KoYWfKEkmPW4TsxACBvA/eWEXXtWSLwh/+T98WZTrb3/ld/KrYVtm5h570ohLWmynioQEEk7XG4KIyXQBFV2ICzbznevpygucr7briiCaWskeCDlqSxf4ukfnFxfn3TNaBa8nO6sMgDjukgdNBeyx45xejPBlLiVrFGritRXcEM7RmU6FPxi4VaoMuy6DYVTjYFpmQhcBqghho4JFShoivkC2F98yyAz9Qz4+HCzMaMqqaWAhN7HahDrEAwXoGXQqTWXphzdAzZxBDpmUo7Y0g7CpKysgWV9lecWcLXpajUFLhIqHQuI3hiKHoCNgO5FIzDpMEuaPJKgDCUEXLdebHqcMUDCecCmRMWha7nli6f3hq7P5qM7Ut/Tr/ob2JVgUopG7MjqDORyGJXv/T//sT+xhHCm23eTqgUwWWCw/2og5jgid9nUnJruswzqcipfFQ3muxBo/8EearD1CxOOL7OcvxplXy+vIu8l8hcrBZnRNxizFGYc9UcSNjVpdEKOVl0MpUQs6LgMalJ+p8QBAGW7Ew9LV9mOBuphIsLJ1Kfe8BIoXoz6M/sP8+1Nioc7V/FQnC9CZhLDcEEeKW7L1EoqVrfKSu5qRRllV4inyVU+tETBR/Uv5Q3BUpFV6xHah9oKy6YIH5fKZd/WFITQpkhptH9TUWSJMiv+UYnI8TgXidTbmlmsvaMJGt1POlezWTIPs2yjaXBaAcdU9nrX+Fr44sz8yBUG0zle/+rVEUDttWgpvgjs6HkR8MDnd7s1s9id/+mfVWubPEz7d6T10UdRtj2dORkkJL9RIVmKW6Z7weGf+5V15o1ai4iUEUACliGfVs1YrilyXhVRNFSJfNrmAcJEcUj6GqWAg2AttzvbqgXlEcHG9gIz6+R7/r6IGxGopG5GRkQjM2RGDkemo1zqdLjRy/GCg7Wxd+mg+fkosfG+n2hy0iQLkLHFSmWFZ2v4ksyepItiuGQpfToEpgb7JjxLYpRJSqTS4VwKP0D6GQPuJephEKA0eEZHHl03oox1Gt7Oo7YVGU5mvZxJlhb47EAzxNhv7BLGmSIOWlYEMRl2oxVG9zmy3iffXmcKSYBk9p46HY4M6Ue1hSpCl/msYBqWcDpF76ciCDAY+OOlH6F3QNMaEAkd+11Hn0246Vf2iY+UiMU4WA4EEwqgsMBnf2EzLNsSjMYmDnZUAyM6iQlTMflXOpTVp8VNJkmgc0qnvCCL3XRECd9Q7/DUL7ml90DFH1tGDhfZgAB/h1w8fC2sNoYZtqImzybTFLkq/TSIn1pqpgIAmI/OQwIDCUokNNk1D9CIkJVWF+MMsnEQyW1QIzA6didTHlT84XiqrT+IWPxHJapstKHrD1VzBJZkomNzAflricuTl0S69JphUkKyZDoNEBvQtQE83gpbREzqdX/3VL3El//ff+708UQ8WdoT9+ffwiM3lPWeCnZpmI0XuXEur3hTcK27b6Gl+RkhMg24O4ulCUCA8P8zEqbu768W8d2wHE1k69KWhHIaT7gjcbm82o9PRaDwisEDBkwmNjRaS+p1KriGDAgorkskqDYy8ItQQVqf4Tr6hC6CW/zOAvC9TsgdAvd6PV3V8yFio2zWYTN7huyGSzZgQGj1MLrBLgJ/qD7EsMDezaidKNqGxuRyGUlw7fjyAmkxOyF0CjJi8yJI2D2eWjtwZ5FEBljFthauYhoGkjOGx7S0V08CNWNaOxRbLH60U5OBdnvFS769eZAaQrQN6VeceXVw8efI4A9hPTXW4jcjthakeukfKoE4NygNIYz2FeEFEz7vif6YBSBU1JafCFYrv6YUfWmrP+OYZ3Hj/rrRmRSUIuqvg7h0BQ7j6fLlgOlWgQBEa1qzj/hgEg2dhvMJlsvOYFiBrMd8MA2KCvhtSXyFDzsAKBduv3ONoiNi+v8rPDx8LW++Nv4lBNT1hTsYMNCSmaC5kHNWioA0ZCJhrPeZiCEZCM/mYiNpD9c12fZUW1sJfkUxuQVu/bNWkY35JwrhAfxnSfAkpeRH38ipRI3DNvgxqf7EXdlKyS8AJITLVab0okr9JPtDFPUlmOY8EGxTt9aTE8yP71WhSzZplA5vgUI3vgHRuD1Ltz+aSO9B2xB9ahJJm6Lmh7iyyU7eHiMK3rImIK7rsqOeDtp51v6axZcWVp9MJ85HdGMRv2OXh8npG2LOA1Tu1VhkfeOEZTSEZ0VA7crPtbaCoA5kljDrh7pWCJnITZtYQ2vidd6Tb7fPBQNKZV3V86FiYtdXmilJhAsDTWCqkF3wy58DgD5iz3Ce+3zW7P0KR4B5Vzao1DXZys/mtTXmywYxoWDUHZtltQpFjjqftuHe6tvvE+gaUp5SPTWel9BfvNCEwtTOFwsLnYkMyx0nmyolbCYlwqKPRn3StWHKEA/wpZMsf5UGePX0W/CpcaE8YVEhmY6X1oDNU9WBuWOr+gF71iiw6N6NtAQFnTwJFq0kMunTkfbN1dyFDfcsbo1En23kl/wvffV1T/G8zmz4TAk/sAq3or+A5so7dbFQQjkAThSROfN9QQ5V4oywjgq24FoCzRNgSwPkAJnPgLUAS61VQME/izg08xbwPI3oFfz90LNzD1h/jzKD39AAHKlBH6pFsmJyUgDs4GILAcn23WtpxQCJE9vgmGpL+4qgFKVxKGrLFPuisFIDlFWW9QAVxKvs1b54vKeEqSmaWbxfQGh1VB1Zpu+Bf7LiWQ9EysxJ8CXrAyMwI5u93LZX9ZOjoFz7/eVGu//sP/qA6WU/4yNqq+coJDedPDTJxvO1XztRRUp+bsxa8w7mG0D5DjVL5PifrfGFxrdX8TENBa1FGOwWzBoOz0cXs5mpm25ehje/kX8vLsWV02aCTEMbWr3gDW4/cB4eNNTMugiGAU0+8Trft38tv7J06EBW9ULZGUaPOOPRn36Xq1yv9+IiwMGPIRJfwZYChglCAjSDgZnPOqvRfyERA5QbMJGs0dQdA9ITuqzSOCbM9uKpARTO7R1N7h6suDOxxSqsuGR67FHkinIb2TC92CJHlXVVOs5nQ13ZzJidFQMC2AnWTgWmb7zBdLUR/CrZYFLmv87nPf+7NN77w1a999YAbhUSh49X93B3BMmgYvSvy4fuPvCUSYbAKMPwt2uoLTnx/3j36goA2dpwloWGHGrXULTrtYjMTDzy/fsYzt+0r1CMQKfdAfbhoMPIBKu8hJfIpLCQP8olQakbrTIJeZyLYdaTjQNpi28HCw6rKTU1GfP8gXtGZjxALCwYhhwFaDbVNGO6UbIrSHC2/sjq7CVsh1CFdUVBQO6fQP3PnC0t1dtvbdaeJ6b/Dl20BFD2GKioiEVqHpiXdFnVAblwjK2qZU0+lYo7UQgVYlxkPMgWRmn4A+crAWQA3O0Ltv/+97zNH63J7yhX3Jwo6dqFMbJZUsMwOutPPfOazV1eXb7/9tmQGZ9tgdcwLSgLLve0oMLTrOXH/LYJcDUb0GdIFY+L3hbOSvzZr1b7B7V/8/Kf+bpWEbkV5eMyBZqKqZX9AQgGxaoy2pvJPXHZi/JmyuPAiK1rZMVPEOAtIYfaFgv60Xvly/72defWfHy0WGk8bo6VuWhC7GGwjmOfDTxNTagqRnkk68TWpcWzrz52i6OYjm92ztOAr6jF7Xp0a28U/n1+pWkA0GtkjzgYqyOONou4QMv6omND46VdbFclPTVXvNJKnUjdb5sNs3VwYlI/MiOk2PTDCd90Nenbf+sEP3vrhDx5ORt2LcuJ15nJ/xUOTyeTf/pt//Vd/89d/987f8ZK5Ftkxa6IwPa363/sDgJx3g7eGFmdxQgpfqj85A7sGJ4qLpZmwEZsRRd9Segs/zroVs5DNZRR6qzKYMUEpxCDRhCgIVWuRheHkf1inPkHqvAcoRJEU+9J1dNFQ92O4H/fDwb767x81FhptEULSc6QSvzItmX+2E6JPOC1jX6AOI8NRxS8RCSsGrKEwgyEDmAeQsqvVrZosdiUNSona4rwiUm46Y9sAZkOYHny0Pcb4THU1RVw4+9DMufg7YhHw42OZKwbg/Wy0vzUv6YAj1OzJJ2QkP1EG6X4+gqqhUu89DC/oFAwJcX14FK6F50O5jDj4XZjo/sN9DRe1AC0amSLUNuEDiU6PtluZxdajcH3BQ1KZqG0ys9VA4jvJ5qpgkxgkVRtxAzVb5DjZAy4VbYJ76ZYFke7XS71lPwqv04+sCP9lYb2n+4cuvpK/HzkW1rJr05sVninwB8RYpfnRa2bKZGHpZskm9oOM2FG5Zg4bwUjsO31ZYh+CB0Wb8x10BylSeju/WXKkCv3ifR6st9PRxI6Cm352n8/2FHdrUV4JdE/tC/MSQWpP+XwL+63ZCfrVoW+7zi//8i+/+cYbsLA6n/N13a/DffU3j6SRNoERD2o8aSLNYZUIGBSrhttH1p8XVENu8jBsaLfrHJOKU9Zpoi+gHrQ7Ht8s31X76fxIeW80fpj9MHdbbHosCHiglhzXEJ1Ozdbk40bmINLYPIHjWBFImrTlUxszGX16lR4E4by9EBEyA3sA/jEeHzUWtqFlrmpm2qyJ783chD2FRAJDtoR3jppnEWPCLsGYYinRVwAylC8CkIgFu+raJVjVpu24rzja8exOSXDViO1uejdJ/mWiZ8c72wD1b9czlCF5WFFDIHAkr5qJMM0mFrxMBPzaPX333R//+Mf/wKzkhvtLfhQm+dsm9/7KS1+8iMUGDNweY2byX4MHnnUf9cxnAcRJ35BWf+u/u7uxwgqd4cXk/KQ3uVzcpDIrCm812iE1FXID1wSwyTzow1NM12Y7d/JlwReUiYn6JqzauBFCrMCp1rnqQGbhpb5+HD9eDRbWUDNT8C4+PF/DG+ALuAhNgH2ptmk7SMqsiyLiEorJyELvMC9mLpBVpIYmkuBivgR2WvjJv79V7F8ta+XSINbySFLQ8agfHt09mVzPj+w8mKmKSpSV4B7IWJBHlopQZR5fOr7zR9/9o+/+sVMPrxTCHG4r9AlSZRzBv5L6yZgPnii6R+cqf97+DaGXZViOhbmO9hbtGbaHc5+26j0+ZdMN7dk7PlW0NDuK2Cinu+oMu/YbIwZPR6fiyYUM36lhBpkzrnDZI/WGKwHUD36UooixVnopcOZd1VFv08d61cf88YqwsI0ygA7tyNxZj6AaMMVwV4H/CYTzyw4caBfmHR3TymbVISoqngQ3BcPeivrf2slDWbAwN0WIhSx1V0tyIC5+faPcIYdWd2ZTZon5HH3QkbyOyLa5zTzoTiYinz8J/glbGY2urq7fd/H9tzedoOGP8bzvhoZY1ZAxhftZi6Vq5JnCOhfbl4Am6yLIYehOklJm4mn687XquKxXSuRpJEnyKllnBw1sBOUENXoTfiJpWx3II9FI0ee1EjmQ9OlP/MiB54uF4nXv6+77RvxKTrzapVCjzvor0hCiFFxwNtBqJADgooyweEnJwYZTVZcaTesj1kTOUsufV8GzREhIJg83jo9Ystdqw9n892q9urxRZe32er5+Np/ZcyHlf/Ajyku9WAdCvh5iTCakjgL6b/7Gb/zn//Qf/2nwfzitUKgdHs0I4ZjF5HCTF4b2lc6RH3U07cRXX9qZXAqJ8oQTUGwH1wKF9erp/NlTWYgRK+ytGkdoOTW5lQV4rMkyxlXnIvA5cIASS9NauqXF1nKwNofzmYufgeMV0ML9OAvwVjrYAEfFm8eprLhWwMA8Y7fTFmVSiztp3NBOwjtLTMoRijWMV8+yTkk+hZlwGn6W5WouJFHtrqfPnkNW4UsKFd521mPSvtgnPpVo0XHhhGU1X8J+ikN08u62For110QFmUreqrWSO37yoX0XsnzC6UJaM9X+tn/JC6GfJERIx7xKmzxzoUi580XjDXMhYlBj72aPBKvuzE2czeubq83Z9FTfOJHu1urZZgOs7FKpWWVsBhOSDA4suYl10FAV9KarhecnJTSLrr3NZ+AM7G7K6Z8JFASNV4CFD6ewTVyWpm/mOjByHWzMEMcGFOXUCElxGpD7Qg6JkuYZ3CKD2//9eCSrzq7NSEB8B4qwrFdMuMcX4CsgXukGu9HAWKJm0qWO1qR578i8BmG8q2hDnYrvfy8deuEeNbqiXP/wD7/pt6ce9v6l73Xz88vnX//aNyjvyxWjegaVR/zL2FiEjmVnaZ9mAuNr0kOikg0QIplxN9WktZwm650NMnq7kgB2vDsVmiDtJBueb4JWJEv7JGS9scdU5CB0RAHZ7ZV/JeUkjDA9QQtjDy2WTQls3Maldrw0nI/1xyvGwoy1pq8NOgyB58KEBWa5AA8VByE0SmGK2b9j8za1gSRbqMmyofmtwX4Iq4Qgb2zdLTFX6s91dgCVlhf0Sgn61fUC0hb5kaXnjZZ9JLKa5LwaRuR1hezmqK7cX6QASUPQQuvky5/1THU155eL5Vs/+L528+oMI9KnW0LYoD3uWS8KI45LsjFBF0UbwMxw4XtM9wxTTaFwQ+S0nx0TRLAqsHCSMQyOsuU4MQRooCBEJLugtPJeOd9V7MlLYn5KOngJKpG5vdqID0ckzjT9s3S8aiwsWACAmQqBQy9SwKairgv26FWccslidzHBdsEhCMHebDtms0w+PB7HcGv/nv5MTYKd/CgpKGZjOVtsrufCPHt342fzqy2yILQrG0dqJ9Md8N/3oDpRJ8JNuXLyr6jQv/u1X3vjjS/8t9/9Xfe6waG7+y++mteIU/qXc4YR756TkDDLwIYuSQqU7RBR0P1ubm17edZbkI1mBUXhiGwSXuA8GHWtLKUHhq6r09H0kRLenHbH4Qmn/VPhlAyCuIJSC9bK8FQgEkO10oUK+VNI+J+hYpJIstJ0P5JAsLZGoUlDST8dbUQ/C5+vGgsLCzKnoADuQBFzYfZTibE/9CCWBkH30nkE+CeewbxZ+SOcd9NbLhEqGw4ON0zaNlcF6gFXSow6g3iRiZEDkWEMiXf94dV21hvcppaxSY9d0htjNiF/x0KB3AAAAydJREFUvXcGMiUIWYiaL2c2lTw/T/feN0Wodzh47irU9IUUEQd5kDLhAlFNZQ/DgB40iXVk30yeNLZsgZhhRqDEPP1o6JtXFa7vMT5o3Vnarq67tYXierbkPkkyjlTu9dFqt1mtVv0JEXA56ajiH24vMjMaW0mqOZGzWQHt8D0tp9WfuePVYyGogA7hKFQi/5m/zBPKUXqL04m8jnUrQYdJbZJFBrmG9rPr2g3pditLlEX7U6//wny1+tvLtzub+ZldcDu91UnvChZAQ/RJZOz1jZJJdG1KpfmuaTUBIQf5qLdm3oNS6UoYZHVHgf+/+Iu/gEd7hMgzJMiXJjDLJ7QspDH0LfmvEB37R87lJZ1AsJR6ixMuFP3hASFYRzWejtr6usINvcJPrSKPdU23tG97jt1wN7kYn7GOLq9m26FdM+7GQvxllHmxkId6cXhF6suUzQaHtt2V9ZCeFU10Psy6biiare0aubfkRR/v8TFgoQGDeGAX3hZKkN+BSX1GLLRTZfZN4fH1z0yFN4dKqi6AExMH5/HJ3c5YZzYbu4Ve9VNUrnt9N2esEUunWMhmdXOufH1/qn7LUD38/RwgVG12g3IWgj+lQHp/zUowbfdcmOvl88xoTuaAMabQZyFd/W4X9LrEPdpwEM46KvUHfdT1UNjMfJoxuMMTtBVVFiiqTtZLq2FXg4XwMAp9PWyr4smZsA0b7VK3F+vVsQ13I7/YuvposbrNRk5EmoruTrlSBNmGB3zITFe+R2UGPN3wn7E40qHg5ou+vPhWN3w8Hx8PFtakBiIwK+lQhX/mgIJcqlz9NUVoX68znjKZUZxNBFRZESRHSrduV//v2cyMACp7xN++c0kbFet5Nho9iSKCKEkiXWP2hPNQI38yFQG6/6G2L7hzIRrUCkbsyWGn8+abb3z607/w+7//B/dzUtQzt4RvN4yNkc90+g8aZ+Kx2ko1glNBp9ydNxVO5KFCxyBkULKQ7fDswZICZ4KBQUMV3uIa30hwVZ9fMU3S7fBYyEJ3s5Q1p8qHGpvIPGz2XwMbH0m87okLy6LLAGsAJRfGgR7C/zN5/D1MRgHBmARGlgAAAABJRU5ErkJggg==;" vertex="1" parent="1">
          <mxGeometry width="847.9" height="840" as="geometry" />
        </mxCell>
        <mxCell id="lvK7uPui4H0XOwhTd2_x-6" value="" style="shape=flexArrow;endArrow=classic;html=1;rounded=0;fillColor=default;strokeWidth=7;" edge="1" parent="1">
          <mxGeometry width="50" height="50" relative="1" as="geometry">
            <mxPoint x="280" y="480" as="sourcePoint" />
            <mxPoint x="610" y="480" as="targetPoint" />
          </mxGeometry>
        </mxCell>
        <mxCell id="lvK7uPui4H0XOwhTd2_x-7" value="" style="shape=flexArrow;endArrow=classic;html=1;rounded=0;exitX=0.708;exitY=0.429;exitDx=0;exitDy=0;exitPerimeter=0;fillColor=default;strokeWidth=7;" edge="1" parent="1" source="lvK7uPui4H0XOwhTd2_x-1">
          <mxGeometry width="50" height="50" relative="1" as="geometry">
            <mxPoint x="240" y="360" as="sourcePoint" />
            <mxPoint x="280" y="360" as="targetPoint" />
          </mxGeometry>
        </mxCell>
      </root>
    </mxGraphModel>
  </diagram>
</mxfile>
